<svg width="568" height="272" viewBox="0 0 568 272" fill="none" xmlns="http://www.w3.org/2000/svg">
<path d="M250.917 104.786C250.917 104.786 251.485 102.825 249.765 102.555C253.419 101.187 254.947 99.4153 254.933 90.6978C254.928 87.6815 253.263 85.1842 244.711 85.4264C235.68 85.6831 234.856 87.2143 235.525 95.9068C236.373 106.935 240.132 105.482 240.132 105.482C240.62 108.789 239.644 114.134 239.644 114.134H251.921C249.99 111.216 250.917 104.786 250.917 104.786Z" fill="#FFDD9E"/>
<path d="M247.826 80.5407C251.22 81.4876 256.061 84.1041 256.061 88.5815C256.062 92.7773 255.651 96.8539 254.57 97.8997C253.489 98.9456 254.99 101.874 250.131 101.885C245.63 101.895 240.698 99.2445 240.002 96.629C239.307 94.0135 235.198 97.471 234.518 94.7459C233.179 89.3697 233.414 86.5917 236.977 83.6686C240.081 81.1233 243.967 79.4642 247.826 80.5407Z" fill="#FBBB20"/>
<path d="M254.932 96.465C254.932 96.465 255.992 95.5922 256.369 96.6688C256.746 97.7454 254.276 101.323 253.349 100.13C252.422 98.9383 254.932 96.465 254.932 96.465Z" fill="#FFB27D"/>
<path d="M272.873 133.236L277.905 162.14L204.886 160.384C203.006 160.289 195.893 152.592 196.083 150.725L199.952 144.634C201.689 142.102 205.701 137.948 206.75 137.078C210.801 133.71 221.05 124.971 221.933 122.028C223.757 115.955 226.115 113.77 228.49 112.928C231.999 111.682 236.027 110.856 240.116 110.424C240.977 110.334 241.842 110.259 242.703 110.204C245.47 110.023 248.22 110.023 250.813 110.192C256.682 110.576 261.759 111.837 264.431 113.9C266.918 115.819 272.873 122.962 272.873 133.236Z" fill="#65B32E"/>
<path d="M244.914 77.0569C251.473 77.0569 255.084 79.5676 257.021 82.2841C264.491 92.7625 254.687 96.6536 256.062 100.371C257.437 104.088 268.341 114.831 266.362 119.604C261.449 131.451 246.837 123.991 244.915 119.361C244.286 117.847 242.301 105.159 250.651 101.004C253.164 99.7536 238.002 97.0823 235.526 95.9C231.924 94.1813 231.748 91.1871 232.306 88.3341C233.216 83.6769 236.531 77.0569 244.914 77.0569Z" fill="#FBBB20"/>
<path d="M240.427 96.3918C240.427 96.3918 240.598 94.5203 239.189 94.7635C236.325 95.2576 235.719 100.182 237.648 100.579C239.576 100.976 240.427 96.3918 240.427 96.3918Z" fill="#FFDD9E"/>
<path d="M249.066 102.461C248.852 102.461 248.637 102.4 248.447 102.27C247.946 101.929 247.818 101.248 248.16 100.749C248.259 100.608 250.622 97.2685 256.147 98.4268C256.74 98.5508 257.121 99.1304 256.996 99.7216C256.873 100.314 256.285 100.696 255.696 100.567C251.587 99.712 249.988 101.961 249.973 101.984C249.762 102.295 249.417 102.461 249.066 102.461Z" fill="#13152C"/>
<path d="M171.297 98.7725C171.297 98.7725 171.537 102.207 171.005 104.203C170.69 105.384 176.681 110.63 176.681 110.63C176.681 110.63 180.725 107.115 181.058 104.203C180.925 101.744 180.795 98.7725 180.795 98.7725H171.297V98.7725Z" fill="#FFDD9E"/>
<path d="M165.817 88.152C165.032 89.7149 166.48 92.2055 167.833 92.2766C169.188 92.3478 167.812 87.2292 167.812 87.2292C167.812 87.2292 166.601 86.589 165.817 88.152Z" fill="#FFDD9E"/>
<path d="M186.197 87.2191C186.197 87.2191 184.084 92.082 185.435 92.2099C186.785 92.3367 188.582 90.0826 188.036 88.4226C187.49 86.7625 186.197 87.2191 186.197 87.2191Z" fill="#FFDD9E"/>
<path d="M176.693 101.152C181.83 101.152 185.994 95.7041 185.994 88.9842C185.994 82.2644 181.83 76.8169 176.693 76.8169C171.556 76.8169 167.392 82.2644 167.392 88.9842C167.392 95.7041 171.556 101.152 176.693 101.152Z" fill="#FFDD9E"/>
<path d="M141.214 145.758C140.804 147.527 147.43 150.169 150.666 149.227C150.752 148.854 150.848 148.473 150.918 148.118C152.502 140.12 156.598 131.763 156.598 131.763L145.27 130.063C145.27 130.063 142.995 138.074 141.214 145.758Z" fill="#FFB680"/>
<path d="M194.018 109.801C190.921 108.111 181.058 104.204 181.058 104.204C181.058 104.204 180.126 106.819 176.067 106.819C172.537 106.819 171.006 104.204 171.006 104.204C171.006 104.204 159.253 108.221 155.718 109.979C152.189 111.735 149.96 115.215 148.058 120.454C146.432 124.937 144.723 131.763 144.723 131.763L153.182 133.715C154.235 130.838 156.656 124.228 157.563 121.836C158.735 118.743 160.229 117.929 160.752 123.495C161.275 129.06 162.253 141.749 163.425 146.403C163.864 148.148 158.567 159.673 160.22 162.27L173.384 160.522H181.058L192.737 162.066C192.958 159.598 186.954 148.486 186.72 148.071C186.217 147.175 188.223 138.421 188.722 133.686C188.953 131.485 191.144 124.66 191.211 122.803C191.312 120.067 193.906 125.397 194.473 126.781C195.131 128.391 206.09 131.177 206.09 131.177C206.09 131.177 203.124 121.896 201.868 118.848C200.007 114.329 198.701 112.356 194.018 109.801Z" fill="#5B57A2"/>
<path d="M168.431 77.4242C164.52 81.7239 167.013 87.7066 167.013 87.7066C167.013 87.7066 169.418 93.9172 170.993 95.41C172.866 97.1844 174.556 98.3754 176.693 98.3754C178.997 98.3754 181.058 98.4888 183.424 95.41C184.691 93.7605 186.554 87.7066 186.554 87.7066C186.554 87.7066 188.677 82.3179 185.602 77.802C182.225 72.844 172.439 73.0179 168.431 77.4242Z" fill="#EE7225"/>
<path d="M153.157 143.508L158.622 128.156C158.727 133.807 157.862 139.899 156.652 145.548L166.337 151.2C167.441 137.041 167.326 121.248 167.122 112.21V104.041C167.122 104.041 162.934 105.454 160.359 106.277C156.669 107.459 153.607 108.784 152.162 110.977C149.318 115.292 141.304 140.264 141.215 145.758C141.168 148.653 142.765 152.176 144.722 153.077C146.867 154.064 150.322 155.305 153.808 156.473C154.786 153.255 155.804 149.512 156.652 145.548L153.157 143.508Z" fill="#5B57A2"/>
<path d="M212.76 78.3739C211.738 79.2112 214.257 91.7178 212.76 90.7066C210.205 88.9822 207.821 88.8389 209.524 91.5621C211.227 94.2853 212.781 97.0258 213.409 99.2847C214.037 101.544 211.496 108.801 210.475 115.271C209.453 121.74 207.777 120.665 208.522 126.211C209.045 130.105 211.225 135.834 213.873 132.466C214.995 131.037 217.108 129.066 217.868 124.991C220.422 111.313 219.357 97.4718 217.868 90.7057C216.293 83.555 213.781 77.5367 212.76 78.3739Z" fill="#FFDD9E"/>
<path d="M220.998 102.801C218.157 103.567 214.039 103.086 211.483 102.593C210.773 109.03 208.336 122.413 208.336 122.413C208.336 122.413 200.99 112.794 199.793 110.978C198.348 108.785 195.286 107.46 191.596 106.278C189.021 105.453 184.832 104.041 184.832 104.041V112.211C184.515 126.262 184.409 156.655 188.774 171.825C193.498 171.883 201.791 167.013 201.791 167.013C201.791 167.013 193.012 145.497 193.333 128.156C193.333 128.156 201.098 133.672 203.87 136.389C206.726 139.19 209.941 137.99 211.768 137.209C213.86 136.314 216.477 133.795 217.718 131.968C222.482 124.959 220.54 108.501 220.998 102.801Z" fill="#5B57A2"/>
<path d="M176.241 100.309C170.892 100.309 170.11 100.519 168.43 101.558C167.308 102.252 164.19 105.021 164.19 105.021C164.19 105.021 168.666 108.818 176.748 108.818C184.831 108.818 188.293 105.196 188.293 105.196C188.293 105.196 185.462 102.715 184.267 101.9C182.687 100.825 181.591 100.309 176.241 100.309Z" fill="#5B57A2"/>
<path d="M122.075 93.4139C121.462 91.6741 120.013 92.1518 120.013 92.1518C120.013 92.1518 119.893 92.4162 119.737 92.7862C119.236 86.3123 114.782 81.2466 109.357 81.2466C104.138 81.2466 99.8267 85.9403 99.0606 92.0615C98.6032 91.9701 97.7705 91.9923 97.1606 93.1294C96.3018 94.7299 97.8322 97.2454 99.3192 97.4281C99.9667 100.27 101.402 102.706 103.313 104.379C103.352 104.989 103.515 108.078 102.978 109.957C102.624 111.194 109.344 116.694 109.344 116.694C109.344 116.694 113.879 113.01 114.252 109.957C114.16 108.353 114.068 106.545 114.012 105.405C116.633 103.798 118.626 100.886 119.412 97.3569C120.884 97.2387 122.655 95.0596 122.075 93.4139Z" fill="#FFDD9E"/>
<path d="M127.531 115.824C124.284 114.053 113.944 109.957 113.944 109.957C113.944 109.957 112.968 112.699 108.711 112.699C105.011 112.699 103.406 109.957 103.406 109.957C103.406 109.957 91.085 114.167 87.3796 116.011C83.6811 117.852 81.344 121.5 79.3504 126.993C77.6444 131.692 75.8535 138.847 75.8535 138.847L84.7222 140.893C85.8251 137.877 87.5495 135.484 88.4999 132.976C89.7293 129.734 91.7952 131.335 92.3442 137.17C92.8933 143.005 94.2307 149.314 95.46 154.194C95.6327 154.882 95.9579 155.7 96.3883 156.598H119.99C119.974 156.279 119.939 156.047 119.881 155.942C119.353 155.004 118 154.795 115.195 154.691C112.388 154.586 114.86 152.188 117.246 150.415C119.632 148.643 121.456 145.826 121.98 140.863C122.223 138.556 123.916 133.534 124.379 131.639C124.9 129.509 127.416 132.173 128.009 133.624C128.699 135.312 129.886 138.36 130.683 140.421L140.913 137.97C140.913 137.97 137.805 128.241 136.488 125.045C134.534 120.31 132.44 118.502 127.531 115.824Z" fill="#F691B3"/>
<path d="M129.305 140.751C129.305 140.751 132.102 148.732 134.47 151.62C138.617 156.68 143.248 151.844 143.109 148.098C143.051 146.536 140.91 137.969 140.91 137.969L129.305 140.751Z" fill="#FFDD9E"/>
<path d="M73.8883 148.099C73.7494 151.846 78.381 156.681 82.5273 151.622C84.8953 148.733 87.6926 140.752 87.6926 140.752L76.0864 137.971C76.0874 137.97 73.9462 146.537 73.8883 148.099Z" fill="#FFDD9E"/>
<path d="M108.245 77.0306C104.499 77.6545 102.866 77.741 101.715 76.4087C100.835 77.2969 100.746 78.2745 101.225 79.8691C99.8544 79.326 98.2893 78.4513 98.2893 78.4513C98.2893 78.4513 97.8975 81.1159 98.904 81.9156C97.0426 84.6455 98.3318 92.0259 98.3318 92.0259C98.3318 92.0259 100.171 96.636 101.02 98.9564C103.252 105.052 106.63 105.909 109.464 105.891C111.969 105.874 115.103 105.052 117.241 100.095C118.121 98.0548 120.592 92.0269 120.592 92.0269C120.592 92.0269 122.866 85.4145 120.65 82.005C118.604 78.857 114.111 76.053 108.245 77.0306Z" fill="#1A0940"/>
<path d="M88.5509 152.388H82.7228C75.918 152.388 70.6968 154.923 71.681 161.632L77.9907 197.14C78.6749 201.802 82.688 205.258 87.4171 205.258H104.746L88.5509 152.388Z" fill="#5B57A2"/>
<path d="M126.365 152.388H132.194C138.998 152.388 144.219 154.923 143.234 161.632L136.925 197.14C136.24 201.802 132.227 205.258 127.498 205.258H110.169L126.365 152.388Z" fill="#5B57A2"/>
<path d="M124.492 212.755H91.0183C86.3297 212.755 82.4372 209.902 82.0956 206.217L75.5476 135.476C75.1693 131.391 76.9438 127.912 82.1409 127.912H132.998C138.18 127.912 139.95 131.373 139.594 135.447L133.416 206.188C133.093 209.886 129.194 212.755 124.492 212.755Z" fill="#1A0940"/>
<path d="M89.4934 212.755L88.1608 227.359C88.0779 228.266 88.7948 229.047 89.7086 229.047C90.3483 229.047 90.907 228.617 91.0691 228L95.0678 212.755H89.4934Z" fill="#5B57A2"/>
<path d="M126.269 212.755L127.601 227.359C127.684 228.266 126.967 229.047 126.054 229.047C125.414 229.047 124.855 228.617 124.693 228L120.693 212.755H126.269Z" fill="#5B57A2"/>
<path d="M158.934 152.387H153.106C146.301 152.387 141.08 154.923 142.064 161.631L148.374 197.139C149.058 201.801 153.071 205.257 157.8 205.257H175.13L158.934 152.387Z" fill="#5B57A2"/>
<path d="M196.749 152.387H202.577C209.382 152.387 214.602 154.923 213.618 161.631L207.308 197.139C206.624 201.801 202.611 205.257 197.882 205.257H180.553L196.749 152.387Z" fill="#5B57A2"/>
<path d="M194.876 212.755H161.403C156.714 212.755 152.821 209.902 152.48 206.216L145.932 135.476C145.554 131.391 147.328 127.912 152.525 127.912H203.382C208.565 127.912 210.334 131.372 209.978 135.447L203.8 206.187C203.478 209.885 199.578 212.755 194.876 212.755Z" fill="#1A0940"/>
<path d="M159.878 212.755L158.545 227.359C158.462 228.265 159.179 229.047 160.093 229.047C160.733 229.047 161.291 228.617 161.453 228L165.452 212.755H159.878Z" fill="#5B57A2"/>
<path d="M196.652 212.755L197.985 227.359C198.068 228.265 197.351 229.047 196.437 229.047C195.797 229.047 195.238 228.617 195.076 228L191.077 212.755H196.652Z" fill="#5B57A2"/>
<path d="M229.317 152.387H223.489C216.684 152.387 211.464 154.923 212.447 161.631L218.757 197.139C219.441 201.801 223.454 205.257 228.184 205.257H245.513L229.317 152.387Z" fill="#5B57A2"/>
<path d="M267.132 152.387H272.96C279.765 152.387 284.985 154.923 284.001 161.631L277.691 197.139C277.007 201.801 272.994 205.257 268.265 205.257H250.936L267.132 152.387Z" fill="#5B57A2"/>
<path d="M265.258 212.755H231.784C227.095 212.755 223.203 209.902 222.861 206.216L216.313 135.476C215.935 131.391 217.709 127.912 222.907 127.912H273.763C278.946 127.912 280.716 131.372 280.36 135.447L274.181 206.187C273.86 209.885 269.96 212.755 265.258 212.755Z" fill="#1A0940"/>
<path d="M230.26 212.755L228.927 227.359C228.844 228.265 229.561 229.047 230.475 229.047C231.115 229.047 231.674 228.617 231.836 228L235.835 212.755H230.26Z" fill="#5B57A2"/>
<path d="M267.036 212.755L268.368 227.359C268.451 228.265 267.734 229.047 266.821 229.047C266.181 229.047 265.622 228.617 265.46 228L261.46 212.755H267.036Z" fill="#5B57A2"/>
<path d="M190.784 210.443L156.324 210.123C156.324 210.123 152.74 215.631 151.756 222.812C150.989 228.41 153.004 233.248 158.54 236.986C164.663 237.244 182.208 236.986 186.96 236.986C191.71 236.986 196.095 230.805 194.199 223.163C193.166 219.001 190.784 210.443 190.784 210.443Z" fill="#262626"/>
<path d="M177.718 158.479C177.85 155.592 177.718 149.819 177.718 149.819H173.228H171.535H167.044C167.044 149.819 166.913 155.592 167.044 158.479C167.176 161.365 162.17 163.142 162.17 163.142C162.17 163.142 164.547 166.965 169.762 168.261C170.219 168.536 170.78 168.693 171.468 168.693C171.784 168.693 172.08 168.67 172.381 168.653C172.682 168.671 172.98 168.693 173.295 168.693C173.984 168.693 174.544 168.536 175.002 168.261C180.217 166.965 182.593 163.142 182.593 163.142C182.593 163.142 177.587 161.365 177.718 158.479Z" fill="#996633"/>
<path d="M161.271 142.658C160.405 144.387 162.005 147.141 163.502 147.219C165.001 147.298 163.479 141.637 163.479 141.637C163.479 141.637 162.139 140.931 161.271 142.658Z" fill="#996633"/>
<path d="M181.618 141.627C181.618 141.627 179.282 147.006 180.776 147.146C182.27 147.287 184.256 144.794 183.652 142.958C183.047 141.122 181.618 141.627 181.618 141.627Z" fill="#996633"/>
<path d="M192.246 167.536C192.246 167.536 190.391 165.715 186.713 164.428C184.08 163.506 180.6 162.196 180.6 162.196C180.6 162.196 172.857 171.089 164.162 162.196C164.162 162.196 160.046 163.762 157.944 164.65C155.842 165.538 152.944 167.536 152.944 167.536C152.944 167.536 157.047 189.315 157.944 193.273C158.783 196.974 158.49 200.71 157.946 203.196C157.407 205.657 155.239 209.337 154.493 213.559H191.419C190.798 210.016 189.901 206.764 188.879 203.942C187.9 201.243 187.271 196.416 187.716 193.019C188.726 185.311 192.246 167.536 192.246 167.536Z" fill="#E50050"/>
<path d="M167.346 194.822C165.423 193.724 162.287 192.203 158.242 193.148C157.071 193.422 152.48 193.947 149.359 195.723C151.83 193.128 153.51 187.704 154.494 184.571C151.537 184.924 148.482 183.426 146.451 181.276C146.448 181.284 142.448 189.363 140.592 198.166C140.113 200.434 139.477 203.263 140.592 204.827C141.706 206.391 147.297 207.29 149.879 206.391C152.461 205.493 158.764 199.328 159.613 200.46C162.11 203.791 167.452 204.705 168.622 203.877C169.792 203.05 168.446 195.448 167.346 194.822Z" fill="#FFDD9E"/>
<path d="M199.065 180.812C197.04 183.41 193.487 184.785 190.601 184.569C191.858 188.491 194.352 195.633 196.762 198.164C190.584 199.164 188.588 200.589 187.476 200.13C186.271 199.634 186.571 197.01 184.693 196.911C184.576 198.465 184.687 200.019 184.687 200.019C184.687 200.019 180.563 197.607 177.443 198.243C174.307 198.883 171.759 202.573 178.446 206.008C179.721 206.663 191.415 207.514 195.498 207.158C198.223 206.919 203.595 206.391 204.709 204.827C205.824 203.262 205.378 200.386 204.709 198.165C204.041 195.944 200.611 183.144 199.065 180.812Z" fill="#FFDD9E"/>
<path d="M154.897 211.765L154.493 213.56H191.644L191.15 211.765H154.897Z" fill="#0A0A0A"/>
<path d="M171.536 165.454C166.865 165.242 164.161 162.196 164.161 162.196L163.021 162.633C163.021 162.633 165.216 167.586 171.982 167.379C179.226 167.157 182.304 162.831 182.304 162.831L180.6 162.196C180.601 162.196 176.207 165.667 171.536 165.454Z" fill="#E2403D"/>
<path d="M171.493 165.961C166.095 165.724 163.022 162.632 163.022 162.632L161.026 163.408C161.026 163.408 163.321 167.771 166.095 169.152C169.074 170.635 175.566 171.079 178.405 169.726C181.761 168.128 183.873 163.409 183.873 163.409L180.601 162.196C180.601 162.196 178.621 166.274 171.493 165.961Z" fill="#FFF2DA"/>
<path d="M155.832 165.729C155.832 165.729 152.878 164.538 149.727 169.44C146.577 174.34 143.403 185.564 143.403 185.564C143.403 185.564 147.506 189.032 149.617 189.651C152.944 190.623 155.597 189.651 155.597 189.651C155.597 189.651 156.226 184.893 155.607 179.38C154.989 173.865 155.832 165.729 155.832 165.729Z" fill="#FFF2DA"/>
<path d="M189.862 165.729C189.862 165.729 189.728 173.452 189.108 178.965C188.489 184.479 190.096 189.651 190.096 189.651C190.096 189.651 193.763 190.529 197.201 190.083C200.534 189.651 202.29 185.564 202.29 185.564C202.29 185.564 199.116 174.34 195.966 169.44C192.817 164.538 189.862 165.729 189.862 165.729Z" fill="#FFF2DA"/>
<path d="M191.669 147.322C191.242 144.276 188.413 143.953 188.413 143.953C188.413 143.953 190.654 141.838 189.693 139.476C188.746 137.145 185.275 137.582 185.275 137.582C185.275 137.582 187.819 135.363 186.394 133.418C184.97 131.474 182.062 132.437 182.062 132.437C182.062 132.437 182.406 130.359 180.5 129.024C178.839 127.86 176.061 130.459 176.061 130.459C175.988 129.306 174.234 127.659 172.45 127.637C170.599 127.615 168.715 129.263 168.639 130.459C168.639 130.459 165.86 127.86 164.2 129.024C162.294 130.359 162.64 132.437 162.64 132.437C162.64 132.437 159.731 131.475 158.307 133.418C156.883 135.363 159.425 137.582 159.425 137.582C159.425 137.582 155.954 137.146 155.007 139.476C154.046 141.838 156.287 143.953 156.287 143.953C156.287 143.953 153.459 144.276 153.032 147.322C152.716 149.572 154.604 150.945 154.604 150.945C154.604 150.945 152.827 152.121 153.032 154.332C153.259 156.788 155.954 157.047 155.954 157.047C155.954 157.047 153.951 158.843 154.574 160.671C155.197 162.5 158.306 161.993 158.306 161.993C158.306 161.993 158.127 164.83 159.99 165.777C161.026 166.305 162.729 166.305 164.2 165.015C164.2 166.538 167.173 168.682 170.431 166.305C171.171 169.184 176.355 169.184 177.318 166.677C179.375 169.073 181.945 167.715 182.548 165.772C183.713 165.841 184.97 165.658 185.167 165.493C186.746 164.166 186.394 161.993 186.394 161.993C186.394 161.993 189.504 162.5 190.127 160.671C190.749 158.843 188.746 157.047 188.746 157.047C188.746 157.047 191.44 156.788 191.669 154.332C191.874 152.121 190.097 150.945 190.097 150.945C190.097 150.945 191.984 149.571 191.669 147.322Z" fill="#F2CCAA"/>
<path d="M110.705 167.752L99.9 172.71L97.4741 164.342C97.4741 164.342 99.017 161.447 99.7147 156.702C100.006 154.707 100.151 152.385 99.9656 149.814L109.831 154.846C109.831 154.846 109.596 155.754 109.438 157.095C109.27 158.545 109.195 160.498 109.609 162.354C109.965 163.949 110.362 165.661 110.705 167.752Z" fill="#FFDD9E"/>
<path d="M109.608 162.355C103.998 162.206 99.7148 156.703 99.7148 156.703L109.438 157.097C109.271 158.545 109.195 160.5 109.608 162.355Z" fill="#FBBB20"/>
<path d="M112.329 159.241C112.329 159.241 101.139 162.185 97.2792 153.32C93.1136 143.754 97.6835 136.784 101.483 136.314C109.061 135.377 113.22 137.564 114.794 141.297C116.085 144.358 118.504 157.673 112.329 159.241Z" fill="#FFDD9E"/>
<path d="M114.272 140.356C116.361 140.794 116.517 137.663 113.22 134.805C109.552 131.626 102.09 130.431 96.7168 134.489C87.3551 141.559 91.5486 153.814 98.2279 157.201C99.0761 157.63 100.111 157.374 100.666 156.604C101.798 155.038 103.979 152.035 103.029 151.378C101.458 150.288 101.296 145.176 104.385 146.793C106.39 147.843 102.181 137.817 114.272 140.356Z" fill="#5B57A2"/>
<path d="M89.3263 227.656C102.601 239.103 96.185 217.954 102.164 210.378C102.968 209.357 103.618 208.641 104.089 208.357C108.068 205.948 113.797 196.85 114.113 192.998C114.4 189.511 114.274 185.919 113.926 182.501C112.894 172.345 109.905 163.689 109.905 163.689C99.404 163.982 98.3137 162.356 98.3137 162.356C82.9114 170.408 84.5721 223.558 89.3263 227.656Z" fill="#FBBB20"/>
<path d="M102.164 210.379C102.968 209.358 103.618 208.642 104.089 208.357C108.069 205.949 113.797 196.85 114.114 192.999C114.4 189.511 114.274 185.92 113.927 182.502C112.42 179.355 109.889 176.788 106.001 175.344H102.528C102.528 175.344 92.7696 184.6 102.164 210.379Z" fill="#F0823A"/>
<path d="M115.494 172.71C115.494 172.71 116.447 198.142 120.284 201.839C124.122 205.536 130.162 219.033 130.162 219.033L126.691 221.58C126.691 221.58 115.027 210.694 112.476 207.486C109.926 204.277 99.7234 181.41 102.48 177.42C105.239 173.429 105.816 167.047 115.494 172.71Z" fill="#FFDD9E"/>
<path d="M107.137 163.723C109.516 164.085 111.818 164.918 114.756 169.582C117.694 174.246 118.847 180.768 118.847 180.768C118.847 180.768 114.664 187.28 101.904 183.69C89.1424 180.099 98.4145 162.394 107.137 163.723Z" fill="#FBBB20"/>
<path d="M114.056 148.022C114.085 147.725 114.203 147.42 114.491 147.376C114.853 147.321 115.243 147.705 115.361 148.237C115.479 148.767 115.28 149.243 114.916 149.298C114.269 149.397 114.008 148.515 114.056 148.022Z" fill="#1A0940"/>
<path d="M107.796 148.695C107.825 148.398 107.943 148.092 108.23 148.048C108.593 147.993 108.983 148.377 109.101 148.909C109.218 149.44 109.02 149.915 108.656 149.97C108.008 150.069 107.748 149.187 107.796 148.695Z" fill="#1A0940"/>
<path d="M114.316 151.487C114.18 151.24 113.96 151.048 113.772 150.841C113.558 150.606 113.37 150.35 113.204 150.081C112.87 149.539 112.648 148.949 112.523 148.336C112.489 148.168 112.277 148.076 112.128 148.115C111.95 148.161 111.89 148.332 111.924 148.498C112.132 149.529 112.631 150.497 113.351 151.287C113.628 151.591 114.019 151.91 113.712 152.31C113.405 152.711 112.8 152.676 112.335 152.667C111.93 152.66 111.956 153.285 112.36 153.293C112.966 153.305 113.614 153.284 114.073 152.863C114.452 152.515 114.58 151.967 114.316 151.487Z" fill="#EE7225"/>
<path d="M109.862 153.983C110.757 154.731 112.019 155.012 113.144 154.674C113.327 154.62 113.528 154.685 113.603 154.872C113.668 155.038 113.587 155.274 113.404 155.329C112.038 155.739 110.517 155.448 109.419 154.531C109.07 154.24 109.513 153.691 109.862 153.983Z" fill="#EE7225"/>
<path d="M115.161 146.02C115.174 146.231 113.723 146.171 113.451 146.062C113.32 146.009 113.186 145.91 113.185 145.732C113.184 145.573 113.3 145.405 113.43 145.325C113.56 145.245 113.701 145.233 113.833 145.238C113.833 145.237 115.126 145.414 115.161 146.02Z" fill="#1A0940"/>
<path d="M107.264 146.168C107.252 146.379 108.702 146.319 108.974 146.209C109.105 146.157 109.239 146.058 109.24 145.88C109.241 145.72 109.126 145.553 108.995 145.473C108.865 145.392 108.724 145.381 108.592 145.386C108.592 145.385 107.3 145.562 107.264 146.168Z" fill="#1A0940"/>
<path d="M237.971 168.488C237.971 168.488 239.048 175.551 236.805 179.217H251.075C251.075 179.217 249.939 173.138 250.507 169.293C251.075 165.448 237.971 168.488 237.971 168.488Z" fill="#FFDD9E"/>
<path d="M244.254 171.817C244.254 171.817 254.876 171.114 255.862 158.296C256.64 148.192 255.683 146.404 245.185 146.105C235.245 145.823 233.309 148.708 233.304 152.215C233.276 170.723 240.301 170.911 244.254 171.817Z" fill="#FFDD9E"/>
<path d="M241.564 140.443C237.619 141.544 233.489 143.955 231.913 148.572C230.337 153.189 231.973 160.619 233.725 160.619C236.203 160.619 237.376 169.739 244.685 169.739C249.073 169.739 250.642 167.805 251.665 164.83C254.326 157.084 255.368 161.426 256.296 158.297C257.225 155.168 258.469 147.086 254.326 143.688C250.719 140.728 246.048 139.191 241.564 140.443Z" fill="#5B57A2"/>
<path d="M233.304 158.952C233.304 158.952 232.073 157.937 231.634 159.189C231.195 160.441 234.067 164.598 235.144 163.213C236.221 161.826 233.304 158.952 233.304 158.952Z" fill="#FFDD9E"/>
<path d="M254.923 158.952C254.923 158.952 256.154 157.937 256.593 159.189C257.032 160.441 254.159 164.598 253.082 163.213C252.006 161.826 254.923 158.952 254.923 158.952Z" fill="#FFDD9E"/>
<path d="M222.657 179.217C229.232 173.562 246.79 172.689 260.559 177.217C266.076 179.032 271.466 184.98 271.466 192.346C271.466 203.626 271.521 218.242 269.377 218.353C269.377 218.353 213.487 209.318 214.603 207.533C218.849 200.742 214.604 186.143 222.657 179.217Z" fill="#954B97"/>
<path d="M79.6518 215.32H73.5582C66.4438 215.32 60.9851 217.971 62.0147 224.985L68.612 262.109C69.327 266.982 73.5235 270.595 78.4678 270.595H96.5854L79.6518 215.32Z" fill="#5B57A2"/>
<path d="M119.187 215.32H125.281C132.395 215.32 137.853 217.971 136.824 224.985L130.227 262.109C129.512 266.982 125.315 270.595 120.371 270.595H102.253L119.187 215.32Z" fill="#5B57A2"/>
<path d="M117.228 278.435H82.2319C77.33 278.435 73.2599 275.452 72.9038 271.6L66.0576 197.641C65.662 193.37 67.5176 189.733 72.9511 189.733H126.122C131.54 189.733 133.391 193.351 133.018 197.611L126.559 271.57C126.221 275.435 122.144 278.435 117.228 278.435Z" fill="#1A0940"/>
<path d="M153.238 215.32H147.144C140.03 215.32 134.571 217.971 135.601 224.985L142.198 262.109C142.913 266.982 147.109 270.595 152.054 270.595H170.171L153.238 215.32Z" fill="#5B57A2"/>
<path d="M192.772 215.32H198.866C205.98 215.32 211.438 217.971 210.41 224.985L203.812 262.109C203.097 266.982 198.901 270.595 193.956 270.595H175.839L192.772 215.32Z" fill="#5B57A2"/>
<path d="M190.814 278.435H155.818C150.916 278.435 146.846 275.452 146.49 271.6L139.644 197.641C139.248 193.37 141.104 189.733 146.537 189.733H199.708C205.126 189.733 206.977 193.351 206.604 197.611L200.145 271.57C199.807 275.435 195.73 278.435 190.814 278.435Z" fill="#1A0940"/>
<path d="M226.824 215.32H220.731C213.616 215.32 208.157 217.971 209.187 224.985L215.784 262.109C216.499 266.982 220.696 270.595 225.64 270.595H243.758L226.824 215.32Z" fill="#5B57A2"/>
<path d="M266.359 215.32H272.452C279.567 215.32 285.025 217.971 283.996 224.985L277.399 262.109C276.684 266.982 272.487 270.595 267.543 270.595H249.425L266.359 215.32Z" fill="#5B57A2"/>
<path d="M264.4 278.435H229.404C224.502 278.435 220.432 275.452 220.076 271.6L213.23 197.641C212.834 193.37 214.69 189.733 220.123 189.733H273.294C278.712 189.733 280.563 193.351 280.191 197.611L273.731 271.57C273.394 275.435 269.317 278.435 264.4 278.435Z" fill="#1A0940"/>
<path d="M263.562 225.244C263.562 225.244 261.825 224.269 258.383 223.063C255.917 222.2 252.66 220.973 252.66 220.973C252.66 220.973 245.41 229.3 237.269 220.973C237.269 220.973 233.415 222.439 231.447 223.272C229.479 224.103 226.767 225.975 226.767 225.975C226.767 225.975 230.607 246.365 231.447 250.071C232.233 253.537 231.959 257.034 231.449 259.362C230.946 261.666 228.915 265.111 228.217 269.064H262.789C262.209 265.748 261.368 262.703 260.411 260.061C259.494 257.534 258.906 253.014 259.322 249.835C260.266 242.615 263.562 225.244 263.562 225.244Z" fill="#FFF2DA"/>
<path d="M240.25 251.519C238.45 250.492 235.513 249.068 231.727 249.952C230.63 250.208 226.332 250.7 223.41 252.363C225.724 249.933 227.297 244.855 228.216 241.922C225.448 242.252 222.588 240.85 220.686 238.836C220.683 238.843 216.938 246.407 215.201 254.649C214.754 256.774 214.158 259.421 215.201 260.886C216.245 262.351 221.479 263.192 223.896 262.351C226.315 261.51 232.215 255.738 233.009 256.798C235.347 259.916 240.349 260.772 241.445 259.998C242.539 259.223 241.28 252.106 240.25 251.519Z" fill="#FFDD9E"/>
<path d="M269.946 238.403C268.051 240.836 264.724 242.122 262.022 241.921C263.199 245.593 265.534 252.28 267.791 254.649C262.006 255.584 260.138 256.919 259.097 256.49C257.969 256.025 258.249 253.569 256.491 253.476C256.381 254.931 256.486 256.385 256.486 256.385C256.486 256.385 252.626 254.126 249.704 254.722C246.769 255.321 244.382 258.777 250.643 261.992C251.836 262.605 262.785 263.402 266.609 263.068C269.16 262.845 274.189 262.35 275.232 260.886C276.275 259.421 275.858 256.728 275.232 254.649C274.606 252.57 271.395 240.586 269.946 238.403Z" fill="#FFDD9E"/>
<path d="M244.132 224.498C239.079 224.276 236.202 221.382 236.202 221.382L234.333 222.107C234.333 222.107 236.481 226.193 239.079 227.486C241.868 228.873 247.946 229.289 250.603 228.023C253.745 226.525 255.723 222.107 255.723 222.107L252.659 220.972C252.659 220.973 250.806 224.792 244.132 224.498Z" fill="#E2403D"/>
<path d="M230.826 223.952C230.826 223.952 226.702 223.167 223.753 227.755C220.805 232.343 217.833 242.852 217.833 242.852C217.833 242.852 221.674 246.099 223.651 246.677C226.766 247.588 229.25 246.677 229.25 246.677C229.25 246.677 231.303 242.223 230.723 237.06C230.144 231.899 230.826 223.952 230.826 223.952Z" fill="#FFF2DA"/>
<path d="M260.259 223.785C260.259 223.785 259.74 231.511 259.16 236.674C258.58 241.836 261.55 246.677 261.55 246.677C261.55 246.677 264.983 247.5 268.202 247.082C271.323 246.678 272.966 242.852 272.966 242.852C272.966 242.852 269.994 232.343 267.045 227.755C264.097 223.167 260.259 223.785 260.259 223.785Z" fill="#FFF2DA"/>
<path d="M258.612 211.324C258.085 207.923 256.767 208.892 256.195 204.735C255.621 200.579 255.685 191.287 242.888 191.857C238.093 192.07 236.039 195.159 234.333 199.712C232.628 204.264 232.478 206.01 233.196 208.558C233.916 211.106 231.018 212.721 230.514 215.32C230.086 217.524 230.802 217.584 230.802 220.035C230.802 222.605 228.653 222.934 229.109 225.123C229.484 226.922 233.344 226.724 234.764 229.944C235.228 230.992 236.708 232.749 239.025 234.725C241.341 236.701 248.336 236.776 250.653 234.725C256.081 229.919 254.708 227.418 258.294 225.367C260.109 224.329 262.213 222.753 260.515 218.394C258.627 213.55 258.932 213.391 258.612 211.324Z" fill="#FCC240"/>
<path d="M164.497 252.554C162.55 251.443 159.374 249.903 155.278 250.86C154.091 251.136 149.443 251.668 146.283 253.466C148.785 250.838 150.912 244.993 151.907 241.821C148.913 242.179 145.394 241.015 143.338 238.837C143.334 238.845 139.285 247.026 137.405 255.941C136.921 258.238 136.277 261.102 137.405 262.686C138.534 264.27 144.196 265.18 146.81 264.27C149.425 263.36 155.807 257.117 156.665 258.264C159.194 261.637 164.603 262.562 165.788 261.724C166.972 260.887 165.609 253.19 164.497 252.554Z" fill="#FFDD9E"/>
<path d="M183.569 216.478L200.862 222.694L209.999 197.465L192.706 191.25L183.569 216.478Z" fill="#FFF2DA"/>
<path d="M204.64 221.597C204.906 220.307 205.379 216.991 204.172 215.568C202.965 214.147 200.16 209.761 200.16 209.761C200.16 209.761 198.256 210.286 199.154 212.483C199.64 213.673 201.168 216.744 201.095 217.917C201.068 218.358 201.18 219.436 201.33 220.611C199.312 222.145 195.463 220.753 195.463 220.753L197.131 227.591L196.155 227.507L189.328 243.387C189.328 243.387 196.073 258.111 196.155 258.723C196.237 259.335 201.196 256.886 202.726 253.824C204.256 250.761 204.321 246.222 203.597 240.758C202.872 235.292 202.856 228.084 202.856 228.084C202.886 227.035 202.962 225.292 203.147 223.709C203.803 223.069 204.504 222.256 204.64 221.597Z" fill="#FFDD9E"/>
<path d="M174.999 215.755C175.132 212.832 174.999 206.986 174.999 206.986H170.452H168.738H164.192C164.192 206.986 164.058 212.832 164.192 215.755C164.324 218.679 159.256 220.477 159.256 220.477C159.256 220.477 161.662 224.348 166.943 225.661C167.407 225.94 167.973 226.098 168.671 226.098C168.99 226.098 169.29 226.075 169.595 226.057C169.9 226.075 170.2 226.098 170.52 226.098C171.217 226.098 171.784 225.94 172.248 225.661C177.528 224.348 179.934 220.477 179.934 220.477C179.934 220.477 174.867 218.679 174.999 215.755Z" fill="#FFDD9E"/>
<path d="M158.345 199.735C157.467 201.485 159.087 204.275 160.604 204.354C162.12 204.434 160.58 198.701 160.58 198.701C160.58 198.701 159.223 197.986 158.345 199.735Z" fill="#FFB680"/>
<path d="M178.946 198.69C178.946 198.69 176.581 204.137 178.093 204.279C179.605 204.421 181.618 201.897 181.005 200.038C180.393 198.18 178.946 198.69 178.946 198.69Z" fill="#FFB680"/>
<path d="M169.52 187.041C164.088 187.041 159.685 193.141 159.685 200.667C159.685 208.192 166.255 214.293 169.52 214.293C172.933 214.293 179.354 208.192 179.354 200.667C179.354 193.141 174.951 187.041 169.52 187.041Z" fill="#FFB680"/>
<path d="M144.094 223.577C138.607 226.79 141.535 236.215 141.535 236.215C141.535 236.215 142.712 239.298 145.908 241.139C149.102 242.979 154.446 241.807 154.446 241.807L154.975 222.003C154.975 222.003 148.454 221.025 144.094 223.577Z" fill="#65B32E"/>
<path d="M195.76 223.577C191.438 220.962 184.256 222.146 184.256 222.146L185.408 241.807C185.408 241.807 190.752 242.98 193.947 241.139C197.142 239.298 197.739 236.215 197.739 236.215C197.739 236.215 200.082 226.192 195.76 223.577Z" fill="#65B32E"/>
<path d="M189.71 224.926C189.71 224.926 187.831 223.083 184.107 221.778C181.44 220.845 177.917 219.518 177.917 219.518C177.917 219.518 170.076 228.523 161.271 219.518C161.271 219.518 157.104 221.104 154.975 222.002C152.846 222.902 149.912 224.926 149.912 224.926C149.912 224.926 154.066 246.979 154.975 250.987C155.825 254.735 155.528 258.518 154.977 261.035C154.432 263.527 152.237 267.254 151.481 271.528H188.872C188.244 267.941 187.335 264.648 186.3 261.792C185.309 259.059 184.672 254.169 185.122 250.731C186.145 242.925 189.71 224.926 189.71 224.926Z" fill="#65B32E"/>
<path d="M141.534 236.215L141.093 238.838C141.093 238.838 142.443 241.631 146.507 242.642C150.569 243.654 152.091 243.654 152.091 243.654L153.166 242.016C153.166 242.015 145.93 241.367 141.534 236.215Z" fill="#007C37"/>
<path d="M186.528 241.994L187.603 244.086C187.603 244.086 190.069 244.164 192.768 242.642C196.411 240.587 198.18 238.838 198.18 238.838L197.739 236.215C193.345 241.367 186.528 241.994 186.528 241.994Z" fill="#007C37"/>
<path d="M168.74 222.818C164.01 222.603 161.272 219.519 161.272 219.519L160.118 219.962C160.118 219.962 162.34 224.977 169.191 224.767C176.527 224.542 179.644 220.162 179.644 220.162L177.918 219.518C177.917 219.519 173.469 223.034 168.74 222.818Z" fill="#007C37"/>
<path d="M152.091 226.339C152.091 226.339 149.553 225.687 147.578 226.097C144.741 226.686 143.572 229.039 143.572 229.039" stroke="#007C37" stroke-miterlimit="10"/>
<path d="M152.091 228.083C152.091 228.083 149.449 228.732 148.576 230.031C147.608 231.474 147.129 233.541 147.129 233.541" stroke="#007C37" stroke-miterlimit="10"/>
<path d="M195.555 229.038C195.555 229.038 194.24 227.005 191.998 226.097C190.129 225.34 187.833 225.729 187.833 225.729" stroke="#007C37" stroke-miterlimit="10"/>
<path d="M191.998 233.542C191.998 233.542 191.723 231.2 190.378 229.833C189.07 228.504 187.038 228.084 187.038 228.084" stroke="#007C37" stroke-miterlimit="10"/>
<path d="M169.52 184.31C162.467 184.31 156.411 190.013 156.75 197.031C157.074 203.757 152.709 210.533 154.975 214.213C155.826 215.595 161.047 216.542 161.047 216.542C161.047 216.542 167.601 217.635 169.811 217.706C173.362 217.818 181.474 216.904 183.582 214.212C186.241 210.815 181.119 204.667 182.289 197.03C183.352 190.085 176.572 184.31 169.52 184.31Z" fill="#5B57A2"/>
<path d="M90.1202 223.583C90.1202 223.583 91.1266 230.184 89.0298 233.61H102.366C102.366 233.61 101.305 227.928 101.835 224.336C102.365 220.743 90.1202 223.583 90.1202 223.583Z" fill="#FFDD9E"/>
<path d="M95.991 226.695C95.991 226.695 105.917 226.037 106.839 214.058C107.565 204.616 106.671 202.945 96.8614 202.667C87.572 202.403 85.7627 205.1 85.7579 208.376C85.7318 225.672 92.2963 225.848 95.991 226.695Z" fill="#FFDD9E"/>
<path d="M93.4781 197.376C89.7911 198.405 84.5342 201.247 84.5332 206.11C84.5332 210.667 84.979 215.096 86.1524 216.231C87.3267 217.367 90.3276 223.572 96.1404 223.572C99.892 223.572 102.858 222.394 103.682 219.573C104.977 215.139 107.194 215.765 107.931 212.805C109.385 206.964 109.131 203.948 105.26 200.773C101.889 198.009 97.6679 196.206 93.4781 197.376Z" fill="#FCC240"/>
<path d="M85.9282 229.833C85.9282 229.833 88.9842 226.253 95.9915 226.498C102.998 226.743 104.978 230.041 104.978 230.041C104.978 230.041 96.4122 228.25 85.9282 229.833Z" fill="white"/>
<path d="M85.3931 214.673C85.3931 214.673 84.2429 213.724 83.8328 214.894C83.4227 216.064 86.1062 219.949 87.1136 218.653C88.119 217.359 85.3931 214.673 85.3931 214.673Z" fill="#FFDD9E"/>
<path d="M106.328 214.673C106.328 214.673 107.478 213.724 107.889 214.894C108.299 216.064 105.616 219.949 104.608 218.653C103.602 217.359 106.328 214.673 106.328 214.673Z" fill="#FFDD9E"/>
<path d="M75.4431 233.61C81.9342 228.602 99.8926 227.416 112.887 232.027C115.468 232.943 118.78 235.823 122.605 241.556C126.415 247.264 131.506 256.931 135.907 260.588C137.045 261.534 139.955 261.082 140.105 262.552C140.313 264.579 142.161 283.996 140.118 284.101L57.7665 273L55 266.5C55.0001 262.552 56.9665 259.504 57.7665 257.696C61.55 249.141 71.7262 236.477 75.4431 233.61Z" fill="#954B97"/>
<path d="M84.1551 205.915C84.1551 204.642 82.5726 201.944 84.5334 200.689C86.4941 199.433 86.9534 196.757 89.1081 196.737C91.2628 196.717 92.165 194.691 94.615 195.04C97.065 195.389 96.9299 196.915 99.1154 195.856C101.373 194.762 102.876 195.807 103.576 197.481C104.276 199.154 104.397 199.168 105.797 199.472C107.197 199.775 108.787 199.815 108.969 202.116C109.152 204.417 109.248 204.764 109.83 205.687C111.105 207.709 109.671 208.255 108.99 210.197C108.58 211.363 108.024 214 106.84 214.059C105.01 214.152 85.2831 214.396 85.2831 214.396C85.2831 214.396 84.5334 213.665 84.5334 211.583C84.5334 209.41 82.9239 209.514 83.5607 207.733C83.9554 206.625 84.1551 206.854 84.1551 205.915Z" fill="#FCC240"/>
<path d="M111.935 340.429H75.8293C70.7721 340.429 66.5727 337.352 66.2051 333.376L59.1418 257.071C58.7336 252.664 60.648 248.912 66.2543 248.912H121.112C126.702 248.912 128.611 252.645 128.227 257.04L121.563 333.345C121.214 337.333 117.007 340.429 111.935 340.429Z" fill="#1A0940"/>
<path d="M187.855 340.429H151.749C146.692 340.429 142.492 337.352 142.125 333.376L135.061 257.071C134.653 252.664 136.567 248.912 142.174 248.912H197.031C202.621 248.912 204.531 252.645 204.147 257.04L197.483 333.345C197.133 337.333 192.927 340.429 187.855 340.429Z" fill="#1A0940"/>
<path d="M263.776 340.429H227.67C222.613 340.429 218.414 337.352 218.046 333.376L210.983 257.071C210.574 252.664 212.489 248.912 218.095 248.912H272.952C278.542 248.912 280.452 252.645 280.068 257.04L273.404 333.345C273.054 337.333 268.848 340.429 263.776 340.429Z" fill="#1A0940"/>
<path d="M311.046 84.5403C311.046 84.5403 304.881 111.308 315.643 111.308V117.704H326.105L329.197 106.097L311.046 84.5403Z" fill="#FFDD9E"/>
<path d="M336.814 130.18C336.814 130.18 338.552 115.385 319.215 115.385C303.092 115.385 300.768 129.352 301.023 130.981L336.814 130.18Z" fill="#F2CCAA"/>
<path d="M315.295 111.306C315.295 111.306 318.215 111.116 319.974 110.203C322.471 108.909 322.964 107.42 322.964 107.42L327.116 105.85C326.784 106.648 326.562 108.133 326.069 108.657C323.538 111.352 318.716 112.169 315.295 112.292C315.295 111.889 315.295 111.306 315.295 111.306Z" fill="#FBBB20"/>
<path d="M323.425 109.071C323.425 109.071 320.191 112.565 321.935 116.513C323.68 120.46 328.379 120.408 330.701 119.287C337.21 116.141 335.495 108.711 331.373 107.606C331.373 107.606 337.252 104.681 334.899 99.3612C332.478 93.886 337.831 93.5034 333.608 88.3021C330.105 83.9871 331.347 77.1172 320.716 77.1172C313.49 77.1172 309.129 83.4046 309.288 86.7209C309.446 90.0372 316.119 91.6482 315.801 95.7537C315.484 99.8591 315.484 102.86 318.496 105.229C321.509 107.597 323.425 109.071 323.425 109.071Z" fill="#EE7225"/>
<path d="M442.581 86.1975C442.581 86.1975 437.057 104.403 444.732 104.403V108.964L458.547 105.88L457.957 98.2341L442.581 86.1975Z" fill="#FFDD9E"/>
<path d="M444.876 104.401C444.876 104.401 446.253 104.266 447.507 103.615C449.288 102.691 449.64 101.63 449.64 101.63L452.6 100.51C452.364 101.079 452.205 102.138 451.853 102.512C450.048 104.435 447.32 105.017 444.881 105.105C444.882 104.816 444.876 104.401 444.876 104.401Z" fill="#FBBB20"/>
<path d="M455.16 102.138C457.964 101.464 463.807 99.3025 465.088 92.9977C466.076 88.1367 465.028 86.5603 463.284 83.5218C461.845 81.0159 457.802 77.7852 451.698 77.7852C443.196 77.7852 441.549 83.1642 441.662 85.5289C441.774 87.8935 445.071 90.3812 444.845 93.3091C444.619 96.2371 444.619 98.3768 446.767 100.066C448.915 101.756 452.714 102.727 455.16 102.138Z" fill="#1A0940"/>
<path d="M459.271 104.276C458.578 104.286 457.544 104.349 457.308 105.702C457.072 107.055 451.923 107.359 449.958 107.797C447.994 108.235 444.756 107.69 442.914 109.695C442.914 109.695 442.49 109.995 442.282 110.172C442.076 110.349 440.806 110.055 439.98 111.172C439.153 112.289 436.555 114.437 435.758 116.01C434.961 117.582 432.609 125.639 432.619 128.404C432.63 131.168 429.025 153.752 429.025 153.752L434.873 156.163L439.301 157.046L444.792 152.812L472.481 135.403C472.481 135.403 470.603 117.994 471.423 116.583C472.244 115.171 472.428 110.652 468.794 108.265C465.16 105.879 461.931 104.236 459.271 104.276Z" fill="#007C37"/>
<path d="M470.382 80.3873C469.508 78.3293 465.462 74.5045 461.226 78.4793C457.212 82.2435 458.2 88.0493 458.2 88.0493C458.2 88.0493 464.091 90.9148 468.493 89.0875C470.586 88.2185 472.401 85.1397 470.382 80.3873Z" fill="#1A0940"/>
<path d="M431.625 155.281C431.625 155.281 436.708 151.635 436.646 144.46C436.585 137.285 434.637 128.246 436.969 123.356C439.301 118.465 445.623 110.819 448.602 110.466" stroke="#13152C" stroke-miterlimit="10"/>
<path d="M440.873 110.466C440.873 110.466 442.222 107.496 450.95 109.878C457.12 111.562 461.36 118.7 461.134 121.169C461.134 121.169 465.513 120.228 467.875 120.346C470.236 120.463 471.3 121.169 473.189 121.169C475.078 121.169 479.683 121.052 479.92 124.11C480.156 127.168 479.92 129.168 479.92 129.168L480.025 129.873L455.832 131.403C455.832 131.403 455.832 125.658 457.839 123.355C457.839 123.355 454.334 115.523 450.95 113.995C447.566 112.465 446.596 110.349 440.873 110.466Z" fill="#F691B3"/>
<path d="M456.617 108.701C456.617 108.701 461.962 110.759 463.649 111.819C465.336 112.877 467.266 112.054 466.301 110.702C465.336 109.349 459.491 104.8 457.72 105.104C455.949 105.409 452.407 106.644 451.108 106.938C449.809 107.232 448.524 108.064 449.373 108.265C450.222 108.467 454.789 107.976 456.617 108.701Z" fill="#1A0940"/>
<path d="M465.336 129.815C465.336 129.815 463.151 123.993 470.177 121.346" stroke="#13152C" stroke-miterlimit="10" stroke-linecap="round"/>
<path d="M441.584 99.8495C440.545 100.179 438.984 99.4986 438.984 98.3057C438.984 97.481 441.291 92.844 441.291 92.844L441.584 99.8495Z" fill="#FFDD9E"/>
<path d="M444.213 92.2974C444.213 91.8908 443.073 91.3458 442.249 91.3458C442.084 91.3458 441.914 91.3333 441.766 91.4073C441.618 91.4803 441.504 91.6437 441.532 91.8081C441.562 91.9908 441.733 92.1657 441.916 92.1657C443.737 92.1647 444.213 92.6281 444.213 92.2974Z" fill="#13152C"/>
<path d="M443.196 93.9171C443.228 94.3737 442.951 94.6352 442.579 94.6515C442.206 94.6688 441.88 94.4343 441.847 93.9777C441.815 93.5211 442.091 93.2317 442.465 93.2154C442.837 93.1981 443.164 93.4605 443.196 93.9171Z" fill="#13152C"/>
<path d="M441.807 101.734C441.807 101.734 442.969 101.734 443.93 100.776" stroke="#EE7225" stroke-width="0.8" stroke-miterlimit="10" stroke-linecap="round"/>
<path d="M382.457 105.005C382.457 105.005 383.453 111.534 381.378 114.924H394.572C394.572 114.924 393.522 109.302 394.047 105.749C394.572 102.194 382.457 105.005 382.457 105.005Z" fill="#FFDD9E"/>
<path d="M388.265 108.083C388.265 108.083 398.085 107.432 398.997 95.5813C399.716 86.24 398.831 84.5867 389.125 84.3118C379.935 84.0513 378.146 86.7187 378.141 89.96C378.116 107.071 384.61 107.245 388.265 108.083Z" fill="#FFDD9E"/>
<path d="M385.779 79.0761C382.131 80.0941 378.313 82.3232 376.856 86.592C375.399 90.8609 376.913 97.7299 378.532 97.7299C380.823 97.7299 381.908 106.161 388.666 106.161C392.723 106.161 394.173 104.373 395.119 101.622C397.579 94.4617 398.542 98.4749 399.401 95.5815C400.26 92.6882 401.409 85.2165 397.579 82.0752C394.244 79.3405 389.925 77.9198 385.779 79.0761Z" fill="#1A0940"/>
<path d="M378.142 96.1892C378.142 96.1892 377.003 95.251 376.598 96.4084C376.192 97.5657 378.847 101.41 379.843 100.128C380.839 98.847 378.142 96.1892 378.142 96.1892Z" fill="#FFDD9E"/>
<path d="M398.13 96.1892C398.13 96.1892 399.269 95.251 399.674 96.4084C400.079 97.5657 397.425 101.41 396.429 100.128C395.433 98.847 398.13 96.1892 398.13 96.1892Z" fill="#FFDD9E"/>
<path d="M368.298 114.924C374.377 109.696 390.61 108.887 403.34 113.074C408.442 114.752 413.425 120.251 413.425 127.061C413.425 137.49 411.232 136.209 415.502 139.829C416.606 140.766 415.356 142.103 415.502 143.557H415.076C415.276 145.562 413.476 151.003 411.494 151.107H361.383C361.383 151.107 362.913 143.643 363.254 141.729C364.66 133.826 360.853 121.329 368.298 114.924Z" fill="#0095D4"/>
<path d="M478.461 152.386H484.289C491.094 152.386 496.315 154.922 495.331 161.63L489.021 197.139C488.337 201.801 484.324 205.256 479.594 205.256H462.265L478.461 152.386Z" fill="#5B57A2"/>
<path d="M440.647 152.386H434.819C428.014 152.386 422.793 154.922 423.778 161.63L430.087 197.139C430.772 201.801 434.785 205.256 439.514 205.256H456.843L440.647 152.386Z" fill="#5B57A2"/>
<path d="M442.519 212.754H475.993C480.681 212.754 484.574 209.901 484.916 206.215L491.464 135.475C491.842 131.39 490.067 127.911 484.87 127.911H434.013C428.831 127.911 427.061 131.372 427.417 135.446L433.595 206.187C433.918 209.884 437.817 212.754 442.519 212.754Z" fill="#1A0940"/>
<path d="M477.518 212.754L478.85 227.358C478.933 228.264 478.216 229.046 477.303 229.046C476.663 229.046 476.104 228.616 475.942 227.999L471.943 212.754H477.518Z" fill="#5B57A2"/>
<path d="M440.743 212.754L439.411 227.358C439.328 228.264 440.045 229.046 440.959 229.046C441.598 229.046 442.157 228.616 442.319 227.999L446.319 212.754H440.743Z" fill="#5B57A2"/>
<path d="M408.076 152.386H413.904C420.709 152.386 425.929 154.922 424.946 161.63L418.637 197.139C417.952 201.801 413.939 205.256 409.21 205.256H391.881L408.076 152.386Z" fill="#5B57A2"/>
<path d="M370.261 152.386H364.433C357.629 152.386 352.408 154.922 353.392 161.63L359.702 197.139C360.386 201.801 364.399 205.256 369.129 205.256H386.458L370.261 152.386Z" fill="#5B57A2"/>
<path d="M372.134 212.754H405.608C410.297 212.754 414.189 209.901 414.531 206.215L421.079 135.475C421.457 131.39 419.683 127.911 414.485 127.911H363.629C358.446 127.911 356.676 131.372 357.032 135.446L363.211 206.187C363.533 209.884 367.432 212.754 372.134 212.754Z" fill="#1A0940"/>
<path d="M407.133 212.754L408.465 227.358C408.548 228.264 407.831 229.046 406.917 229.046C406.278 229.046 405.719 228.616 405.557 227.999L401.558 212.754H407.133Z" fill="#5B57A2"/>
<path d="M370.357 212.754L369.025 227.358C368.942 228.264 369.659 229.046 370.572 229.046C371.212 229.046 371.771 228.616 371.933 227.999L375.933 212.754H370.357Z" fill="#5B57A2"/>
<path d="M337.692 152.386H343.521C350.325 152.386 355.547 154.922 354.562 161.63L348.253 197.139C347.569 201.801 343.555 205.256 338.826 205.256H321.497L337.692 152.386Z" fill="#5B57A2"/>
<path d="M299.878 152.386H294.049C287.245 152.386 282.024 154.922 283.009 161.63L289.318 197.139C290.003 201.801 294.016 205.256 298.745 205.256H316.074L299.878 152.386Z" fill="#5B57A2"/>
<path d="M301.752 212.754H335.225C339.914 212.754 343.806 209.901 344.148 206.215L350.696 135.475C351.074 131.39 349.3 127.911 344.103 127.911H293.246C288.063 127.911 286.293 131.372 286.649 135.446L292.828 206.187C293.149 209.884 297.05 212.754 301.752 212.754Z" fill="#1A0940"/>
<path d="M336.75 212.754L338.082 227.358C338.165 228.265 337.448 229.046 336.535 229.046C335.895 229.046 335.336 228.616 335.174 227.999L331.175 212.754H336.75Z" fill="#5B57A2"/>
<path d="M299.974 212.754L298.642 227.358C298.559 228.265 299.276 229.046 300.19 229.046C300.829 229.046 301.388 228.616 301.55 227.999L305.55 212.754H299.974Z" fill="#5B57A2"/>
<path d="M314.527 135.96C313.033 140.047 309.134 140.618 305.167 142.423C302.504 143.635 301.628 148.542 302.529 151.963C304.812 160.628 297.622 157.992 292.742 162.662C280.987 173.91 300.434 184.485 303.213 186.266C305.992 188.048 316.448 191.417 318.298 191.682C323.873 192.481 331.122 189.499 335.733 183.078C340.343 176.657 336.33 172.033 337.057 167.849C337.785 163.665 342.981 163.879 342.682 155.545C342.358 146.529 339.572 139.224 335.536 135.466C328.858 129.248 319.356 130.506 316.325 133.333C315.421 134.177 314.853 135.068 314.527 135.96Z" fill="#F47458"/>
<path d="M332.629 169.376C332.629 169.376 335.716 170.8 339.896 179.256C343.789 187.132 344.427 205.437 344.427 205.437C344.427 205.437 338.233 207.405 334.677 206.727C331.12 206.05 332.629 169.376 332.629 169.376Z" fill="#0095D4"/>
<path d="M320.94 166.725C320.94 166.725 318.875 166.897 308.38 169.134C306.674 169.498 303.993 171.457 302.96 173.292C297.594 182.832 292.872 199.915 292.872 199.915C292.872 199.915 301.638 202.783 304.686 202.783L308.294 191.415C308.294 191.415 312.396 215.396 310.703 219.46C309.009 223.524 304.767 233.827 304.767 233.827C304.767 233.827 304.835 236.024 320.86 237.711C327.295 238.389 335.307 237.011 335.307 237.011C335.307 237.011 333.85 221.438 335.144 214.67C337.252 203.645 341.361 190.445 341.571 188.766C341.91 186.057 335.667 170.725 332.44 169.278C331.608 168.905 330.226 168.129 328.999 167.844C325.284 166.98 320.94 166.725 320.94 166.725Z" fill="#A3C8EC"/>
<path d="M322.338 155.858C322.338 155.858 322.002 163.531 321.027 166.357C320.051 169.182 323.076 179.43 329.193 180.925C334.706 182.273 330.728 172.699 329.963 168.62C329.879 168.174 330.948 153.965 330.948 153.965L322.338 155.858Z" fill="#FFDD9E"/>
<path d="M330.538 158.43C331.017 156.007 331.464 153.997 331.464 153.997L322.338 155.858C322.338 155.858 322.269 157.427 322.104 159.408C325.526 160.989 328.449 160.282 330.538 158.43Z" fill="#FBBB20"/>
<path d="M325.098 134.98C325.098 134.98 321.514 135.979 319.447 139.507C317.38 143.035 316.349 153.168 323.957 157.491C331.564 161.815 336.964 154.887 336.734 148.407C336.505 141.927 334.683 133.354 325.098 134.98Z" fill="#FFDD9E"/>
<path d="M319.07 151.579C320.189 151.161 320.595 149.479 319.976 147.822C319.357 146.166 317.948 145.162 316.828 145.58C315.709 145.999 315.303 147.681 315.922 149.337C316.541 150.994 317.95 151.997 319.07 151.579Z" fill="#FFDD9E"/>
<path d="M335.657 237.768L309.504 233.409L315.125 197.048L342.661 202.447L335.657 237.768Z" fill="#1A0940"/>
<path d="M339.586 217.78C339.548 217.626 337.379 218.223 335.887 217.58C335.589 217.451 336.92 216.726 337.127 216.476C337.154 216.442 339.744 215.429 339.744 214.397C339.744 213.365 337.636 213.623 337.636 213.623C337.636 213.623 331.528 215.128 330.582 215.774C329.636 216.419 329.188 216.953 329.122 217.017C328.756 217.058 328.444 217.078 328.216 217.065C322.929 216.733 314.729 213.932 302.279 209.438L303.563 202.699C300.814 202.336 296.158 200.948 294.016 200.28C293.14 205.44 291.358 214.337 292.129 216.249C292.669 217.589 299.292 219.699 306.723 221.729C316.189 224.318 318.814 224.255 327.272 225.282C329.836 225.583 333.159 227.024 334.476 227.286C336.434 227.676 337.08 228.027 338.269 227.188C339.272 226.48 339.586 224.323 339.703 222.973C339.922 220.412 340.024 219.436 339.586 217.78Z" fill="#FFDD9E"/>
<path d="M331.582 145.93C331.646 145.622 331.803 145.314 332.108 145.301C332.494 145.284 332.857 145.732 332.92 146.301C332.983 146.871 332.721 147.347 332.336 147.364C331.648 147.395 331.476 146.441 331.582 145.93Z" fill="#1A0940"/>
<path d="M324.97 145.93C325.034 145.622 325.191 145.314 325.496 145.301C325.882 145.284 326.245 145.732 326.308 146.301C326.371 146.871 326.109 147.347 325.724 147.364C325.036 147.395 324.864 146.441 324.97 145.93Z" fill="#1A0940"/>
<path d="M331.462 149.591C331.348 149.317 331.14 149.09 330.967 148.852C330.77 148.582 330.603 148.291 330.46 147.991C330.172 147.386 330.007 146.743 329.947 146.085C329.931 145.905 329.72 145.785 329.559 145.809C329.369 145.837 329.287 146.009 329.303 146.188C329.404 147.291 329.816 148.363 330.478 149.272C330.733 149.622 331.105 150 330.739 150.385C330.373 150.77 329.746 150.666 329.26 150.605C328.837 150.551 328.794 151.21 329.216 151.264C329.848 151.344 330.526 151.395 331.053 151.006C331.488 150.683 331.683 150.123 331.462 149.591Z" fill="#EE7225"/>
<path d="M326.529 152.29C327.38 153.175 328.666 153.611 329.879 153.384C330.076 153.347 330.279 153.438 330.335 153.643C330.385 153.824 330.274 154.062 330.076 154.099C328.603 154.374 327.048 153.899 326.005 152.814C325.674 152.47 326.197 151.945 326.529 152.29Z" fill="#EE7225"/>
<path d="M331.327 142.55C331.472 142.48 331.621 142.484 331.758 142.503C332.67 142.629 333.338 143.421 333.461 144.458C333.406 144.316 333.34 144.184 333.241 144.082C333.235 144.076 333.228 144.073 333.222 144.068C333.168 143.999 333.108 143.938 333.041 143.888C332.793 143.704 332.48 143.633 332.168 143.576C331.857 143.518 331.538 143.47 331.266 143.324C331.135 143.254 331.006 143.135 331.025 142.949C331.042 142.782 331.181 142.62 331.327 142.55Z" fill="#1A0940"/>
<path d="M326.692 142.289C326.559 142.186 326.413 142.155 326.275 142.141C325.361 142.049 324.592 142.669 324.325 143.661C324.399 143.534 324.483 143.42 324.595 143.343C324.602 143.338 324.609 143.337 324.615 143.333C324.677 143.279 324.745 143.232 324.819 143.199C325.089 143.076 325.407 143.081 325.721 143.098C326.035 143.115 326.356 143.143 326.643 143.064C326.782 143.026 326.925 142.94 326.933 142.752C326.94 142.584 326.825 142.392 326.692 142.289Z" fill="#1A0940"/>
<path d="M328.92 133.408C328.92 133.408 327.347 138.804 325.365 140.991C323.249 143.325 321.369 145.588 317.952 145.588L316.739 134.779L328.92 133.408Z" fill="#F47458"/>
<path d="M327.739 134.779C327.739 134.779 329.046 137.93 330.677 139.498C332.49 141.241 334.237 142.132 336.573 142.132L333.763 135.054L327.739 134.779Z" fill="#F47458"/>
<path d="M393.328 136.296C393.328 136.296 387.352 135.996 386.98 144.369C386.844 147.446 381.964 152.88 381.811 157.872C381.763 159.437 384.054 164.739 382.079 167.691C376.142 176.568 384.924 181.258 385.899 182.172C387.189 183.379 395.028 174.45 395.028 174.45L399.791 146.604L393.328 136.296Z" fill="#1A0940"/>
<path d="M390.926 140.48C390.926 140.48 379.755 164.203 390.719 165.644L389.701 173.331L404.838 173.811L408.809 172.688L408.293 158.074L390.926 140.48Z" fill="#FFDD9E"/>
<path d="M390.713 165.579C390.713 165.579 393.386 165.743 395.296 165.093C398.005 164.172 400.207 161.443 400.207 161.443L403.131 161.827C402.691 162.557 402.272 163.967 401.704 164.41C398.779 166.685 394.088 166.875 390.588 166.535C390.638 166.145 390.713 165.579 390.713 165.579Z" fill="#FBBB20"/>
<path d="M415.415 177.232C414.835 176.423 410.434 171.043 405.245 170.361C403.367 170.114 397.434 170.242 394.549 170.47C391.664 170.697 381.599 170.229 374.41 179.492C372.91 181.424 368.456 191.274 367.972 195.035C367.489 198.796 362.531 226.922 362.531 226.922L370.45 231.299L376.616 233.331L385.223 228.602L421.748 212.244C421.748 212.244 420.778 195.21 420.521 192.958C419.669 185.522 418.652 181.745 415.415 177.232Z" fill="#954B97"/>
<path d="M386.439 157.934C385.145 157.764 383.531 157.51 383.723 156.063C383.882 154.857 387.937 150.102 387.937 150.102L386.439 157.934Z" fill="#FFDD9E"/>
<path d="M392.423 150.131C392.496 149.503 390.838 148.35 389.65 148.092C389.463 148.052 389.263 148.027 389.082 148.089C388.899 148.152 388.741 148.324 388.748 148.518C388.755 148.734 388.949 148.891 389.138 148.991C389.527 149.198 389.964 149.297 390.391 149.407C390.819 149.516 391.251 149.641 391.616 149.89C391.831 150.038 392.386 150.461 392.423 150.131Z" fill="#1A0940"/>
<path d="M390.32 151.716C390.294 152.219 389.936 152.462 389.502 152.422C389.068 152.382 388.723 152.075 388.75 151.571C388.776 151.067 389.137 150.794 389.572 150.834C390.005 150.875 390.347 151.212 390.32 151.716Z" fill="#1A0940"/>
<path d="M398.993 134.81C408.021 135.997 411.652 142.239 411.652 148.227C411.652 155.379 408.322 154.803 412.996 162.888C416.211 168.447 415.592 181.433 402.66 181.433C398.26 181.433 395.037 180.897 393.328 175.693C392.65 173.627 391.894 170.005 393.889 164.157C394.474 162.441 397.182 157.655 395.435 151.729C394.172 147.447 393.019 145.688 391.646 144.273C389.326 141.883 387.319 141.605 388.182 139.618C389.963 135.517 395.914 134.405 398.993 134.81Z" fill="#EE7225"/>
<path d="M386.98 160.153C386.98 160.153 388.409 160.64 390.057 160.153" stroke="#EE7225" stroke-miterlimit="10" stroke-linecap="round"/>
<path d="M459.732 170.552C459.732 170.552 462.509 172.914 463.112 179.041C463.57 183.693 460.343 219.809 457.915 222.678C451.083 230.754 441.698 227.643 438.343 228.868L436 225.724C436 225.724 447.126 217.512 447.972 214.834C451.232 204.521 449.212 174.447 459.732 170.552Z" fill="#F691B3"/>
<path d="M461.728 141.095C461.728 141.095 461.54 134.471 470.276 133.172C479.012 131.872 481.425 133.915 482.91 136.142C484.395 138.37 487.18 147.467 486.902 151.087C486.623 154.707 476.66 159.184 476.822 161.296C476.984 163.409 461.728 141.095 461.728 141.095Z" fill="#FBBB20"/>
<path d="M490.963 235.912C489.067 237.182 485.676 239.139 479.986 239.342C469.805 239.713 457.1 238.498 454.6 236.137C453.951 235.527 456.228 233.9 456.139 232.618C455.863 228.711 455.135 222.9 456.388 217.581C457.201 214.125 457.755 211.14 457.301 209.613C455.92 204.968 451.628 195.502 451.258 192.392C450.888 189.281 454.6 172.614 459.732 170.55C464.867 168.484 484.676 170.55 484.676 170.55C492.415 172.121 492.741 188.621 490.171 202.665C490.104 203.027 490.037 203.386 489.968 203.743C487.182 218.005 496.254 232.367 490.963 235.912Z" fill="#F691B3"/>
<path d="M465.371 173.587C465.51 174.492 467.988 175.96 473.283 174.564C478.357 173.227 478.966 171.574 478.965 170.483C478.964 169.192 476.76 167.451 476.788 159.504L476.18 159.624L465.95 161.65C465.95 161.65 466.183 164.869 466.19 167.902C466.196 170.448 465.139 172.081 465.371 173.587Z" fill="#FFDD9E"/>
<path d="M465.95 161.651C465.95 161.651 466.183 164.87 466.19 167.903C471.914 167.742 474.94 162.52 476.18 159.625L465.95 161.651Z" fill="#FBBB20"/>
<path d="M464.038 164.522C464.038 164.522 477.582 164.746 477.591 156.309C477.6 147.873 479.355 142.22 470.708 141.72C462.061 141.221 460.377 144.438 459.689 147.253C459.001 150.069 460.515 164.247 464.038 164.522Z" fill="#FFDD9E"/>
<path d="M464.539 141.513C464.539 141.513 468.247 151.411 473.938 152.874C479.629 154.337 482.097 152.813 482.097 152.813C482.097 152.813 477.732 149.345 476.826 143.292C476.827 143.291 467.336 136.802 464.539 141.513Z" fill="#FBBB20"/>
<path d="M465.458 142.316C465.458 142.316 462.689 144.526 462.013 146.674C461.338 148.822 461.034 153.245 459.745 153.095C459.745 153.095 456.951 146.368 460.091 142.562C463.421 138.526 465.458 142.316 465.458 142.316Z" fill="#FBBB20"/>
<path d="M490.692 234.236C488.796 235.506 485.675 239.139 479.985 239.343C470.595 237.207 462.685 232.978 456.325 231.494C456.049 227.587 451.95 224.119 456.387 217.582C463.803 219.846 474.839 212.132 478.549 209.083C482.448 205.88 482.325 195.209 482.325 195.209L490.17 202.667C490.103 203.029 490.036 203.388 489.967 203.745C487.182 218.005 495.983 230.691 490.692 234.236Z" fill="#F691B3"/>
<path d="M484.675 170.552C484.675 170.552 492.426 171.21 493.03 177.337C493.488 181.989 496.86 214.986 494.432 217.856C487.6 225.932 464.818 227.644 461.463 228.869L460.54 225.05C460.54 225.05 484.861 212.797 484.49 210.012C484.119 207.227 477.241 169.449 484.675 170.552Z" fill="#F691B3"/>
<path d="M478.691 136.502C478.691 136.502 478.135 132.968 483.036 132.056C487.937 131.144 488.029 141.555 488.554 144.065C489.079 146.575 487.77 148.078 485.901 148.231C484.032 148.383 478.691 136.502 478.691 136.502Z" fill="#FBBB20"/>
<path d="M460.276 224.881C460.276 224.881 453.35 222.921 451.7 223.379C450.05 223.837 444.397 227.58 445.192 228.597C445.987 229.613 450.966 227.988 453.258 228.296C455.549 228.604 457.322 229.734 458.971 229.49C460.621 229.246 462.346 228.597 462.346 228.597L460.276 224.881Z" fill="#FFDD9E"/>
<path d="M460.276 224.881C460.276 224.881 456.887 223.14 455.923 222.149C455.801 222.024 455.596 222.05 455.502 222.198C455.244 222.605 455.002 223.392 456.191 224.174C457.902 225.299 460.276 224.881 460.276 224.881Z" fill="#FFDD9E"/>
<path d="M462.659 152.377C462.595 152.069 462.438 151.761 462.133 151.748C461.747 151.731 461.384 152.179 461.321 152.748C461.258 153.318 461.52 153.794 461.905 153.811C462.594 153.842 462.765 152.888 462.659 152.377Z" fill="#1A0940"/>
<path d="M469.272 152.377C469.208 152.069 469.051 151.761 468.746 151.748C468.36 151.731 467.997 152.179 467.934 152.748C467.871 153.318 468.133 153.794 468.518 153.811C469.206 153.842 469.378 152.888 469.272 152.377Z" fill="#1A0940"/>
<path d="M462.78 156.038C462.894 155.764 463.102 155.537 463.275 155.299C463.472 155.029 463.639 154.738 463.782 154.438C464.07 153.833 464.235 153.19 464.295 152.532C464.311 152.352 464.522 152.232 464.683 152.256C464.873 152.284 464.955 152.456 464.939 152.635C464.838 153.738 464.426 154.81 463.764 155.719C463.509 156.069 463.137 156.447 463.503 156.832C463.869 157.217 464.496 157.113 464.982 157.052C465.405 156.998 465.448 157.657 465.026 157.711C464.394 157.791 463.716 157.842 463.189 157.453C462.754 157.131 462.559 156.571 462.78 156.038Z" fill="#EE7225"/>
<path d="M467.713 158.737C466.862 159.622 465.576 160.058 464.363 159.831C464.166 159.794 463.963 159.885 463.907 160.09C463.857 160.271 463.968 160.509 464.166 160.546C465.639 160.821 467.194 160.346 468.237 159.261C468.568 158.918 468.044 158.393 467.713 158.737Z" fill="#EE7225"/>
<path d="M462.915 148.998C462.77 148.928 462.621 148.932 462.484 148.951C461.572 149.077 460.904 149.869 460.781 150.906C460.836 150.764 460.902 150.632 461.001 150.53C461.007 150.524 461.014 150.521 461.02 150.516C461.074 150.447 461.134 150.386 461.201 150.336C461.449 150.152 461.762 150.081 462.074 150.024C462.385 149.966 462.704 149.918 462.976 149.772C463.107 149.702 463.236 149.583 463.217 149.397C463.2 149.229 463.06 149.068 462.915 148.998Z" fill="#1A0940"/>
<path d="M467.55 148.736C467.683 148.633 467.829 148.602 467.967 148.588C468.881 148.496 469.65 149.116 469.917 150.108C469.843 149.981 469.759 149.867 469.647 149.79C469.64 149.785 469.633 149.784 469.627 149.78C469.565 149.726 469.497 149.679 469.423 149.646C469.153 149.523 468.835 149.528 468.521 149.545C468.207 149.562 467.886 149.59 467.599 149.511C467.46 149.473 467.317 149.387 467.309 149.199C467.302 149.031 467.417 148.839 467.55 148.736Z" fill="#1A0940"/>
<path d="M487.357 215.321H493.451C500.566 215.321 506.024 217.972 504.995 224.985L498.397 262.109C497.682 266.982 493.486 270.596 488.541 270.596H470.424L487.357 215.321Z" fill="#5B57A2"/>
<path d="M447.823 215.321H441.729C434.614 215.321 429.157 217.972 430.185 224.985L436.783 262.109C437.498 266.982 441.694 270.596 446.639 270.596H464.756L447.823 215.321Z" fill="#5B57A2"/>
<path d="M449.781 278.436H484.777C489.679 278.436 493.749 275.453 494.105 271.6L500.951 197.642C501.347 193.37 499.491 189.734 494.058 189.734H440.887C435.469 189.734 433.618 193.352 433.991 197.612L440.45 271.57C440.788 275.436 444.865 278.436 449.781 278.436Z" fill="#1A0940"/>
<path d="M413.771 215.321H419.865C426.979 215.321 432.438 217.972 431.408 224.985L424.811 262.109C424.096 266.982 419.899 270.596 414.955 270.596H396.837L413.771 215.321Z" fill="#5B57A2"/>
<path d="M374.236 215.321H368.142C361.028 215.321 355.57 217.972 356.599 224.985L363.196 262.109C363.911 266.982 368.108 270.596 373.052 270.596H391.17L374.236 215.321Z" fill="#5B57A2"/>
<path d="M376.195 278.436H411.191C416.093 278.436 420.163 275.453 420.519 271.6L427.365 197.642C427.761 193.37 425.905 189.734 420.472 189.734H367.301C361.883 189.734 360.032 193.352 360.404 197.612L366.864 271.57C367.201 275.436 371.278 278.436 376.195 278.436Z" fill="#1A0940"/>
<path d="M340.184 215.321H346.278C353.392 215.321 358.851 217.972 357.821 224.985L351.224 262.109C350.509 266.982 346.312 270.596 341.368 270.596H323.25L340.184 215.321Z" fill="#5B57A2"/>
<path d="M300.649 215.321H294.556C287.441 215.321 281.983 217.972 283.012 224.985L289.609 262.109C290.324 266.982 294.521 270.596 299.465 270.596H317.583L300.649 215.321Z" fill="#5B57A2"/>
<path d="M302.608 278.435H337.604C342.506 278.435 346.576 275.453 346.932 271.6L353.778 197.641C354.174 193.37 352.318 189.733 346.885 189.733H293.714C288.296 189.733 286.445 193.351 286.818 197.612L293.277 271.57C293.615 275.435 297.691 278.435 302.608 278.435Z" fill="#1A0940"/>
<g clip-path="url(#clip0)">
<path d="M403.412 221.358C403.412 221.358 402.443 227.736 404.461 231.046H391.623C391.623 231.046 392.645 225.556 392.134 222.084C391.623 218.613 403.412 221.358 403.412 221.358Z" fill="#FFDD9E"/>
<path d="M397.627 225.309C397.627 225.309 385.966 224.534 384.883 210.409C384.03 199.276 385.08 197.305 396.605 196.977C407.517 196.666 409.642 199.846 409.648 203.71C409.679 224.103 401.968 224.31 397.627 225.309Z" fill="#FFDD9E"/>
<path d="M407.611 212.748C407.611 212.748 408.718 211.831 409.114 212.961C409.509 214.091 406.925 217.845 405.956 216.594C404.986 215.344 407.611 212.748 407.611 212.748Z" fill="#FFB27D"/>
<path d="M398.043 193.853C411.004 193.853 410.684 204.081 412.122 207.982C413.56 211.883 417.754 214.239 414.33 218.43C407.482 226.816 395.968 227.042 387.506 224.223C385.875 223.679 387.06 221.432 388.539 219.404C392.34 214.193 390.234 212.359 387.582 211.539C384.92 210.716 383.367 207.207 383.95 204.213C384.984 198.914 389.595 193.853 398.043 193.853Z" fill="#FBBB20"/>
<path d="M390.609 211.956C390.475 210.814 388.774 210.744 388.073 211.832C387.327 212.99 387.666 217.293 389.408 216.783C391.149 216.274 390.749 213.15 390.609 211.956Z" fill="#FFDD9E"/>
<path d="M417.542 231.047C411.293 226.207 392.47 225.571 379.96 230.026C377.476 230.911 375.01 233.204 373.104 239.576C372.18 242.665 368.446 260.644 366.629 263.303L365.584 269.696C365.384 271.655 369.823 279.733 371.79 279.834L418.652 278.167L425.279 268.118C425.786 266.077 425.279 252.255 425.279 251.037C425.279 242.975 421.12 233.817 417.542 231.047Z" fill="#5AA8DE"/>
<path d="M414.571 239.596C416.557 239.596 418.168 237.975 418.168 235.976C418.168 233.976 416.557 232.355 414.571 232.355C412.584 232.355 410.974 233.976 410.974 235.976C410.974 237.975 412.584 239.596 414.571 239.596Z" fill="#D7E1D2"/>
<path d="M401.395 238.122C403.382 238.122 404.992 236.501 404.992 234.502C404.992 232.502 403.382 230.882 401.395 230.882C399.408 230.882 397.798 232.502 397.798 234.502C397.798 236.501 399.408 238.122 401.395 238.122Z" fill="#D7E1D2"/>
<path d="M405.788 246.962C407.775 246.962 409.385 245.341 409.385 243.342C409.385 241.343 407.775 239.722 405.788 239.722C403.801 239.722 402.191 241.343 402.191 243.342C402.191 245.341 403.801 246.962 405.788 246.962Z" fill="#D7E1D2"/>
<path d="M384.56 242.542C386.547 242.542 388.158 240.921 388.158 238.922C388.158 236.923 386.547 235.302 384.56 235.302C382.574 235.302 380.963 236.923 380.963 238.922C380.963 240.921 382.574 242.542 384.56 242.542Z" fill="#D7E1D2"/>
<path d="M394.808 248.436C396.794 248.436 398.405 246.815 398.405 244.816C398.405 242.817 396.794 241.196 394.808 241.196C392.821 241.196 391.21 242.817 391.21 244.816C391.21 246.815 392.821 248.436 394.808 248.436Z" fill="#D7E1D2"/>
<path d="M383.829 252.855C385.816 252.855 387.426 251.234 387.426 249.235C387.426 247.236 385.816 245.615 383.829 245.615C381.842 245.615 380.232 247.236 380.232 249.235C380.232 251.234 381.842 252.855 383.829 252.855Z" fill="#D7E1D2"/>
<path d="M413.107 253.592C415.094 253.592 416.704 251.971 416.704 249.972C416.704 247.973 415.094 246.352 413.107 246.352C411.121 246.352 409.51 247.973 409.51 249.972C409.51 251.971 411.121 253.592 413.107 253.592Z" fill="#D7E1D2"/>
<path d="M423.407 240.806C424.004 242.52 424.492 244.333 424.82 246.169Z" fill="#D7E1D2"/>
<path d="M408.716 231.493C410.454 231.493 411.905 230.253 412.24 228.602C410.167 228.003 407.768 227.57 405.174 227.312C405.146 227.495 405.118 227.681 405.118 227.873C405.118 229.872 406.729 231.493 408.716 231.493Z" fill="#D7E1D2"/>
<path d="M387.812 228.005C387.647 228.421 387.551 228.871 387.551 229.346C387.551 231.346 389.162 232.966 391.148 232.966C393.134 232.966 394.745 231.345 394.745 229.346C394.745 228.551 394.483 227.822 394.05 227.224" fill="#D7E1D2"/>
<path d="M377.91 240.396C377.91 238.396 376.301 236.775 374.313 236.775C374.231 236.775 374.154 236.794 374.073 236.8C373.737 237.63 373.412 238.544 373.104 239.577C372.907 240.235 372.581 241.574 372.175 243.293C372.774 243.742 373.508 244.017 374.312 244.017C376.301 244.016 377.91 242.394 377.91 240.396Z" fill="#D7E1D2"/>
<path d="M375.715 250.709C375.715 248.709 374.105 247.089 372.118 247.089C371.819 247.089 371.533 247.136 371.254 247.205C370.786 249.192 370.272 251.343 369.75 253.416C370.384 253.978 371.206 254.329 372.117 254.329C374.104 254.329 375.715 252.709 375.715 250.709Z" fill="#D7E1D2"/>
<path d="M379.437 233.703C381.424 233.703 383.034 232.082 383.034 230.083C383.034 229.744 382.974 229.422 382.887 229.111C381.882 229.388 380.901 229.691 379.96 230.027C378.836 230.427 377.716 231.121 376.649 232.347C377.309 233.167 378.306 233.703 379.437 233.703Z" fill="#D7E1D2"/>
<path d="M418.293 244.079C418.293 246.079 419.904 247.699 421.891 247.699C423.102 247.699 424.168 247.092 424.82 246.169C424.492 244.333 424.004 242.52 423.407 240.806C422.945 240.589 422.435 240.459 421.891 240.459C419.903 240.459 418.293 242.079 418.293 244.079Z" fill="#D7E1D2"/>
</g>
<path d="M314.06 225.687C314.06 225.687 315.076 232.354 312.959 235.813H326.427C326.427 235.813 325.355 230.076 325.891 226.447C326.427 222.818 314.06 225.687 314.06 225.687Z" fill="#FFDD9E"/>
<path d="M319.989 228.83C319.989 228.83 330.014 228.165 330.945 216.068C331.678 206.533 330.775 204.845 320.869 204.564C311.488 204.298 309.661 207.021 309.655 210.331C309.628 227.796 316.258 227.974 319.989 228.83Z" fill="#FFDD9E"/>
<path d="M317.451 199.22C313.728 200.259 309.905 203.683 308.418 208.04C306.93 212.397 308.868 217.114 310.054 218.262C311.24 219.408 314.211 226.857 319.541 226.869C324.48 226.879 326.995 224.506 327.757 221.637C328.52 218.767 331.172 217.755 332.049 214.802C332.925 211.849 333.26 205.858 329.352 202.651C325.946 199.858 321.683 198.038 317.451 199.22Z" fill="#5B57A2"/>
<path d="M309.655 216.687C309.655 216.687 308.494 215.73 308.079 216.911C307.665 218.093 310.375 222.017 311.391 220.708C312.408 219.401 309.655 216.687 309.655 216.687Z" fill="#FFDD9E"/>
<path d="M330.058 216.687C330.058 216.687 331.22 215.73 331.635 216.911C332.049 218.093 329.338 222.017 328.322 220.708C327.305 219.401 330.058 216.687 330.058 216.687Z" fill="#FFDD9E"/>
<path d="M299.238 235.812C305.794 230.754 325.539 230.09 338.662 234.746C341.269 235.671 343.856 238.067 345.854 244.728C346.823 247.956 347.405 257.541 351.849 261.236C352.999 262.191 353.729 263.557 353.88 265.041C354.09 267.089 351.77 272.642 349.707 272.748H289.095L289.646 267.027C289.837 265.041 290.496 263.128 291.569 261.443C295.654 255.033 295.485 238.708 299.238 235.812Z" fill="#FCC240"/>
<path d="M312.959 201.627C312.959 201.627 317.71 197.156 324.747 197.793C324.747 197.793 323.878 198.28 323.767 198.854C323.767 198.854 329.184 200.781 330.704 203.409C332.224 206.038 332.199 207.298 332.199 207.298L312.959 201.627Z" fill="#5B57A2"/>
<path d="M309.828 232.198C309.828 232.198 312.914 228.582 319.99 228.83C327.066 229.078 329.066 232.409 329.066 232.409C329.066 232.409 320.246 230.987 309.828 232.198Z" fill="white"/>
<path d="M490.799 225.596C490.799 225.596 489.062 223.891 485.619 222.685C483.154 221.822 479.896 220.595 479.896 220.595C479.896 220.595 472.647 228.923 464.506 220.595C464.506 220.595 460.652 222.061 458.684 222.894C456.716 223.725 454.003 225.596 454.003 225.596C454.003 225.596 457.845 245.987 458.684 249.692C459.47 253.158 459.196 256.655 458.686 258.983C458.182 261.288 456.152 264.733 455.454 268.685H490.026C489.445 265.369 488.605 262.324 487.648 259.682C486.732 257.155 486.142 252.635 486.559 249.456C487.504 242.237 490.799 225.596 490.799 225.596Z" fill="#0095D4"/>
<path d="M467.486 251.141C465.686 250.114 462.749 248.69 458.963 249.574C457.866 249.83 453.568 250.322 450.646 251.985C452.96 249.555 454.533 244.477 455.454 241.544C452.685 241.875 449.825 240.472 447.923 238.459C447.92 238.466 444.176 246.03 442.438 254.273C441.99 256.397 441.395 259.044 442.438 260.509C443.481 261.974 448.716 262.815 451.133 261.974C453.55 261.133 459.451 255.362 460.245 256.421C462.584 259.539 467.585 260.395 468.681 259.621C469.776 258.845 468.516 251.727 467.486 251.141Z" fill="#FFDD9E"/>
<path d="M497.182 238.025C495.287 240.457 491.961 241.744 489.258 241.544C490.434 245.215 492.77 251.902 495.027 254.272C489.242 255.207 487.374 256.542 486.332 256.112C485.204 255.648 485.485 253.191 483.727 253.098C483.617 254.553 483.722 256.008 483.722 256.008C483.722 256.008 479.862 253.749 476.94 254.345C474.004 254.944 471.618 258.4 477.879 261.615C479.072 262.228 490.02 263.025 493.844 262.691C496.396 262.468 501.425 261.973 502.468 260.509C503.511 259.044 503.094 256.351 502.468 254.272C501.842 252.193 498.631 240.208 497.182 238.025Z" fill="#FFDD9E"/>
<path d="M471.368 224.121C466.315 223.899 463.437 221.004 463.437 221.004L461.569 221.73C461.569 221.73 463.717 225.815 466.315 227.108C469.104 228.495 475.182 228.913 477.839 227.646C480.981 226.149 482.959 221.73 482.959 221.73L479.895 220.595C479.895 220.595 478.042 224.414 471.368 224.121Z" fill="#E2403D"/>
<path d="M456.706 223.903C456.706 223.903 453.939 222.788 450.99 227.377C448.041 231.966 445.069 242.475 445.069 242.475C445.069 242.475 448.91 245.722 450.887 246.3C454.002 247.212 456.486 246.3 456.486 246.3C456.486 246.3 457.075 241.847 456.496 236.684C455.916 231.521 456.706 223.903 456.706 223.903Z" fill="#5AA8DE"/>
<path d="M488.566 223.903C488.566 223.903 488.441 231.134 487.861 236.296C487.281 241.459 488.786 246.299 488.786 246.299C488.786 246.299 492.22 247.122 495.439 246.704C498.559 246.299 500.202 242.474 500.202 242.474C500.202 242.474 497.23 231.964 494.282 227.376C491.333 222.788 488.566 223.903 488.566 223.903Z" fill="#5AA8DE"/>
<path d="M487.092 211.812C488.213 206.745 484.003 208.513 483.431 204.357C482.858 200.2 483.392 191.933 471.665 191.933C466.865 191.933 463.275 194.645 461.57 199.197C459.865 203.749 459.714 205.631 460.434 208.179C461.154 210.726 459.705 211.826 458.083 213.216C456.589 214.496 456.557 216.563 457.725 218.195C459.224 220.286 456.401 222.747 457.297 225.308C457.841 226.862 460.581 227.779 462.001 230.998C462.463 232.046 463.944 235.793 466.261 237.769C468.578 239.746 475.819 240.067 477.889 237.769C480.788 234.554 480.772 233.351 481.69 232.208C484.391 228.846 482.738 226.161 486.5 224.703C488.45 223.948 491.07 221.111 488.72 217.731C487.131 215.446 486.675 213.698 487.092 211.812Z" fill="#FCC240"/>
<path d="M455.075 340.427H491.181C496.238 340.427 500.438 337.35 500.805 333.375L507.869 257.07C508.277 252.663 506.362 248.911 500.756 248.911H445.899C440.309 248.911 438.399 252.643 438.783 257.039L445.447 333.344C445.796 337.332 450.004 340.427 455.075 340.427Z" fill="#1A0940"/>
<path d="M379.155 340.428H415.261C420.318 340.428 424.517 337.351 424.885 333.375L431.948 257.07C432.356 252.663 430.442 248.911 424.836 248.911H369.978C364.388 248.911 362.479 252.644 362.863 257.039L369.527 333.344C369.876 337.332 374.082 340.428 379.155 340.428Z" fill="#1A0940"/>
<path d="M303.234 340.427H339.34C344.398 340.427 348.597 337.35 348.965 333.375L356.028 257.07C356.436 252.663 354.522 248.911 348.915 248.911H294.058C288.468 248.911 286.558 252.643 286.942 257.039L293.606 333.344C293.957 337.332 298.163 340.427 303.234 340.427Z" fill="#1A0940"/>
<path d="M309.96 104.449C308.625 104.126 306.186 103.778 306.455 102.793C306.764 101.658 309.52 96.9307 309.52 96.9307L309.96 104.449Z" fill="#FFDD9E"/>
<path d="M310.776 105.794C311.414 105.864 312.066 105.732 312.613 105.391C313.217 105.017 313.641 104.413 313.834 103.737C313.887 103.551 314.12 103.46 314.294 103.523C314.487 103.593 314.562 103.795 314.509 103.981C314.041 105.617 312.412 106.696 310.72 106.508C310.26 106.458 310.316 105.743 310.776 105.794Z" fill="#EE7225"/>
<path d="M314.011 96.0327C314.013 96.0318 314.014 96.0298 314.015 96.0289C314.043 96.0135 314.077 96.0077 314.111 96.002C313.557 94.8783 312.412 94.0593 311.173 93.9565C310.977 93.9401 310.772 93.942 310.597 94.0295C310.42 94.117 310.283 94.3121 310.316 94.5082C310.353 94.7264 310.571 94.8591 310.774 94.936C311.197 95.0946 311.652 95.1369 312.1 95.1907C312.548 95.2445 313.003 95.3128 313.407 95.5175C313.643 95.6377 313.854 95.8174 314.011 96.0327Z" fill="#13152C"/>
<path d="M312.461 98.1878C312.495 98.7847 312.162 99.1288 311.717 99.1538C311.271 99.1788 310.882 98.8751 310.847 98.2781C310.812 97.6822 311.145 97.3015 311.591 97.2765C312.037 97.2506 312.426 97.5909 312.461 98.1878Z" fill="#13152C"/>
<g clip-path="url(#clip1)">
<path d="M24.6606 196.687C24.6606 196.687 19.5395 196.536 18.0657 188.826C16.592 181.116 20.738 177.895 21.6498 172.685C22.5617 167.476 25.2278 167.684 25.2278 167.684C25.2278 167.684 28.7362 157.613 40.7336 160.53C52.7302 163.448 53.9867 172.156 53.9172 177.296C53.8469 182.436 54.7587 190.563 58.1969 193.689C61.635 196.814 60.3714 202.48 58.1969 206.246C58.1969 206.246 59.9511 210.151 55.5308 214.805C51.1105 219.459 26.7657 215.164 24.6606 196.687Z" fill="#EA516C"/>
<path d="M23.2345 198.204C23.2345 198.204 13.7863 199.408 12.9448 201.352C12.1024 203.297 3.777 231.545 3.0287 239.788C2.2804 248.03 3.40329 252.013 13.1312 252.105C13.1312 252.105 3.0287 267.078 1.99902 275.707H61.3995C61.3995 275.707 57.658 261.089 53.542 250.901C53.542 250.901 59.8097 251.179 62.4283 247.012C65.0478 242.844 57.9386 212.837 55.4123 207.373C52.8878 201.908 38.9497 197.555 23.2345 198.204Z" fill="#1A0940"/>
<path d="M30.5312 198.296C30.5312 198.296 28.7304 203.482 31.4668 213.555C34.2033 223.627 36.0138 229.391 36.1254 236.477C36.2371 243.562 34.6236 248.216 34.6236 248.216H41.9905C41.9905 248.216 40.6574 222.791 42.271 216.194C43.8845 209.598 43.1371 202.716 41.1604 199.696C41.1604 199.696 33.1032 198.111 30.5312 198.296Z" fill="#FBBB20"/>
<path d="M47.9766 174.541C47.9766 174.541 47.4622 181.765 46.8537 185.237C46.2461 188.71 42.4597 192.205 40.6826 193.178C40.4602 193.3 40.0012 193.513 40.0012 193.513C40.0012 193.513 41.3641 198.689 41.241 200.796C41.1003 203.204 40.3054 208.615 38.1537 208.661C36.002 208.707 30.4834 202.741 30.53 198.296C30.53 198.296 31.5122 193.017 31.1851 190.655C31.1851 190.655 28.7995 188.201 27.9114 184.774C27.9114 184.774 25.0114 184.971 24.5437 181.162C24.1189 177.702 25.7131 176.208 26.3208 176.254C26.9284 176.3 27.1623 177.597 27.6301 178.986C28.0979 180.375 28.6123 177.458 28.7055 175.234C28.7987 173.012 28.7987 173.012 28.7987 173.012C28.7987 173.012 32.2711 173.822 32.0319 169.687C31.9273 167.883 38.0596 174.966 45.9172 173.707C47.3312 173.481 47.9766 174.541 47.9766 174.541Z" fill="#FFDD9E"/>
<path d="M36.535 174.393C36.4224 174.393 36.3151 174.325 36.2729 174.215C36.2606 174.184 35.9326 173.413 34.7042 173.268C33.2287 173.093 32.6492 173.873 32.6255 173.906C32.5367 174.03 32.3617 174.061 32.2351 173.974C32.1085 173.887 32.0768 173.716 32.1639 173.59C32.1946 173.545 32.9421 172.5 34.771 172.716C36.3503 172.903 36.7794 173.971 36.797 174.016C36.8524 174.16 36.7794 174.32 36.6343 174.375C36.6027 174.387 36.5684 174.393 36.535 174.393Z" fill="#EE7225"/>
<path d="M36.5349 174.611C36.3291 174.611 36.1409 174.484 36.0671 174.293C36.0565 174.268 35.7725 173.613 34.6786 173.483C33.3377 173.329 32.8233 174.007 32.8039 174.032C32.6509 174.244 32.3273 174.302 32.1101 174.152C31.885 173.995 31.8288 173.689 31.9826 173.466C32.0134 173.423 32.8136 172.262 34.7965 172.5C36.512 172.703 36.9824 173.889 37.0027 173.94C37.0493 174.063 37.0458 174.197 36.9912 174.318C36.9358 174.439 36.8374 174.532 36.7125 174.579C36.658 174.6 36.5973 174.611 36.5349 174.611ZM34.2856 173.024C34.4245 173.024 34.5731 173.033 34.7305 173.051C36.1005 173.213 36.4628 174.098 36.4777 174.136C36.4927 174.176 36.5322 174.182 36.5542 174.172C36.5885 174.159 36.6043 174.124 36.592 174.093C36.5753 174.052 36.1946 173.102 34.7455 172.931C33.0449 172.731 32.3713 173.674 32.3458 173.711C32.3265 173.739 32.3326 173.775 32.3616 173.794C32.4126 173.806 32.4355 173.795 32.446 173.778C32.5023 173.701 33.0308 173.024 34.2856 173.024Z" fill="#EE7225"/>
<path d="M34.4652 179.797C34.8342 179.797 35.1334 179.234 35.1334 178.54C35.1334 177.846 34.8342 177.283 34.4652 177.283C34.0961 177.283 33.7969 177.846 33.7969 178.54C33.7969 179.234 34.0961 179.797 34.4652 179.797Z" fill="#1A0940"/>
<path d="M43.0042 180.908C43.3733 180.908 43.6725 180.345 43.6725 179.651C43.6725 178.956 43.3733 178.394 43.0042 178.394C42.6351 178.394 42.3359 178.956 42.3359 179.651C42.3359 180.345 42.6351 180.908 43.0042 180.908Z" fill="#1A0940"/>
<path d="M39.2861 184.584C39.2975 184.584 39.309 184.583 39.3204 184.582C39.3705 184.573 40.555 184.355 40.9383 183.542C41.3024 182.77 40.0203 179.874 39.7592 179.301C39.7152 179.205 39.6018 179.162 39.5042 179.205C39.4074 179.249 39.3635 179.362 39.4074 179.457C39.9834 180.722 40.8126 182.905 40.5893 183.38C40.2903 184.015 39.2641 184.203 39.2536 184.205C39.1489 184.223 39.0786 184.322 39.0979 184.426C39.1138 184.52 39.1947 184.584 39.2861 184.584Z" fill="#EE7225"/>
<path d="M39.2863 184.802C39.0867 184.802 38.9161 184.661 38.8801 184.466C38.8607 184.358 38.8845 184.249 38.9478 184.159C39.0111 184.069 39.107 184.01 39.216 183.991C39.5598 183.923 40.1973 183.697 40.3899 183.289C40.5306 182.989 39.9775 181.24 39.2072 179.546C39.1615 179.447 39.158 179.336 39.1966 179.235C39.2353 179.133 39.3127 179.051 39.413 179.006C39.6161 178.914 39.8684 179.012 39.9581 179.21C40.4409 180.269 41.5207 182.82 41.1373 183.634C40.7196 184.517 39.5 184.769 39.362 184.794L39.2863 184.802Z" fill="#EE7225"/>
<path d="M38.162 187.682C39.6322 188.014 40.6127 187.197 40.6575 187.159C40.7498 187.08 40.7595 186.942 40.6804 186.851C40.6012 186.76 40.4623 186.75 40.37 186.828C40.3286 186.863 39.3403 187.673 37.8868 187.147C36.3814 186.602 35.9162 186.064 35.9118 186.058C35.8345 185.966 35.6964 185.953 35.6023 186.029C35.5091 186.104 35.4942 186.24 35.5698 186.333C35.59 186.359 36.0947 186.962 37.7347 187.557C37.8824 187.61 38.0239 187.651 38.162 187.682Z" fill="#EE7225"/>
<path d="M38.861 187.979C38.6139 187.979 38.3625 187.951 38.1127 187.894C37.9676 187.861 37.8155 187.817 37.6599 187.762C35.9865 187.155 35.4537 186.538 35.3992 186.47C35.2488 186.287 35.2761 186.014 35.4625 185.862C35.6445 185.714 35.9329 185.744 36.0815 185.92C36.0833 185.922 36.5414 186.429 37.9624 186.944C38.2631 187.052 38.5656 187.107 38.8602 187.107C39.692 187.107 40.2222 186.668 40.2275 186.662C40.4007 186.514 40.6918 186.534 40.8456 186.709C41.0048 186.891 40.9837 187.166 40.8008 187.323C40.77 187.35 40.0226 187.979 38.861 187.979ZM36.7287 186.883C37.0127 187.032 37.3697 187.192 37.8111 187.353C37.9474 187.402 38.0811 187.442 38.2095 187.469C38.4266 187.519 38.6456 187.543 38.8602 187.543C39.8608 187.543 40.4869 187.018 40.5124 186.994C40.486 187.016 39.8529 187.543 38.8602 187.543C38.5128 187.543 38.1602 187.478 37.8111 187.351C37.3688 187.191 37.0118 187.031 36.7287 186.883Z" fill="#EE7225"/>
<path d="M44.573 184.193C42.3123 184.193 40.4736 182.189 40.4736 179.726C40.4736 177.264 42.3123 175.26 44.573 175.26C46.8329 175.26 48.6724 177.264 48.6724 179.726C48.6724 182.189 46.8337 184.193 44.573 184.193ZM44.573 175.511C42.4521 175.511 40.7269 177.403 40.7269 179.727C40.7269 182.052 42.4521 183.944 44.573 183.944C46.6939 183.944 48.4191 182.052 48.4191 179.727C48.4191 177.403 46.6939 175.511 44.573 175.511Z" fill="#1A0940"/>
<path d="M34.4651 183.221C32.2053 183.221 30.3657 181.217 30.3657 178.754C30.3657 176.291 32.2044 174.287 34.4651 174.287C36.7249 174.287 38.5645 176.291 38.5645 178.754C38.5645 181.218 36.7258 183.221 34.4651 183.221ZM34.4651 174.539C32.3442 174.539 30.619 176.43 30.619 178.755C30.619 181.079 32.3442 182.971 34.4651 182.971C36.586 182.971 38.3112 181.079 38.3112 178.755C38.3112 176.43 36.586 174.539 34.4651 174.539Z" fill="#1A0940"/>
<path d="M25.5738 235.712L51.8829 240.505C51.8829 240.505 53.5668 245.575 52.5143 248.562C51.4617 251.549 23.539 240.157 23.539 240.157C23.539 240.157 17.5051 238.838 15.8916 237.796C14.278 236.754 10.8399 237.656 10.3493 236.754C9.85772 235.851 12.3268 235.26 13.987 235.399C15.6463 235.538 14.1382 234.461 11.6471 234.357C9.1569 234.252 7.71834 233.767 7.96367 233.072C8.209 232.377 9.50687 232.307 9.50687 232.307C9.50687 232.307 7.40179 232.168 7.43696 231.613C7.47213 231.057 8.87552 230.64 10.2086 230.397C11.5416 230.155 13.2255 230.397 13.2255 230.397C13.2255 230.397 12.3137 229.495 10.2437 229.529C8.17383 229.564 8.34969 227.862 11.4713 227.862C14.5928 227.862 16.2073 228.695 17.0488 228.974C17.8912 229.253 25.5738 235.712 25.5738 235.712Z" fill="#FFDD9E"/>
<path d="M40.7012 178.879C40.659 178.879 40.6185 178.859 40.5939 178.821C40.404 178.523 40.156 178.342 39.8579 178.284C39.2081 178.156 38.5134 178.637 38.5064 178.642C38.4493 178.682 38.3701 178.669 38.3306 178.612C38.2901 178.556 38.3033 178.478 38.3604 178.438C38.3921 178.415 39.1492 177.89 39.9063 178.038C40.2756 178.111 40.5798 178.329 40.8085 178.688C40.8454 178.746 40.8287 178.824 40.7689 178.861C40.7478 178.873 40.7241 178.879 40.7012 178.879Z" fill="#1A0940"/>
<path d="M45.9084 175.234C45.8002 175.234 45.6973 175.169 45.656 175.063C45.6446 175.033 45.3289 174.291 44.148 174.152C42.7287 173.984 42.1721 174.734 42.1493 174.766C42.064 174.885 41.896 174.915 41.7747 174.831C41.6533 174.748 41.6217 174.583 41.7061 174.462C41.736 174.419 42.4544 173.415 44.213 173.622C45.7316 173.801 46.1449 174.829 46.1616 174.873C46.2144 175.01 46.1449 175.165 46.006 175.218C45.9725 175.228 45.94 175.234 45.9084 175.234Z" fill="#EE7225"/>
<path d="M45.9085 175.452C45.7062 175.452 45.5224 175.326 45.4503 175.139C45.4415 175.118 45.169 174.492 44.1217 174.367C42.8388 174.215 42.3455 174.866 42.3288 174.891C42.1766 175.1 41.8592 175.155 41.6482 175.009C41.4283 174.858 41.3729 174.557 41.5242 174.338C41.5541 174.296 42.334 173.186 44.2378 173.405C45.8469 173.595 46.3165 174.67 46.3648 174.793C46.4132 174.916 46.4088 175.047 46.3552 175.165C46.3015 175.284 46.2048 175.374 46.0817 175.421C46.0254 175.441 45.9674 175.452 45.9085 175.452ZM43.7453 173.908C43.879 173.908 44.0214 173.917 44.1736 173.934C45.4855 174.089 45.846 174.944 45.861 174.981C45.8733 175.012 45.8847 175.024 45.926 175.012L46.1608 174.87L45.9568 174.95C45.941 174.911 45.5646 173.999 44.1868 173.836C42.5635 173.653 41.912 174.548 41.8882 174.582C41.8715 174.605 41.8768 174.634 41.8996 174.649L42.1503 174.764L41.9709 174.638C42.0245 174.564 42.5292 173.908 43.7453 173.908Z" fill="#EE7225"/>
<path d="M14.5583 251.896C14.5583 251.896 36.8684 246.757 44.376 243.63C51.8827 240.505 51.8827 240.505 51.8827 240.505C51.8827 240.505 57.0742 238.907 57.9166 238.282C57.9166 238.282 57.8128 237.128 57.5965 236.04C57.4286 235.197 57.1938 234.393 56.8878 234.196C56.8878 234.196 56.4789 233.86 55.6717 233.512C55.6717 233.512 55.8563 232.378 54.5717 232.227C54.5717 232.227 54.8064 231.394 53.3687 231.139C52.2872 230.948 45.3705 236.992 45.2658 236.922C45.1603 236.853 19.2257 240.991 19.2257 240.991C19.2257 240.991 11.9274 244.916 14.5583 251.896Z" fill="#FFDD9E"/>
<path d="M34.6237 248.216C34.6237 248.216 27.3975 267.356 27.4678 275.707L50.4092 276C50.4092 276 42.3406 254.259 41.9906 248.216H34.6237V248.216Z" fill="#5AA8DE"/>
<path d="M31.1855 190.656C31.1855 190.656 34.1761 193.804 37.5439 193.804C38.3836 193.804 39.0396 193.84 40.0016 193.514L40.6831 196.44C40.6831 196.44 33.2423 195.74 31.1855 190.656Z" fill="#FBBB20"/>
</g>
<path d="M475.945 239.472C475.945 239.472 476.061 240.396 477.106 242.822C478.15 245.247 478.707 240.835 478.707 240.835L475.945 239.472Z" fill="#FFDD9E"/>
<path d="M519.276 206.465L507.983 207.654L504.423 225.914C503.819 226.895 482.073 242.129 482.073 242.129C482.073 242.129 482.767 245.398 484.51 246.425C487.256 243.072 513.85 232.45 514.285 231.302C514.738 230.109 519.276 206.465 519.276 206.465Z" fill="#FFDD9E"/>
<path d="M508.229 264.882L474.438 235.771L494.497 211.929L525.344 243.565L508.229 264.882Z" fill="#F2CCAA"/>
<path d="M531.534 241.192L496.231 211.772L476.172 235.613L511.475 265.033L531.534 241.192Z" fill="#F2CCAA"/>
<path d="M527.362 241.851L492.059 212.431L472 236.272L507.303 265.692L527.362 241.851Z" fill="#EE7225"/>
<path d="M511.292 240.535L505.954 254.293C505.954 254.293 501.705 285.598 503.732 305.253C504.58 313.472 516.037 351.366 516.037 351.366L525.157 350.069L519.845 304.071L525.107 285.672L531.467 246.286L511.292 240.535Z" fill="#5B57A2"/>
<path d="M536.437 241.253L541.017 256.571L547.215 301.281L563.865 338.425C563.865 338.425 560.324 343.836 556.521 344.687L529.993 307.08L512.643 253.882L513.278 241.724L536.437 241.253Z" fill="#5B57A2"/>
<path d="M506.194 214.151L519.192 215.489C519.192 215.489 519.788 204.74 519.788 199.613C519.788 193.392 518.648 185.609 517.918 185.835C515.894 186.464 513.613 187.2 511.937 189.523C506.138 197.561 506.194 214.151 506.194 214.151Z" fill="#FBBB20"/>
<path d="M554.26 265.781C556.242 262.545 556.687 263.005 556.931 262.583C557.219 262.084 556.9 254.382 556.9 254.382C556.9 254.382 556.335 231.637 556.02 230.452C554.523 224.828 545.866 209.489 545.866 209.489L554.644 201.26C554.644 201.26 561.816 217.12 564.47 223.308C565.02 224.591 565.291 225.469 565.349 225.694C565.415 225.947 565.462 227.293 565.358 229.34C564.924 237.874 563.331 258.377 563.229 260.573C563.229 260.573 564.246 263.865 564.819 265.955C565.391 268.045 565.157 270.618 563.239 274.466C562.224 276.503 561.53 277.471 561.002 278.092C560.004 279.268 556.706 279.366 556.361 279.31C555.775 279.216 556.575 277.253 556.575 277.253C556.575 277.253 556.945 275.894 557.031 275.433C557.131 274.894 557.295 273.255 557.295 273.255C557.295 273.255 557.281 267.523 556.868 267.539C556.454 267.555 555.679 268.202 555.537 268.55C555.393 268.898 555.182 269.501 555.039 269.85C554.896 270.198 554.419 270.531 553.99 270.388C553.56 270.245 553.624 268.299 553.624 268.299C553.624 268.299 553.688 266.714 554.26 265.781Z" fill="#FFDD9E"/>
<path d="M534.784 185.084C534.784 185.084 541.663 186.035 543.474 187.359C545.513 188.85 551.829 195.803 551.829 195.803C551.829 195.803 538.685 233.277 539.193 239.945C539.702 246.613 541.144 256.488 541.144 256.488C541.144 256.488 515.617 258.092 505.95 254.294C505.95 254.294 509.002 239.186 509.002 235.219C509.002 231.253 510.717 191.601 511.938 189.524C513.158 187.448 515.618 186.266 520.282 185.253C524.946 184.239 534.784 185.084 534.784 185.084Z" fill="#FBBB20"/>
<path d="M534.97 172.993L536.944 185.438C536.944 185.438 533.187 192.976 527.185 192.976C522.793 192.976 524.002 185.221 524.002 185.221C524.002 185.221 525.977 177.917 525.385 174.262C524.793 170.607 534.97 172.993 534.97 172.993Z" fill="#FFDD9E"/>
<path d="M525.386 174.262C524.794 170.607 534.97 172.993 534.97 172.993L535.134 174.063C534.836 174.779 534.472 175.392 534.03 175.862C531.757 178.28 528.204 179.733 525.132 179.843C525.439 177.873 525.628 175.761 525.386 174.262Z" fill="#FBBB20"/>
<path d="M560.367 209.235L548.861 218.169C548.861 218.169 543.78 213.32 541.229 207.956C538.645 202.527 540.452 186.454 543.201 187.19C549.351 188.837 560.367 209.235 560.367 209.235Z" fill="#FBBB20"/>
<path d="M536.639 154.73C536.927 154.627 538.945 169.432 535.115 173.506C531.286 177.58 523.825 178.913 521.149 175.705C518.189 172.156 518.338 156.243 524.291 152.052C530.246 147.862 536.639 154.73 536.639 154.73Z" fill="#FFDD9E"/>
<path d="M535.236 149.025C537.829 149.081 541.251 149.068 543.898 154.03C547.096 160.024 544.041 167.654 539.843 170.862C535.646 174.07 535.694 177.796 535.694 177.796L535.041 175.86C534.552 174.408 534.351 172.868 534.515 171.344C534.613 170.431 534.811 169.442 535.194 168.63C536.204 166.487 533.025 165.063 532.135 163.281C531.448 161.908 532.362 159.637 531.222 157.398C530.953 156.87 529.856 156.084 529.044 155.692C527.414 154.905 524.879 154.726 522.012 155.551C517.65 156.805 523.324 141.672 535.236 149.025Z" fill="#FBBB20"/>
<path d="M534.293 162.675C533.238 162.657 532.358 164.107 532.327 165.913C532.296 167.719 533.126 169.198 534.181 169.216C535.236 169.234 536.117 167.784 536.148 165.978C536.179 164.171 535.348 162.692 534.293 162.675Z" fill="#FFDD9E"/>
<path d="M486.016 240.431C486.016 239.851 486.159 238.905 485.674 238.563C485.21 238.235 484.835 237.918 484.26 237.751C483.789 237.615 483.252 237.713 482.753 237.889C482.079 238.126 478.255 241.273 477.187 240.927C476.131 240.585 476.855 242.929 478.126 244.266C478.666 245.082 480.137 245.336 480.703 245.697C482.113 246.596 483.261 245.887 483.331 245.87C483.331 245.87 486.016 241.375 486.016 240.431Z" fill="#FFDD9E"/>
<path d="M522.217 164.954C522.184 164.653 522.062 164.344 521.769 164.302C521.4 164.249 521.009 164.644 520.894 165.183C520.78 165.723 520.987 166.203 521.356 166.256C522.015 166.35 522.27 165.453 522.217 164.954Z" fill="#1A0940"/>
<path d="M528.577 165.573C528.545 165.273 528.422 164.963 528.13 164.921C527.761 164.869 527.369 165.263 527.255 165.803C527.141 166.343 527.348 166.823 527.717 166.876C528.376 166.97 528.631 166.073 528.577 165.573Z" fill="#1A0940"/>
<path d="M521.987 168.47C522.122 168.218 522.344 168.021 522.533 167.809C522.748 167.569 522.937 167.307 523.102 167.032C523.436 166.48 523.656 165.879 523.776 165.256C523.809 165.085 524.023 164.99 524.175 165.027C524.355 165.072 524.418 165.245 524.386 165.414C524.185 166.46 523.688 167.447 522.965 168.256C522.687 168.566 522.293 168.894 522.609 169.297C522.925 169.7 523.538 169.66 524.011 169.646C524.422 169.634 524.403 170.269 523.992 170.281C523.376 170.298 522.72 170.283 522.249 169.862C521.859 169.514 521.724 168.959 521.987 168.47Z" fill="#EE7225"/>
<path d="M526.605 171.661C525.703 172.429 524.424 172.725 523.279 172.395C523.093 172.341 522.889 172.409 522.815 172.6C522.751 172.768 522.835 173.007 523.022 173.061C524.413 173.463 525.954 173.154 527.059 172.213C527.41 171.914 526.956 171.362 526.605 171.661Z" fill="#EE7225"/>
<path d="M527.904 161.505C528.041 161.419 528.186 161.403 528.319 161.403C529.207 161.401 529.733 161.762 530.027 162.083C530.257 162.334 530.066 162.676 529.62 162.475C529.359 162.357 529.065 162.385 528.762 162.372C528.458 162.359 528.147 162.356 527.877 162.253C527.748 162.203 527.617 162.107 527.628 161.927C527.638 161.765 527.766 161.592 527.904 161.505Z" fill="#1A0940"/>
<path d="M522.422 161.242C522.285 161.156 522.141 161.14 522.007 161.14C521.119 161.137 520.594 161.498 520.299 161.82C520.069 162.07 520.261 162.413 520.706 162.211C520.967 162.093 521.261 162.121 521.565 162.108C521.868 162.095 522.179 162.092 522.449 161.989C522.579 161.94 522.709 161.843 522.698 161.663C522.688 161.501 522.56 161.328 522.422 161.242Z" fill="#1A0940"/>
<defs>
<clipPath id="clip0">
<rect width="59.9265" height="85.9815" fill="white" transform="translate(365.578 193.853)"/>
</clipPath>
<clipPath id="clip1">
<rect width="61" height="116" fill="white" transform="translate(2 160)"/>
</clipPath>
</defs>
</svg>
