<svg width="2369" height="870" viewBox="0 0 2369 870" fill="none" xmlns="http://www.w3.org/2000/svg">
<path d="M1756.08 694.634L1673.53 535.412C1673.06 534.518 1673.41 533.414 1674.31 532.95C1675.2 532.487 1676.31 532.837 1676.77 533.731L1759.32 692.953C1759.78 693.847 1759.43 694.951 1758.54 695.415C1758.28 695.549 1757.99 695.62 1757.7 695.62C1757.02 695.62 1756.39 695.243 1756.08 694.634Z" fill="#F9BD92"/>
<path d="M1675.58 695.851L1605.02 533.724C1604.62 532.801 1605.04 531.722 1605.97 531.32C1606.89 530.919 1607.97 531.343 1608.37 532.266L1678.93 694.394C1679.13 694.841 1679.14 695.338 1678.96 695.792C1678.78 696.246 1678.43 696.603 1677.99 696.798C1677.75 696.899 1677.51 696.95 1677.26 696.95C1676.53 696.949 1675.87 696.518 1675.58 695.851Z" fill="#F9BD92"/>
<path d="M1620.03 564.586H1690.65C1691.28 564.586 1691.79 564.075 1691.79 563.445C1691.79 562.815 1691.28 562.304 1690.65 562.304H1620.03C1619.4 562.304 1618.89 562.815 1618.89 563.445C1618.89 564.075 1619.4 564.586 1620.03 564.586Z" fill="#F9BD92"/>
<path d="M1627.68 582.316H1698.3C1698.93 582.316 1699.44 581.805 1699.44 581.175C1699.44 580.545 1698.93 580.034 1698.3 580.034H1627.68C1627.05 580.034 1626.54 580.545 1626.54 581.175C1626.54 581.805 1627.05 582.316 1627.68 582.316Z" fill="#F9BD92"/>
<path d="M1637.76 603.547H1710.21C1710.84 603.547 1711.35 603.036 1711.35 602.406C1711.35 601.776 1710.84 601.265 1710.21 601.265H1637.76C1637.13 601.265 1636.62 601.776 1636.62 602.406C1636.62 603.036 1637.13 603.547 1637.76 603.547Z" fill="#F9BD92"/>
<path d="M1612.42 547.387H1681.73C1682.36 547.387 1682.87 546.876 1682.87 546.246C1682.87 545.616 1682.36 545.105 1681.73 545.105H1612.42C1611.79 545.105 1611.28 545.616 1611.28 546.246C1611.28 546.876 1611.79 547.387 1612.42 547.387Z" fill="#F9BD92"/>
<path d="M1647.81 627.974H1722.89C1723.52 627.974 1724.03 627.463 1724.03 626.833C1724.03 626.203 1723.52 625.692 1722.89 625.692H1647.81C1647.18 625.692 1646.67 626.203 1646.67 626.833C1646.67 627.463 1647.18 627.974 1647.81 627.974Z" fill="#F9BD92"/>
<path d="M1655.58 646.922H1733.06C1733.69 646.922 1734.2 646.411 1734.2 645.781C1734.2 645.15 1733.69 644.64 1733.06 644.64H1655.58C1654.95 644.64 1654.44 645.151 1654.44 645.781C1654.44 646.411 1654.95 646.922 1655.58 646.922Z" fill="#F9BD92"/>
<path d="M2369 666H0V669.334H2369V666Z" fill="#F9BD92"/>
<path d="M879.688 316.676C881.344 316.676 882.417 316.5 882.417 314.951C882.417 313.132 879.955 308.618 879.955 308.618L879.688 316.676Z" fill="#FFDD9E"/>
<path d="M1902 343H1789V496H1902V343Z" fill="#EE7225"/>
<path d="M1902 496H1789L1902 343V496Z" fill="#F5A065"/>
<path d="M1894 354H1797V485H1894V354Z" fill="#FCD9BE"/>
<path d="M2046 134H1933V287H2046V134Z" fill="#EE7225"/>
<path d="M2046 287H1933L2046 134V287Z" fill="#F5A065"/>
<path d="M2038 145H1941V276H2038V145Z" fill="#FCD9BE"/>
<path d="M409 270H296V423H409V270Z" fill="#EE7225"/>
<path d="M409 423H296L409 270V423Z" fill="#F5A065"/>
<path d="M401 281H304V412H401V281Z" fill="#FCD9BE"/>
<path d="M407.435 197.5C417.195 197.5 425.107 189.588 425.107 179.828C425.107 170.068 417.195 162.156 407.435 162.156C397.675 162.156 389.763 170.068 389.763 179.828C389.763 189.588 397.675 197.5 407.435 197.5Z" fill="#F9BD92"/>
<path d="M415.369 0V121.053C415.369 130.043 413.174 137.379 410.498 137.379H409.802C407.125 137.379 404.938 130.043 404.938 121.053V0C408.448 0 411.904 0 415.369 0Z" fill="#EE7225"/>
<path d="M407.435 109.638C369.433 109.638 338.627 142.213 338.627 182.395H476.244C476.243 142.213 445.437 109.638 407.435 109.638Z" fill="#EE7225"/>
<path d="M412.916 109.867C410.935 109.638 409.096 109.693 407.046 109.693C382.286 109.693 362.042 142.339 362.042 182.395H374.128C374.129 145.655 391.015 114.642 412.916 109.867Z" fill="#FFEBC7"/>
<path d="M288.406 490.84V670.069H436.891V669.862H480.846V664.25H477.95V572.564H480.846V556.539L446.184 551.499L438.565 515.318H436.891V493.711H438.819V490.84H436.891H288.406V490.84ZM436.892 664.251V572.565H472.159V664.251H436.892Z" fill="#D1B8DA"/>
<path d="M436.892 572.565H329.489V626.121L436.892 658.621V572.565Z" fill="#954B97"/>
<path d="M288.406 490.84V493.711V670.068H329.488V669.861H373.443V664.249H370.547V572.563H373.443V556.538L338.781 551.498L331.162 515.317H329.488V493.71H331.416V490.839H329.488H288.406V490.84ZM329.489 664.251V572.565H364.756V664.251H329.489Z" fill="#9E5DA2"/>
<path d="M288.406 490.84V493.711V670.068H329.488V669.861H373.443V664.249H370.547V572.563H373.443V556.538L338.781 551.498L331.162 515.317H329.488V493.71H331.416V490.839H329.488H288.406V490.84ZM329.489 664.251V572.565H364.756V664.251H329.489Z" fill="#9E5DA2"/>
<path d="M477.951 572.565H472.159V664.251H477.951V572.565Z" fill="#9E5DA2"/>
<path d="M370.548 572.565H364.756V664.251H370.548V572.565Z" fill="#954B97"/>
<path d="M436.892 493.712H329.489V497.534L436.892 495.597V493.712Z" fill="#9E5DA2"/>
<path d="M436.892 515.319H329.489L436.892 514.279V515.319Z" fill="#9E5DA2"/>
<path d="M477.269 561.822H376.168V555.812L360.588 553.826H454.827L477.269 557.091V561.822Z" fill="#9E5DA2"/>
<path d="M446.185 551.5H338.782L370.548 547.398L365.582 520.053H411.357L418.439 550.34L446.185 551.5Z" fill="#954B97"/>
<path d="M473.106 560.962H376.168V557.052H454.525L473.106 559.833V560.962Z" fill="#E7DCEE"/>
<path d="M473.106 559.833H376.168V560.962H473.106V559.833Z" fill="#DCCAE4"/>
<path d="M452.185 556.55L459.375 557.993V558.406H456.679L450.224 557.052V556.55H452.185Z" fill="#5B57A2"/>
<path d="M445.512 556.55L452.703 557.993V558.406H450.006L443.551 557.052V556.55H445.512Z" fill="#5B57A2"/>
<path d="M438.839 556.55L446.03 557.993V558.406H443.333L436.878 557.052V556.55H438.839Z" fill="#5B57A2"/>
<path d="M432.166 556.55L439.357 557.993V558.406H436.66L430.205 557.052V556.55H432.166Z" fill="#5B57A2"/>
<path d="M425.493 556.55L432.684 557.993V558.406H429.987L423.532 557.052V556.55H425.493Z" fill="#5B57A2"/>
<path d="M418.82 556.55L426.011 557.993V558.406H423.314L416.859 557.052V556.55H418.82Z" fill="#5B57A2"/>
<path d="M412.147 556.55L419.338 557.993V558.406H416.641L410.186 557.052V556.55H412.147Z" fill="#5B57A2"/>
<path d="M405.474 556.55L412.665 557.993V558.406H409.968L403.513 557.052V556.55H405.474Z" fill="#5B57A2"/>
<path d="M398.801 556.55L405.992 557.993V558.406H403.295L396.84 557.052V556.55H398.801Z" fill="#5B57A2"/>
<path d="M392.128 556.55L399.319 557.993V558.406H396.622L390.167 557.052V556.55H392.128Z" fill="#5B57A2"/>
<path d="M385.455 556.55L392.646 557.993V558.406H389.95L383.494 557.052V556.55H385.455Z" fill="#5B57A2"/>
<path d="M378.783 556.55L385.973 557.993V558.406H383.277L376.822 557.052V556.55H378.783Z" fill="#5B57A2"/>
<path d="M421.127 741.641V732.908C421.127 730.39 419.087 728.352 416.572 728.352H253.256C250.742 728.352 248.702 730.39 248.702 732.908V741.641H421.127Z" fill="#D1B8DA"/>
<path d="M253.256 728.352H416.571C417.418 728.352 418.201 728.598 418.88 728.998L408.526 719.858H261.302L250.951 728.998C251.63 728.598 252.414 728.352 253.256 728.352Z" fill="#D1B8DA"/>
<path d="M273.69 748.221V795.243V838.405H279.882V795.243H389.949V838.405H396.142V795.243V748.221H273.69Z" fill="#954B97"/>
<path d="M273.69 747.221V795.243L266.54 808.234V747.221H273.69Z" fill="#9E5DA2"/>
<path d="M396.142 747.221V795.243L403.292 808.234V747.221H396.142Z" fill="#9E5DA2"/>
<path d="M258.846 741.641V861.864H266.54V748.145H403.292V861.864H410.984V741.641H258.846Z" fill="#9E5DA2"/>
<path d="M452.263 864.088C452.263 864.088 434.912 824.506 433.682 806.313C470.113 807.88 460.954 864.088 460.954 864.088C460.954 866.709 458.842 868.836 456.239 868.836H447.548C450.151 868.836 452.263 866.709 452.263 864.088Z" fill="#9E5DA2"/>
<path d="M452.91 839.548C452.91 839.548 460.823 844.139 461.371 839.548C461.371 839.548 465.081 839.381 465.081 855.115C465.081 863.254 467.21 870.588 447.548 868.836C447.548 868.836 452.847 867.657 452.847 858.077C452.847 842.557 452.91 839.548 452.91 839.548Z" fill="#B281B8"/>
<path d="M445.963 809.601C445.963 809.601 446.678 799.284 435.878 799.284C425.075 799.284 425.911 806.754 425.475 808.941C425.295 809.855 426.616 810.604 428.316 808.435C428.772 807.854 427.022 802.011 435.576 802.011C444.133 802.011 443.397 809.514 443.397 809.514C443.397 809.514 443.995 810.802 445.158 810.779C446.556 810.751 445.963 809.601 445.963 809.601Z" fill="#954B97"/>
<path d="M415.401 864.088C415.401 866.709 417.513 868.836 420.116 868.836H447.549C450.152 868.836 452.264 866.709 452.264 864.088C452.264 864.088 458.857 806.313 433.683 806.313C408.508 806.313 415.401 864.088 415.401 864.088Z" fill="#954B97"/>
<path d="M422.144 834.898C417.821 834.898 419.456 814.039 433.635 814.039C447.816 814.039 449.428 834.898 444.955 834.898C440.481 834.898 426.466 834.898 422.144 834.898Z" fill="#9E5DA2"/>
<path d="M449.335 853.042C449.335 864.817 447.149 866.534 432.992 866.534C418.835 866.534 417.871 863.909 417.871 853.042C417.871 842.176 419.11 839.548 432.992 839.548C446.871 839.548 449.335 841.265 449.335 853.042Z" fill="#9E5DA2"/>
<path d="M449.184 848.891H417.982C418.035 848.118 418.108 847.405 418.216 846.747H448.9C449.024 847.402 449.118 848.115 449.184 848.891Z" fill="#954B97"/>
<path d="M442.434 824.161C441.215 820.619 438.45 817.204 433.631 817.204C428.808 817.204 426.038 820.62 424.807 824.161H422.975C424.423 819.842 427.758 815.622 433.632 815.622C439.507 815.622 442.838 819.842 444.265 824.161H442.434Z" fill="#954B97"/>
<path d="M290.851 839.368C290.851 839.368 308.322 799.79 309.561 781.597C272.879 783.162 282.1 839.368 282.1 839.368C282.1 841.992 284.225 844.115 286.849 844.115H295.6C292.976 844.115 290.851 841.992 290.851 839.368Z" fill="#9E5DA2"/>
<path d="M290.201 814.831C290.201 814.831 282.231 819.42 281.679 814.831C281.679 814.831 277.946 814.662 277.946 830.397C277.946 838.535 275.802 845.872 295.6 844.115C295.6 844.115 290.264 842.938 290.264 833.359C290.264 817.839 290.201 814.831 290.201 814.831Z" fill="#A86FAD"/>
<path d="M297.195 784.882C297.195 784.882 296.475 774.567 307.35 774.567C318.227 774.567 317.385 782.036 317.822 784.224C318.005 785.138 316.675 785.885 314.964 783.717C314.502 783.133 316.264 777.293 307.651 777.293C299.036 777.293 299.775 784.797 299.775 784.797C299.775 784.797 299.175 786.085 298.001 786.062C296.595 786.031 297.195 784.882 297.195 784.882Z" fill="#9E5DA2"/>
<path d="M327.968 839.368C327.968 841.992 325.841 844.115 323.22 844.115H295.6C292.976 844.115 290.851 841.991 290.851 839.368C290.851 839.368 284.213 781.597 309.561 781.597C334.908 781.597 327.968 839.368 327.968 839.368Z" fill="#954B97"/>
<path d="M293.798 828.325C293.798 840.101 296.002 841.817 310.256 841.817C324.509 841.817 325.481 839.192 325.481 828.325C325.481 817.458 324.23 814.831 310.256 814.831C296.28 814.831 293.798 816.547 293.798 828.325Z" fill="#A86FAD"/>
<path d="M293.951 824.172H325.37C325.315 823.4 325.24 822.687 325.132 822.031H294.237C294.112 822.684 294.02 823.397 293.951 824.172Z" fill="#954B97"/>
<path d="M312.11 812.73C312.11 813.403 311.566 813.949 310.892 813.949H308.133C307.461 813.949 306.915 813.403 306.915 812.73V808.694C306.915 808.021 307.461 807.474 308.133 807.474H310.892C311.565 807.474 312.11 808.021 312.11 808.694V812.73Z" fill="#954B97"/>
<path d="M311.298 803.482H307.89V808.293H311.298V803.482Z" fill="#954B97"/>
<path d="M311.298 812.857H307.89V814.831H311.298V812.857Z" fill="#954B97"/>
<path d="M324.573 793.731C321.711 786.636 317.043 781.598 309.561 781.598C301.997 781.598 297.286 786.743 294.394 793.96C293.571 796.013 305.81 805.683 309.66 805.683C313.512 805.683 325.426 795.846 324.573 793.731Z" fill="#A86FAD"/>
<path d="M306.075 509.256C305.884 509.157 308.854 506.997 310.406 505.884C310.99 505.465 311.711 505.292 312.421 505.399L317.271 506.126C317.734 506.195 317.893 506.782 317.523 507.068C316.127 508.149 313.701 510.027 313.417 510.255C313.014 510.578 307.925 510.222 306.075 509.256Z" fill="#1A0940"/>
<path d="M300.639 459.665C300.639 459.665 301.938 460.968 301.938 462.968C301.938 465.859 301.403 467.951 297.938 468.745L296.35 460.661L300.639 459.665Z" fill="#1A0940"/>
<path d="M280.74 657.301L280.546 659.045C280.546 659.045 279.577 659.529 279.965 660.789C280.353 662.049 285.875 672.416 285.875 672.416C285.875 672.416 287.126 675.904 290.138 675.904C294.014 675.904 293.432 674.257 293.432 674.257C293.432 674.257 291.201 673.251 291.107 671.544C290.984 669.317 289.245 662.23 289.245 662.23L289.391 658.431L280.74 657.301Z" fill="#FFDD9E"/>
<path d="M280.546 659.045C280.546 659.045 279.577 659.529 279.965 660.789C280.353 662.049 285.875 672.416 285.875 672.416C285.875 672.416 287.126 675.904 290.138 675.904C294.014 675.904 293.432 674.257 293.432 674.257C293.432 674.257 297.21 676.376 297.369 677.17C297.528 677.965 297.051 678.971 297.051 678.971C297.051 678.971 290.535 679.66 288.417 678.971C286.298 678.282 286.298 678.123 286.139 677.594C285.98 677.064 283.861 670.602 282.113 669.172L282.59 676.535H281.478C281.478 676.535 280.895 669.649 278.882 667.212C278.882 667.212 277.293 665.994 277.77 664.034C278.247 662.074 278.914 661.137 279.2 660.538C279.783 659.318 280.546 659.045 280.546 659.045Z" fill="#1A0940"/>
<path d="M252.26 650.741C252.26 650.741 249.712 649.173 247.63 650.809C245.548 652.445 245.845 654.974 245.845 654.974L240.72 661.28L241.432 662.151L246.893 657.719C246.893 657.719 247.843 660.41 246.576 663.893C245.31 667.376 245.23 669.908 247.605 671.966C249.979 674.024 255.599 677.665 255.599 677.665C255.599 677.665 257.34 677.744 257.182 676.399C257.024 675.054 254.728 669.038 254.728 669.038L252.26 650.741Z" fill="#1A0940"/>
<path d="M259.827 654.974L256.555 664.791C256.555 664.791 255.523 667.611 254.956 669.978C254.633 671.326 253.032 671.899 251.912 671.082C250.919 670.358 250.709 669.109 250.328 668.095C249.436 665.715 249.178 663.023 250.219 659.156C250.906 656.603 250.084 654.406 250.295 652.613C250.403 651.7 251.056 650.95 251.945 650.718L253.876 650.214L259.827 654.974Z" fill="#FFDD9E"/>
<path d="M308.137 517.925C308.137 517.925 312.546 519.968 311.81 523.726L304.152 528.512L300.805 530.604L298.679 521.475L299.964 517.173L308.137 517.925Z" fill="#FF9843"/>
<path d="M299.964 517.172L298.679 521.475L300.805 530.604L304.152 528.512L304.446 518.288L299.964 517.172Z" fill="#EE7225"/>
<path d="M308.137 517.925C308.137 517.925 312.546 519.968 311.81 523.726C311.81 523.726 303.405 519.323 303.62 517.71C303.835 516.097 303.62 517.71 303.62 517.71L308.137 517.925Z" fill="#EE7225"/>
<path d="M315.052 511.63C315.052 511.63 315.802 512.755 315.677 513.505C315.552 514.255 313.927 515.817 313.052 516.067C313.052 516.067 312.177 518.067 310.552 518.567C310.552 518.567 309.743 519.129 309.056 519.129C307.889 519.129 307.74 518.317 307.74 518.317L311.115 513.13L315.052 511.63Z" fill="#FBBB20"/>
<path d="M285.229 481.956C285.229 481.956 295.859 485.833 297.36 490.71C298.861 495.587 303.363 507.343 303.363 507.343C303.363 507.343 304.045 511.593 303.864 516.893C303.829 517.908 303.763 518.961 303.655 520.031C303.329 523.239 302.621 526.591 301.237 529.479C301.237 529.479 300.945 524.888 300.502 519.719C300.418 518.736 300.328 517.731 300.234 516.734C299.794 512.071 299.257 507.553 298.722 506.003C297.471 502.376 285.605 487.209 285.605 487.209L284.229 485.333L285.229 481.956Z" fill="#FF9843"/>
<path d="M303.654 520.03C304.181 519.128 304.23 517.89 304.264 516.875L300.233 516.734C300.327 517.732 300.417 518.736 300.501 519.719L303.654 520.03Z" fill="#EE7225"/>
<path d="M285.53 482.614C287.445 484.577 290.58 486.738 290.58 486.738L289.91 487.573C289.91 487.573 293.222 489.685 293.967 490.014C293.967 490.014 301.619 501.838 300.862 507.553" stroke="#EE7225" stroke-width="0.75" stroke-miterlimit="10"/>
<path d="M284.071 486.508L285.484 482.912C285.484 482.912 291.007 484.967 291.777 483.939C292.147 483.446 293.183 481.841 295.071 478.932C295.333 478.528 297.014 480.19 297.785 478.886C298.867 477.058 296.388 474.512 299.007 468.49C302.331 460.845 295.701 455.391 293.447 453.628C288.978 450.132 280.218 450.802 276.365 456.71C272.512 462.618 276.365 467.755 276.365 467.755C276.365 467.755 277.778 469.296 276.622 471.48C275.466 473.663 273.411 478.801 273.411 478.801L284.071 486.508Z" fill="#FFDD9E"/>
<path d="M305.044 542.447C305.044 542.447 309.973 560.756 308.33 574.37C306.687 587.984 303.635 603.946 303.635 603.946L292.604 659.81C292.604 659.81 283.684 660.279 279.694 656.993L284.154 614.742L305.044 542.447Z" fill="#9B96C9"/>
<path d="M270.774 548.785C266.758 557.73 274.295 581.881 274.295 581.881L276.642 604.18L250.587 650.891C250.587 650.891 254.678 659.525 261.954 659.994L281.805 624.366C281.805 624.366 290.255 618.498 291.194 612.864C292.133 607.231 300.583 563.102 300.583 563.102L305.043 542.446C305.044 542.447 275.938 537.283 270.774 548.785Z" fill="#9B96C9"/>
<path d="M277.149 553.699C277.224 570.397 280.881 586.924 280.957 603.622L280.842 606.361C280.842 606.361 278.46 607.552 270.717 622.641C262.974 637.73 253.338 652.271 253.338 652.271" stroke="#1A0940" stroke-width="0.75" stroke-miterlimit="10"/>
<path d="M291.565 613.781C295.116 600.907 297.556 577.495 300.348 563.907C300.348 563.907 300.71 550.34 300.71 548.069C300.71 548.069 300.619 541.957 301.41 542.748C302.201 543.539 308.374 559.117 308.374 559.749C308.374 560.381 308.605 565.457 308.605 565.457L304.098 566.943C304.098 566.943 298.405 602.525 296.191 607.427C293.977 612.331 291.565 613.781 291.565 613.781Z" fill="#1A0940"/>
<path d="M301.236 529.479C301.236 529.479 305.784 538.821 306.796 544.287C307.808 549.753 311.704 552.486 308.465 562.001L298.698 539.631L301.236 529.479Z" fill="#FF9843"/>
<path d="M275.851 478.802L287.549 488.709L293.427 495.962C293.427 495.962 299.222 502.7 299.951 506.772C300.68 510.844 299.054 516.346 299.054 516.346L275.851 478.802Z" fill="white"/>
<path d="M294.291 511.707L299.951 506.773C299.951 506.773 302.418 505.902 304.305 508.224L310.836 509.53L315.375 509.646C316.199 509.667 316.867 510.4 316.728 511.212C316.679 511.497 316.533 511.707 316.206 511.707C315.19 511.707 314.296 511.941 314.296 511.941C314.296 511.941 313.703 513.737 313.413 514.172C313.123 514.607 312.071 515.132 312.071 515.132C312.071 515.132 312.057 517.749 310.17 517.603C308.283 517.457 308.95 517.512 308.95 517.512C308.95 517.512 309.385 518.383 308.079 518.963C306.773 519.544 303.435 518.382 301.113 518.673C298.791 518.963 298.791 518.963 298.791 518.963L294.291 511.707Z" fill="#FFDD9E"/>
<path d="M265.845 551.367L301.549 565.038L301.054 537.049L301.549 522.167C301.549 522.167 297.299 510.055 293.543 504.891C290.043 500.078 280.427 481.607 273.815 476.075C273.127 475.499 272.081 475.726 271.666 476.522L269.601 480.48C269.601 480.48 265.376 480.949 262.09 483.297L271.714 518.037C271.714 518.037 270.919 532.004 270.071 536.58C269.369 540.359 265.845 551.367 265.845 551.367Z" fill="#FF9843"/>
<path d="M298.706 523.904C298.706 523.904 266.314 533.293 263.732 533.528C261.15 533.763 259.976 530.711 258.568 526.017C257.16 521.322 251.526 489.634 262.089 483.297C264.436 481.889 264.436 481.889 264.436 481.889C264.436 481.889 274.06 483.063 274.295 494.564C274.53 506.065 273.826 518.037 273.826 518.037L293.308 510.76C293.308 510.759 298.002 511.933 298.706 523.904Z" fill="#FF9843"/>
<path d="M278.676 467.628C278.676 467.628 277.392 468.912 276.364 467.756C275.337 466.6 272.397 463.121 274.181 456.582C275.722 450.931 279.19 445.793 288.823 446.692C298.63 447.607 300.511 457.224 300.639 459.664C300.639 459.664 296.658 464.93 288.052 462.618C288.052 462.618 287.781 466.97 285.226 467.242C281.764 467.611 281.758 463.646 281.758 463.646L278.676 467.628Z" fill="#1A0940"/>
<path d="M274.779 456.083C274.779 456.083 266.68 458.367 266.51 450.047C266.433 446.303 270.177 443.95 273.41 443.906C275.289 443.881 278.964 446.399 279.296 448.73C279.59 450.801 274.779 456.083 274.779 456.083Z" fill="#1A0940"/>
<path d="M266.784 481.884C270.252 483.51 273.398 489.922 273.476 492.34C273.749 500.809 274.392 509.618 273.524 518.048L293.308 510.76L295.773 509.773" stroke="#EE7225" stroke-width="0.75" stroke-miterlimit="10"/>
<path d="M269.806 480.781C270.344 482.322 271.698 483.712 272.931 484.594C274.647 485.82 277.405 486.789 277.405 486.789C277.105 487.513 276.804 488.237 276.504 488.961L293.309 510.759" stroke="#EE7225" stroke-width="0.75" stroke-miterlimit="10"/>
<path d="M300.348 523.436C299.663 523.802 271.715 531.574 270.945 531.679" stroke="#EE7225" stroke-width="0.75" stroke-miterlimit="10"/>
<path d="M273.431 500.099C273.431 500.099 274.009 507.676 273.635 512.53C273.261 517.384 273.825 518.035 273.825 518.035L280.231 515.517C280.231 515.517 279.111 515.144 277.493 512.53C275.875 509.917 273.431 500.099 273.431 500.099Z" fill="#EE7225"/>
<path d="M270.287 521.483C271.477 519.967 272.917 518.646 274.529 517.59" stroke="#EE7225" stroke-width="0.75" stroke-miterlimit="10"/>
<path d="M300.284 523.099C301.157 527.551 301.698 537.393 301.184 544.454" stroke="#EE7225" stroke-width="0.75" stroke-miterlimit="10"/>
<path d="M278.676 467.628C278.676 467.628 275.773 463.796 278.203 461.494C280.633 459.192 281.861 460.428 281.759 463.647C281.657 466.866 278.676 467.628 278.676 467.628Z" fill="#FFDD9E"/>
<path d="M285.479 482.91C283.252 481.275 281.018 478.964 279.633 476.574L284.275 485.97L285.479 482.91Z" fill="#FBBB20"/>
<path d="M292.322 467.628C294.034 466.829 296.059 466.724 297.844 467.343" stroke="#1A0940" stroke-width="0.75" stroke-miterlimit="10"/>
<path d="M289.157 478.099C290.225 479.983 290.782 480.607 291.889 481.104" stroke="#EE7225" stroke-width="0.75" stroke-miterlimit="10"/>
<path d="M285.325 550.079C285.325 550.079 280.707 549.712 277.488 547.26C274.27 544.808 276.933 537.467 276.933 537.467C279.023 538.779 287.056 540.922 289.513 541.153C289.514 541.154 290.743 549.5 285.325 550.079Z" stroke="#EE7225" stroke-width="0.75" stroke-miterlimit="10"/>
<path d="M268.409 550.079C270.974 551.721 297 561.393 299.863 562.432" stroke="#EE7225" stroke-width="0.75" stroke-miterlimit="10"/>
<path d="M307.672 557.22C308.361 554.734 308.547 553.527 308.212 550.969" stroke="#EE7225" stroke-width="0.75" stroke-miterlimit="10"/>
<path d="M296.135 470C296.349 469.219 295.655 468.769 295.239 468.747C294.713 468.719 294.228 469.203 294.156 469.828C294.084 470.453 294.451 471.009 294.977 471.011C295.766 471.014 296.012 470.448 296.135 470Z" fill="#1A0940"/>
<path d="M457.377 665.051C457.377 665.051 456.517 673.784 454.306 675.387C452.095 676.99 449.147 682.923 450.621 686.13C452.095 689.337 458.286 688.214 458.286 688.214C458.286 688.214 461.971 684.847 462.303 677.752C462.635 670.657 464.846 667.05 464.846 667.05L457.377 665.051Z" fill="#FFDD9E"/>
<path d="M492.385 668.539C492.385 668.539 493.082 677.351 492.516 680.214C492.213 681.748 490.526 684.904 491.3 686.347C492.074 687.79 492.958 688.151 492.958 688.151L515.4 688.512C515.4 688.512 515.351 685.682 504.677 682.62C503.319 682.23 501.841 680.894 500.636 679.554C499.196 677.954 499.07 670.194 499.07 670.194L492.385 668.539Z" fill="#FFDD9E"/>
<path d="M508.409 551.412C508.409 551.412 510.969 565.719 509.288 575.098C507.607 584.477 500.574 671.879 500.574 671.879L489.878 671.994C489.878 671.994 487.914 636.21 488.25 631.159C488.586 626.109 490.924 618.312 490.924 618.312L491.137 587.724L502.449 549.204L508.409 551.412Z" fill="#65B32E"/>
<path d="M482.062 548.404C482.062 548.404 475.003 558.866 473.323 567.523C471.642 576.181 474.557 602.788 471.324 614.134C469.574 620.276 461.033 629.023 460.025 636.96C459.017 644.896 454.794 666.638 454.794 666.638L465.929 668.171L486.754 616.252L503.089 569.325L507.273 545.157L482.062 548.404Z" fill="#8EC156"/>
<path d="M461.387 682.849C456.569 683.726 453.363 680.913 451.695 678.807C450.47 681.192 449.72 684.17 450.621 686.13C452.095 689.337 458.286 688.214 458.286 688.214C458.286 688.214 460.194 686.47 461.387 682.849Z" fill="#1A0940"/>
<path d="M504.677 682.619C504.292 682.509 503.897 682.322 503.502 682.081C498.198 683.439 494.277 682.516 492.084 681.633C491.518 683.233 490.734 685.12 490.903 686.332C491.108 687.801 491.763 688.332 491.763 688.332L515.401 688.511C515.4 688.512 515.352 685.682 504.677 682.619Z" fill="#1A0940"/>
<path d="M538.563 576.441C538.563 576.441 537.505 575.306 537.183 574.902C536.805 574.429 535.785 572.925 535.785 572.925C535.785 572.925 532.48 567.524 532.905 567.319C533.33 567.113 534.422 567.733 534.744 567.996C535.066 568.259 535.47 568.538 535.792 568.801C536.114 569.065 536.579 569.048 536.939 568.679C537.299 568.31 536.244 566.986 535.787 566.599C534.362 565.393 529.898 562.92 529.437 562.638C528.892 562.305 524.909 551.911 523.257 548.454H523.259C520.726 542.718 518.414 536.699 518.149 536.091L514.959 509.54L504.601 506.845C504.601 506.845 507.721 536.358 508.048 537.817C508.204 538.511 515.121 551.364 515.126 551.362C518.937 557.482 522.31 562.866 522.928 563.919C522.928 563.919 523.919 567.549 524.411 569.896C524.903 572.243 526.315 574.215 526.556 574.854C526.591 574.948 527.758 576.999 529.594 579.256C531.176 581.201 530.209 578.714 530.209 578.714C530.209 578.714 527.848 574.698 528.209 574.575C528.487 574.48 529.594 576.808 531.322 578.979C531.766 579.537 532.207 580.086 532.615 580.588C533.688 581.904 534.814 581.623 533.914 580.068C533.596 579.519 533.046 578.619 532.561 578.034C532.038 577.401 531.764 576.652 531.407 576.053C530.698 574.864 530.165 574.006 530.231 574.004C530.316 574.001 530.344 573.666 530.835 574.243C531.424 574.938 532.345 576.689 533.292 577.644C533.829 578.185 534.881 579.384 534.881 579.384C534.881 579.384 536.802 581.143 536.93 581.06C537.624 580.612 536.614 578.964 535.787 578.323C535.474 577.647 534.33 576.416 534.33 576.416C534.33 576.416 532.585 573.411 533.012 573.158C533.363 572.95 538.95 579.341 539.614 578.844C540.155 578.438 538.563 576.441 538.563 576.441Z" fill="#FFDD9E"/>
<path d="M488.038 455.724C486.544 459.811 482.645 460.382 478.678 462.187C476.015 463.399 475.139 468.306 476.04 471.727C478.323 480.392 471.133 477.756 466.253 482.426C454.498 493.674 473.945 504.249 476.724 506.03C479.503 507.812 489.959 511.181 491.809 511.446C497.384 512.245 504.633 509.263 509.244 502.842C513.854 496.421 509.841 491.797 510.568 487.613C511.296 483.429 516.492 483.643 516.193 475.309C515.869 466.293 513.083 458.988 509.047 455.23C502.369 449.012 492.867 450.27 489.836 453.097C488.932 453.942 488.364 454.832 488.038 455.724Z" fill="#F47458"/>
<path d="M506.139 489.141C506.139 489.141 509.226 490.565 513.406 499.021C517.299 506.897 517.937 525.202 517.937 525.202C517.937 525.202 511.743 527.17 508.187 526.492C504.631 525.815 506.139 489.141 506.139 489.141Z" fill="#0095D4"/>
<path d="M494.451 486.489C494.451 486.489 492.386 486.661 481.891 488.898C480.185 489.262 477.504 491.221 476.471 493.056C471.105 502.596 466.383 519.68 466.383 519.68C466.383 519.68 475.149 522.548 478.197 522.548L481.805 511.18C481.805 511.18 485.907 535.161 484.214 539.225C482.521 543.289 478.278 553.592 478.278 553.592C478.278 553.592 478.346 555.789 494.371 557.476C500.806 558.154 508.818 556.776 508.818 556.776C508.818 556.776 507.361 541.203 508.655 534.435C510.763 523.41 514.872 510.21 515.082 508.531C515.421 505.821 509.177 490.49 505.951 489.043C505.119 488.67 503.737 487.894 502.51 487.609C498.794 486.745 494.451 486.489 494.451 486.489Z" fill="#A3C8EC"/>
<path d="M495.849 475.623C495.849 475.623 495.513 483.296 494.538 486.122C493.562 488.947 496.587 499.195 502.704 500.69C508.217 502.038 504.239 492.464 503.474 488.385C503.39 487.939 504.459 473.73 504.459 473.73L495.849 475.623Z" fill="#FFDD9E"/>
<path d="M504.049 478.194C504.528 475.771 504.975 473.761 504.975 473.761L495.849 475.622C495.849 475.622 495.78 477.191 495.615 479.172C499.037 480.754 501.96 480.047 504.049 478.194Z" fill="#FBBB20"/>
<path d="M498.609 454.745C498.609 454.745 495.025 455.744 492.958 459.272C490.891 462.8 489.86 472.933 497.468 477.256C505.075 481.58 510.475 474.652 510.245 468.172C510.015 461.692 508.194 453.119 498.609 454.745Z" fill="#FFDD9E"/>
<path d="M492.557 471.335C493.677 470.916 494.083 469.235 493.464 467.578C492.845 465.922 491.435 464.918 490.316 465.336C489.196 465.754 488.791 467.436 489.41 469.093C490.028 470.749 491.438 471.753 492.557 471.335Z" fill="#FFDD9E"/>
<path d="M509.168 557.532L483.015 553.173L488.636 516.812L516.172 522.212L509.168 557.532Z" fill="#1A0940"/>
<path d="M513.096 537.545C513.058 537.391 510.889 537.988 509.397 537.345C509.099 537.216 510.43 536.491 510.637 536.241C510.664 536.207 513.254 535.194 513.254 534.162C513.254 533.13 511.146 533.388 511.146 533.388C511.146 533.388 505.038 534.893 504.092 535.539C503.146 536.184 502.698 536.718 502.632 536.782C502.266 536.823 501.954 536.843 501.726 536.83C496.439 536.498 488.239 533.697 475.789 529.203L477.073 522.464C474.324 522.101 469.668 520.713 467.526 520.045C466.65 525.205 464.868 534.102 465.639 536.014C466.179 537.354 472.802 539.464 480.233 541.494C489.699 544.083 492.324 544.02 500.782 545.047C503.346 545.348 506.669 546.789 507.986 547.051C509.944 547.441 510.59 547.792 511.779 546.953C512.782 546.245 513.096 544.088 513.213 542.738C513.433 540.177 513.535 539.2 513.096 537.545Z" fill="#FFDD9E"/>
<path d="M505.093 465.694C505.157 465.386 505.314 465.078 505.619 465.065C506.005 465.048 506.368 465.496 506.431 466.065C506.494 466.635 506.232 467.111 505.847 467.128C505.159 467.159 504.987 466.205 505.093 465.694Z" fill="#1A0940"/>
<path d="M498.481 465.694C498.545 465.386 498.702 465.078 499.007 465.065C499.393 465.048 499.756 465.496 499.819 466.065C499.882 466.635 499.62 467.111 499.235 467.128C498.547 467.159 498.375 466.205 498.481 465.694Z" fill="#1A0940"/>
<path d="M504.972 469.355C504.858 469.081 504.65 468.854 504.477 468.616C504.28 468.346 504.113 468.055 503.97 467.755C503.682 467.15 503.517 466.507 503.457 465.849C503.441 465.669 503.23 465.549 503.069 465.573C502.879 465.601 502.797 465.774 502.813 465.952C502.914 467.055 503.326 468.127 503.988 469.036C504.243 469.386 504.615 469.764 504.249 470.149C503.883 470.534 503.256 470.43 502.77 470.369C502.348 470.315 502.304 470.974 502.726 471.028C503.358 471.108 504.036 471.159 504.563 470.77C504.998 470.448 505.194 469.888 504.972 469.355Z" fill="#EE7225"/>
<path d="M500.04 472.054C500.891 472.939 502.177 473.375 503.39 473.148C503.587 473.111 503.79 473.202 503.846 473.407C503.896 473.588 503.785 473.826 503.587 473.863C502.114 474.138 500.559 473.663 499.516 472.578C499.185 472.235 499.708 471.71 500.04 472.054Z" fill="#EE7225"/>
<path d="M504.837 462.315C504.982 462.245 505.131 462.249 505.268 462.268C506.18 462.394 506.848 463.186 506.971 464.223C506.916 464.081 506.85 463.949 506.751 463.847C506.745 463.841 506.738 463.838 506.732 463.833C506.678 463.764 506.618 463.703 506.551 463.653C506.303 463.469 505.99 463.398 505.678 463.341C505.367 463.283 505.048 463.235 504.776 463.09C504.645 463.02 504.516 462.901 504.535 462.715C504.552 462.546 504.692 462.385 504.837 462.315Z" fill="#1A0940"/>
<path d="M500.203 462.053C500.07 461.95 499.924 461.919 499.786 461.905C498.872 461.813 498.103 462.433 497.836 463.425C497.91 463.298 497.994 463.184 498.106 463.107C498.113 463.102 498.12 463.101 498.126 463.097C498.188 463.043 498.256 462.996 498.33 462.963C498.6 462.84 498.918 462.845 499.232 462.862C499.546 462.879 499.867 462.907 500.154 462.828C500.293 462.79 500.436 462.704 500.444 462.516C500.451 462.348 500.336 462.156 500.203 462.053Z" fill="#1A0940"/>
<path d="M502.43 453.172C502.43 453.172 500.857 458.568 498.875 460.755C496.759 463.089 494.879 465.352 491.462 465.352L490.25 454.543L502.43 453.172Z" fill="#F47458"/>
<path d="M501.25 454.544C501.25 454.544 502.557 457.695 504.188 459.263C506.001 461.006 507.748 461.897 510.084 461.897L507.274 454.819L501.25 454.544Z" fill="#F47458"/>
<path d="M539.574 578.029C540.01 579.015 539.651 580.439 536.625 581.215C533.844 581.928 532.032 581.235 530.284 579.954C529.72 579.54 529.399 578.979 528.872 578.337C526.663 575.642 526.833 571.965 526.833 571.965L533.125 570.173C533.125 570.173 535.312 573.041 537.166 575.256C538.244 576.542 539.196 577.175 539.574 578.029Z" fill="#FFDD9E"/>
</svg>
