<svg width="181" height="72" viewBox="0 0 181 72" fill="none" xmlns="http://www.w3.org/2000/svg">
<g clip-path="url(#clip0)">
<path d="M18.1087 36.0009L8.71783 41.4213L0 56.5209L35.5444 36.0009H18.1087Z" fill="#812C92"/>
<path d="M44.9335 20.5219L35.5426 25.9423L26.8247 41.0419L62.3691 20.5219H44.9335Z" fill="#F80140"/>
<path d="M35.5444 15.0996L26.8266 0V30.9582V41.0418V72L35.5444 56.9022V15.0996Z" fill="#FFB316"/>
<path d="M26.8266 0L35.5444 15.0996L44.9353 20.52H62.3692L26.8266 0Z" fill="#FE5A12"/>
<path d="M26.8266 30.9581V72L35.5444 56.9022V46.0577L26.8266 30.9581Z" fill="#59B224"/>
<path d="M44.9335 51.4781L35.5426 56.9004L26.8247 72L62.3691 51.4781H44.9335Z" fill="#176421"/>
<path d="M0 15.479V56.519L8.71783 41.4213V30.5786L0 15.479Z" fill="#483997"/>
<path d="M26.8266 30.9581L26.8337 30.9724L0.00177002 15.4808L8.7196 30.5786L44.9353 51.4781H62.3692L26.8266 30.9581Z" fill="#3787BC"/>
<path d="M165.712 42.7209H166.836V44.6167H167.876C168.365 44.6167 168.766 44.6793 169.087 44.8011C169.405 44.921 169.659 45.0839 169.853 45.2844C170.044 45.4867 170.18 45.7194 170.261 45.9807C170.34 46.2457 170.381 46.516 170.381 46.797C170.381 47.0781 170.334 47.352 170.245 47.6187C170.157 47.8872 170.012 48.1253 169.81 48.3347C169.609 48.5478 169.341 48.7178 169.002 48.8503C168.666 48.981 168.247 49.0454 167.751 49.0454H165.712V42.7209ZM166.836 45.6711V47.991H167.653C168.215 47.991 168.61 47.8926 168.84 47.6957C169.07 47.5005 169.185 47.2141 169.185 46.84C169.185 46.4551 169.067 46.1651 168.832 45.9664C168.598 45.7713 168.211 45.6711 167.667 45.6711H166.836ZM171.587 42.7209H172.712V49.0454H171.587V42.7209Z" fill="#07002B"/>
<path d="M178.098 45.7713L180.502 49.0454H179.124L177.267 46.4873L175.384 49.0454H174.077L176.467 45.8268L174.217 42.7209H175.595L177.31 45.1107L179.052 42.7209H180.362L178.098 45.7713Z" fill="#07002B"/>
<path d="M80.256 48.1325C79.9839 48.478 79.6312 48.7411 79.2016 48.9183C78.7702 49.0973 78.3119 49.1869 77.8232 49.1869C77.3166 49.1869 76.8584 49.1081 76.4466 48.9541C76.0331 48.8002 75.6769 48.5764 75.3779 48.2864C75.0772 47.9964 74.8463 47.6474 74.6816 47.2392C74.5169 46.8311 74.4363 46.38 74.4363 45.8823C74.4363 45.4222 74.5151 44.9926 74.6744 44.5898C74.8338 44.1871 75.0575 43.838 75.3421 43.5426C75.6286 43.2473 75.9669 43.0128 76.3553 42.8391C76.7438 42.6655 77.1716 42.5778 77.6406 42.5778C78.1472 42.5778 78.6145 42.6422 79.0405 42.7693C79.4665 42.8946 79.8299 43.1076 80.1289 43.4084L79.6098 44.2927C79.3377 44.051 79.0494 43.8792 78.7451 43.7807C78.439 43.6823 78.124 43.6321 77.7946 43.6321C77.5135 43.6321 77.2414 43.6876 76.9801 43.795C76.7169 43.9042 76.486 44.0564 76.2837 44.2515C76.0815 44.4484 75.9239 44.6847 75.8058 44.9622C75.6894 45.2397 75.6303 45.5458 75.6303 45.8823C75.6303 46.2296 75.6912 46.5411 75.8129 46.8185C75.9347 47.0942 76.0994 47.3305 76.3052 47.5274C76.5111 47.7225 76.7527 47.8729 77.0302 47.9767C77.3059 48.0806 77.5995 48.1325 77.9074 48.1325C78.2922 48.1325 78.6377 48.0573 78.942 47.9069C79.2464 47.7566 79.5059 47.5614 79.7207 47.3162L80.256 48.1325Z" fill="#07002B"/>
<path d="M81.7167 49.0454V42.7209H82.8409V47.4307L86.4963 42.7209H87.6223V49.0454H86.4963V44.3356L82.8409 49.0454H81.7167Z" fill="#07002B"/>
<path d="M95.0583 48.1325C94.7863 48.478 94.4336 48.7411 94.004 48.9183C93.5726 49.0973 93.1125 49.1869 92.6256 49.1869C92.119 49.1869 91.6607 49.1081 91.249 48.9541C90.8355 48.8002 90.4793 48.5764 90.1785 48.2864C89.8796 47.9964 89.6487 47.6474 89.484 47.2392C89.3193 46.8311 89.2387 46.38 89.2387 45.8823C89.2387 45.4222 89.3175 44.9926 89.4768 44.5898C89.6361 44.1871 89.8581 43.838 90.1445 43.5426C90.4309 43.2473 90.7693 43.0128 91.1559 42.8391C91.5462 42.6655 91.974 42.5778 92.443 42.5778C92.9478 42.5778 93.415 42.6422 93.8411 42.7693C94.2689 42.8946 94.6323 43.1076 94.933 43.4084L94.4121 44.2927C94.1382 44.051 93.85 43.8792 93.5457 43.7807C93.2414 43.6823 92.9263 43.6321 92.5987 43.6321C92.3177 43.6321 92.0438 43.6876 91.7825 43.795C91.5193 43.9042 91.2884 44.0564 91.0861 44.2515C90.8838 44.4484 90.7263 44.6847 90.6082 44.9622C90.4918 45.2397 90.4327 45.5458 90.4327 45.8823C90.4327 46.2296 90.4936 46.5411 90.6153 46.8185C90.737 47.0942 90.9017 47.3305 91.1076 47.5274C91.3135 47.7225 91.5551 47.8729 91.8308 47.9767C92.1083 48.0806 92.4018 48.1325 92.7097 48.1325C93.0928 48.1325 93.4383 48.0573 93.7444 47.9069C94.0487 47.7566 94.3083 47.5614 94.5231 47.3162L95.0583 48.1325Z" fill="#07002B"/>
<path d="M95.6348 42.7209H101.399V43.8451H99.079V49.0454H97.9548V43.8451H95.6348V42.7209Z" fill="#07002B"/>
<path d="M107.752 48.3562C107.442 48.6373 107.075 48.8467 106.648 48.981C106.222 49.117 105.797 49.1869 105.377 49.1869C104.859 49.1869 104.396 49.1081 103.977 48.9541C103.56 48.8002 103.205 48.5764 102.91 48.2864C102.614 47.9964 102.387 47.6456 102.228 47.2392C102.068 46.8311 101.988 46.3782 101.988 45.8823C101.988 45.4222 102.061 44.9926 102.206 44.5881C102.351 44.1871 102.561 43.8362 102.84 43.5408C103.116 43.2455 103.454 43.011 103.859 42.8391C104.261 42.6655 104.725 42.5778 105.249 42.5778C105.652 42.5778 106.035 42.6476 106.395 42.789C106.755 42.9286 107.068 43.1273 107.33 43.3797C107.593 43.6321 107.8 43.9382 107.956 44.2927C108.11 44.6489 108.189 45.0427 108.189 45.4742C108.189 45.7642 108.164 46.0184 108.117 46.2332H103.254C103.3 46.8329 103.524 47.3001 103.928 47.6312C104.331 47.9642 104.843 48.1325 105.459 48.1325C105.872 48.1325 106.248 48.068 106.585 47.9409C106.923 47.8156 107.194 47.6581 107.399 47.4719L107.752 48.3562ZM105.194 43.6321C104.612 43.6321 104.149 43.7932 103.801 44.1119C103.454 44.4287 103.248 44.8333 103.184 45.3184H107.022C106.993 44.7939 106.819 44.3822 106.499 44.0832C106.182 43.7825 105.747 43.6321 105.194 43.6321Z" fill="#07002B"/>
<path d="M109.721 42.7209H110.745L113.18 45.8554L115.485 42.7209H116.482V49.0454H115.356V44.4359L113.165 47.3734H113.122L110.845 44.4359V49.0454H109.721V42.7209Z" fill="#07002B"/>
<path d="M118.563 43.156C118.842 42.977 119.166 42.8373 119.529 42.7335C119.894 42.6315 120.272 42.5778 120.664 42.5778C121.561 42.5778 122.189 42.8033 122.549 43.2526C122.909 43.7037 123.088 44.341 123.088 45.1663V49.0454H122.034V48.2309C121.847 48.4726 121.593 48.6874 121.275 48.87C120.958 49.0526 120.535 49.1439 120.009 49.1439C119.429 49.1439 118.96 48.9738 118.604 48.6301C118.247 48.29 118.07 47.8085 118.07 47.1909C118.07 46.8722 118.129 46.5858 118.253 46.3316C118.375 46.081 118.541 45.868 118.75 45.6997C118.962 45.5314 119.216 45.4026 119.511 45.3131C119.807 45.2235 120.123 45.1806 120.46 45.1806C120.703 45.1806 120.972 45.2074 121.267 45.2629C121.563 45.3202 121.819 45.4276 122.034 45.5869C122.034 45.2969 122.017 45.0284 121.985 44.7796C121.951 44.5308 121.887 44.3195 121.788 44.1459C121.69 43.974 121.545 43.838 121.352 43.7395C121.16 43.6393 120.909 43.591 120.6 43.591C120.208 43.591 119.882 43.6357 119.622 43.7234C119.364 43.8147 119.11 43.9221 118.858 44.0564L118.563 43.156ZM120.406 48.1325C120.816 48.1325 121.153 48.043 121.412 47.8658C121.668 47.6867 121.876 47.5042 122.035 47.3162V46.516C121.642 46.2332 121.169 46.0935 120.616 46.0935C120.448 46.0935 120.281 46.115 120.118 46.1562C119.953 46.1992 119.808 46.2618 119.681 46.3459C119.554 46.4319 119.454 46.5375 119.379 46.67C119.304 46.8006 119.266 46.9564 119.266 47.1336C119.266 47.4325 119.364 47.6742 119.561 47.8586C119.757 48.0394 120.039 48.1325 120.406 48.1325Z" fill="#07002B"/>
<path d="M133.648 39.9427C133.451 40.2023 133.238 40.3849 133.009 40.4869C132.778 40.5889 132.529 40.6677 132.264 40.725C131.996 40.7805 131.709 40.8342 131.405 40.8843C131.099 40.938 130.775 41.0436 130.427 41.2029C130.127 41.3336 129.883 41.5144 129.69 41.74C129.498 41.9655 129.341 42.2179 129.219 42.4954C129.097 42.7729 129.006 43.0647 128.943 43.3708C128.884 43.6751 128.845 43.974 128.825 44.2658H128.854C128.956 44.0421 129.094 43.8398 129.269 43.6608C129.443 43.4853 129.638 43.3296 129.858 43.1971C130.078 43.0664 130.316 42.9644 130.569 42.8946C130.821 42.8248 131.084 42.7908 131.356 42.7908C131.806 42.7908 132.214 42.866 132.579 43.0145C132.944 43.1649 133.254 43.3779 133.506 43.6536C133.761 43.9329 133.954 44.2622 134.09 44.6453C134.226 45.0302 134.294 45.4616 134.294 45.9396C134.294 46.3799 134.215 46.797 134.056 47.1909C133.895 47.5847 133.673 47.9284 133.388 48.2237C133.102 48.5191 132.758 48.7536 132.362 48.9273C131.963 49.0991 131.525 49.1868 131.047 49.1868C130.531 49.1868 130.068 49.0955 129.656 48.9129C129.242 48.7286 128.891 48.4708 128.601 48.1325C128.311 47.7959 128.088 47.3824 127.934 46.8955C127.778 46.4068 127.701 45.8608 127.701 45.2504C127.701 44.7814 127.73 44.2927 127.785 43.7825C127.841 43.2705 127.955 42.78 128.122 42.311C128.292 41.8438 128.528 41.4195 128.832 41.04C129.137 40.6605 129.541 40.3616 130.05 40.1468C130.415 39.9875 130.746 39.8836 131.047 39.8299C131.346 39.7798 131.616 39.7333 131.854 39.6903C132.094 39.6473 132.312 39.5883 132.509 39.5077C132.706 39.4289 132.885 39.2804 133.043 39.0656L133.648 39.9427ZM128.895 45.4616C128.895 45.8733 128.947 46.2439 129.051 46.5715C129.155 46.9009 129.3 47.1783 129.486 47.4075C129.674 47.6384 129.899 47.8156 130.161 47.9427C130.424 48.068 130.71 48.1325 131.02 48.1325C131.328 48.1325 131.609 48.0752 131.861 47.9624C132.115 47.8514 132.334 47.6992 132.515 47.5077C132.699 47.3144 132.84 47.0888 132.944 46.8328C133.046 46.5733 133.1 46.2958 133.1 45.9951C133.1 45.3775 132.926 44.8637 132.579 44.4556C132.232 44.0492 131.731 43.8451 131.075 43.8451C130.775 43.8451 130.503 43.8917 130.261 43.9848C130.016 44.0796 129.801 44.2014 129.611 44.35C129.425 44.5003 129.271 44.6722 129.149 44.8637C129.026 45.0553 128.942 45.2557 128.895 45.4616Z" fill="#07002B"/>
<path d="M135.911 42.7209H137.035V44.6167H138.075C138.562 44.6167 138.964 44.6793 139.285 44.8011C139.602 44.921 139.858 45.0839 140.049 45.2844C140.243 45.4867 140.379 45.7194 140.459 45.9807C140.538 46.2457 140.577 46.516 140.577 46.797C140.577 47.0781 140.533 47.352 140.443 47.6187C140.354 47.8872 140.209 48.1253 140.008 48.3347C139.808 48.5478 139.537 48.7178 139.201 48.8503C138.862 48.981 138.445 49.0454 137.948 49.0454H135.911V42.7209ZM137.035 45.6711V47.991H137.851C138.411 47.991 138.809 47.8926 139.038 47.6957C139.269 47.5005 139.382 47.2141 139.382 46.84C139.382 46.4551 139.265 46.1651 139.031 45.9664C138.796 45.7713 138.408 45.6711 137.865 45.6711H137.035ZM141.786 42.7209H142.91V49.0454H141.786V42.7209Z" fill="#07002B"/>
<path d="M150.333 48.1325C150.061 48.478 149.709 48.7411 149.279 48.9183C148.848 49.0973 148.388 49.1869 147.901 49.1869C147.394 49.1869 146.936 49.1081 146.524 48.9541C146.111 48.8002 145.754 48.5764 145.454 48.2864C145.155 47.9964 144.924 47.6474 144.759 47.2392C144.596 46.8311 144.514 46.38 144.514 45.8823C144.514 45.4222 144.592 44.9926 144.752 44.5898C144.911 44.1871 145.135 43.838 145.42 43.5426C145.704 43.2473 146.044 43.0128 146.431 42.8391C146.821 42.6655 147.249 42.5778 147.718 42.5778C148.223 42.5778 148.69 42.6422 149.116 42.7693C149.544 42.8946 149.907 43.1076 150.208 43.4084L149.687 44.2927C149.413 44.051 149.125 43.8792 148.821 43.7807C148.516 43.6823 148.201 43.6321 147.874 43.6321C147.593 43.6321 147.319 43.6876 147.057 43.795C146.794 43.9042 146.563 44.0564 146.361 44.2515C146.161 44.4484 146.001 44.6847 145.885 44.9622C145.765 45.2397 145.708 45.5458 145.708 45.8823C145.708 46.2296 145.769 46.5411 145.89 46.8185C146.012 47.0942 146.177 47.3305 146.383 47.5274C146.588 47.7225 146.83 47.8729 147.106 47.9767C147.383 48.0806 147.677 48.1325 147.985 48.1325C148.368 48.1325 148.713 48.0573 149.019 47.9069C149.324 47.7566 149.583 47.5614 149.798 47.3162L150.333 48.1325Z" fill="#07002B"/>
<path d="M150.91 42.7209H156.674V43.8451H154.354V49.0454H153.23V43.8451H150.91V42.7209Z" fill="#07002B"/>
<path d="M157.897 42.7192H159.021V43.4639C159.237 43.2115 159.54 43.0002 159.927 42.832C160.317 42.6619 160.732 42.5778 161.173 42.5778C161.622 42.5778 162.026 42.6583 162.388 42.8176C162.75 42.977 163.054 43.1971 163.308 43.4782C163.562 43.7592 163.756 44.0976 163.892 44.4896C164.028 44.8834 164.094 45.3148 164.094 45.7838C164.094 46.2618 164.019 46.7093 163.865 47.1264C163.709 47.5435 163.487 47.9051 163.197 48.2094C162.904 48.5138 162.558 48.7518 162.155 48.9255C161.753 49.0991 161.303 49.1868 160.807 49.1868C160.469 49.1868 160.141 49.151 159.83 49.0794C159.515 49.0096 159.245 48.8986 159.021 48.7483V51.8577H157.897V42.7192ZM160.849 43.6321C160.473 43.6321 160.125 43.7181 159.801 43.8863C159.477 44.0546 159.218 44.2623 159.021 44.5039V47.6384C159.302 47.8264 159.578 47.9552 159.85 48.0251C160.124 48.0967 160.408 48.1325 160.707 48.1325C161.045 48.1325 161.35 48.0716 161.622 47.9552C161.892 47.8389 162.123 47.6796 162.309 47.4773C162.497 47.2768 162.642 47.0333 162.746 46.7541C162.848 46.473 162.9 46.1633 162.9 45.8268C162.9 45.5082 162.855 45.2146 162.766 44.9461C162.678 44.6793 162.544 44.4484 162.367 44.2515C162.189 44.0546 161.973 43.9024 161.72 43.795C161.468 43.6858 161.176 43.6321 160.849 43.6321Z" fill="#07002B"/>
<path d="M79.4254 56.8646H75.9812V62.1364H74.857V55.8102H80.5496V62.1364H79.4254V56.8646Z" fill="#07002B"/>
<path d="M86.9188 56.9345H84.6972L84.6274 58.0032C84.5523 58.9036 84.4395 59.6286 84.2909 60.1818C84.1387 60.7349 83.9561 61.1609 83.7413 61.4617C83.5247 61.7606 83.2777 61.9629 82.9967 62.065C82.7156 62.1688 82.4095 62.2207 82.0819 62.2207L81.9978 61.1251C82.1195 61.1341 82.2591 61.1037 82.4202 61.0321C82.5796 60.9622 82.7335 60.8083 82.8839 60.5684C83.0342 60.3285 83.1703 59.9884 83.292 59.5427C83.4137 59.0969 83.4925 58.5098 83.5301 57.7794L83.6429 55.8103H88.0429V62.1366H86.9188V56.9345Z" fill="#07002B"/>
<path d="M90.1105 56.247C90.3897 56.068 90.712 55.9284 91.0771 55.8246C91.4405 55.7225 91.8201 55.6688 92.2121 55.6688C93.1072 55.6688 93.7373 55.8944 94.0953 56.3437C94.4569 56.7948 94.6359 57.4321 94.6359 58.2573V62.1383H93.5815V61.322C93.3954 61.5655 93.1412 61.7785 92.8225 61.9611C92.5057 62.1454 92.0814 62.235 91.5587 62.235C90.9769 62.235 90.5079 62.0649 90.1516 61.7212C89.7954 61.3811 89.6182 60.8995 89.6182 60.2819C89.6182 59.9633 89.6791 59.6769 89.8008 59.4245C89.9225 59.1721 90.0872 58.959 90.3002 58.7926C90.5097 58.6225 90.7639 58.4936 91.0592 58.4041C91.3546 58.3164 91.6715 58.2716 92.008 58.2716C92.2515 58.2716 92.52 58.2985 92.8154 58.354C93.1107 58.4131 93.3667 58.5187 93.5815 58.678C93.5815 58.388 93.5654 58.1195 93.5332 57.8707C93.4992 57.6218 93.4348 57.4106 93.3363 57.237C93.2378 57.0651 93.0928 56.9291 92.8995 56.8306C92.708 56.7304 92.4573 56.682 92.1476 56.682C91.7556 56.682 91.428 56.7268 91.1702 56.8163C90.9125 56.9058 90.6583 57.015 90.4041 57.1475L90.1105 56.247ZM91.9507 61.2235C92.3625 61.2235 92.699 61.134 92.9568 60.9568C93.2146 60.7778 93.4222 60.5952 93.5815 60.4073V59.6071C93.1877 59.3242 92.7151 59.1846 92.162 59.1846C91.9937 59.1846 91.8272 59.2061 91.6643 59.2473C91.4996 59.2902 91.3546 59.3529 91.2275 59.437C91.1004 59.5229 91.0002 59.6286 90.925 59.7628C90.8498 59.8935 90.8122 60.0474 90.8122 60.2247C90.8122 60.5254 90.9107 60.7671 91.1076 60.9497C91.3045 61.1322 91.5855 61.2235 91.9507 61.2235Z" fill="#07002B"/>
<path d="M95.7333 55.8102H101.497V56.9344H99.1774V62.1364H98.0514V56.9344H95.7333V55.8102Z" fill="#07002B"/>
<path d="M107.851 61.4473C107.541 61.7284 107.174 61.9378 106.746 62.0721C106.32 62.2081 105.896 62.2779 105.475 62.2779C104.958 62.2779 104.494 62.2009 104.075 62.0452C103.658 61.8913 103.304 61.6693 103.008 61.3775C102.713 61.0875 102.486 60.7366 102.326 60.3303C102.167 59.9221 102.086 59.4692 102.086 58.9734C102.086 58.5151 102.16 58.0837 102.305 57.6791C102.45 57.2781 102.659 56.9273 102.938 56.6319C103.214 56.3365 103.552 56.1038 103.957 55.9302C104.36 55.7565 104.823 55.6688 105.348 55.6688C105.751 55.6688 106.134 55.7404 106.494 55.8801C106.853 56.0197 107.167 56.2184 107.428 56.4708C107.691 56.7232 107.899 57.0293 108.055 57.3855C108.209 57.74 108.287 58.1338 108.287 58.5652C108.287 58.8552 108.262 59.1094 108.216 59.3242H103.352C103.398 59.9239 103.622 60.3911 104.027 60.7223C104.43 61.0571 104.942 61.2235 105.557 61.2235C105.971 61.2235 106.347 61.1609 106.683 61.032C107.022 60.9067 107.292 60.7492 107.498 60.563L107.851 61.4473ZM105.292 56.7232C104.711 56.7232 104.247 56.8843 103.9 57.203C103.552 57.5198 103.347 57.9244 103.282 58.4113H107.12C107.092 57.885 106.918 57.475 106.597 57.1743C106.281 56.8736 105.846 56.7232 105.292 56.7232Z" fill="#07002B"/>
<path d="M108.835 55.8102H110.255L112.421 58.8605L110.101 62.1364H108.722L111.155 58.8605L108.835 55.8102ZM112.702 55.8102H113.826V62.1364H112.702V55.8102ZM115.373 58.8605L117.846 62.1364H116.454L114.107 58.8605L116.285 55.8102H117.676L115.373 58.8605Z" fill="#07002B"/>
<path d="M124.076 61.4473C123.765 61.7284 123.398 61.9378 122.97 62.0721C122.544 62.2081 122.121 62.2779 121.699 62.2779C121.183 62.2779 120.718 62.2009 120.299 62.0452C119.884 61.8913 119.527 61.6693 119.232 61.3775C118.937 61.0875 118.709 60.7366 118.55 60.3303C118.391 59.9221 118.312 59.4692 118.312 58.9734C118.312 58.5151 118.384 58.0837 118.529 57.6791C118.674 57.2781 118.885 56.9273 119.162 56.6319C119.438 56.3365 119.776 56.1038 120.181 55.9302C120.584 55.7565 121.047 55.6688 121.572 55.6688C121.974 55.6688 122.358 55.7404 122.717 55.8801C123.079 56.0197 123.39 56.2184 123.652 56.4708C123.915 56.7232 124.124 57.0293 124.278 57.3855C124.432 57.74 124.511 58.1338 124.511 58.5652C124.511 58.8552 124.486 59.1094 124.439 59.3242H119.576C119.622 59.9239 119.848 60.3911 120.251 60.7223C120.655 61.0571 121.165 61.2235 121.783 61.2235C122.196 61.2235 122.571 61.1609 122.907 61.032C123.245 60.9067 123.516 60.7492 123.722 60.563L124.076 61.4473ZM121.516 56.7232C120.936 56.7232 120.471 56.8843 120.125 57.203C119.776 57.5198 119.57 57.9244 119.506 58.4113H123.344C123.315 57.885 123.142 57.475 122.823 57.1743C122.504 56.8736 122.069 56.7232 121.516 56.7232Z" fill="#07002B"/>
<path d="M126.042 62.1383V55.8121H127.166V60.5201L130.821 55.8121H131.945V62.1383H130.821V57.4286L127.166 62.1383H126.042ZM127.996 52.5756C128.052 53.3167 128.412 53.6854 129.078 53.6854C129.706 53.6854 130.048 53.3167 130.105 52.5756H131.16C131.16 52.8566 131.109 53.118 131.013 53.3578C130.912 53.5941 130.773 53.8018 130.59 53.9736C130.408 54.1491 130.189 54.2869 129.935 54.3907C129.683 54.4928 129.396 54.5447 129.078 54.5447C128.732 54.5447 128.424 54.4928 128.158 54.3907C127.889 54.2869 127.667 54.1491 127.49 53.9736C127.311 53.8018 127.177 53.5941 127.082 53.3578C126.989 53.118 126.94 52.8566 126.94 52.5756H127.996Z" fill="#07002B"/>
<path d="M136.091 16.2202V34.6906H129.6V21.7141H123.351V34.6906H116.862V16.2202H136.091Z" fill="#07002B"/>
<path d="M113.665 26.0443C113.761 31.4093 109.426 35.2258 103.28 35.2258C97.4643 35.2258 92.563 31.7064 92.563 23.139C92.563 15.8586 97.2137 9.85992 104.091 9.74536C107.104 9.74536 113.659 9.72388 113.659 9.72388L110.623 15.1998H104.772C101.802 15.1998 99.1577 17.1976 98.7782 20.2533C100.359 18.7782 102.815 17.8868 105.357 17.8868C110.099 17.8993 113.597 21.9288 113.665 26.0443ZM107.185 26.4668C107.19 24.333 105.547 22.5428 103.314 22.5428C101.107 22.5428 99.3779 24.3509 99.4191 26.5044C99.4191 28.7688 101.435 30.3137 103.194 30.3137C105.427 30.3137 107.185 28.631 107.185 26.4668Z" fill="#07002B"/>
<path d="M87.5632 28.3768C87.5632 28.3768 85.3864 29.8393 82.4793 29.7892C80.6587 29.7892 78.217 28.2067 78.217 25.398C78.2528 22.5482 80.6713 21.0194 82.49 21.0194C85.3256 20.9281 87.5632 22.43 87.5632 22.43L89.9816 18.0693C87.8335 16.5119 85.7785 15.7046 82.8427 15.6831C76.5057 15.6831 72.1504 20.8315 72.1504 25.4034C72.1504 30.7684 76.9944 35.1953 82.8069 35.2257C85.3667 35.2687 87.9839 34.4059 90.0031 32.8109L87.5632 28.3768Z" fill="#07002B"/>
</g>
<defs>
<clipPath id="clip0">
<rect width="180.502" height="72" fill="white"/>
</clipPath>
</defs>
</svg>
