<svg width="314" height="157" viewBox="0 0 314 157" fill="none" xmlns="http://www.w3.org/2000/svg">
<g clip-path="url(#clip0)">
<path d="M275.473 135.977L240.756 122.953V121.371L274.689 134.231L290.899 91.9082L292.164 92.3922L275.473 135.977Z" fill="#FAB32D"/>
<path d="M240.776 113.878L240.992 120.192C240.988 121.38 241.486 122.465 242.598 122.883L275.081 135.104L291.531 92.15L291.114 86.947L240.776 113.878Z" fill="#FFE4B3"/>
<path d="M260.336 74.0261L291.715 85.3871L275.173 128.432L242.59 116.22C241.09 115.658 240.353 113.966 240.963 112.485L256.023 75.9321C256.719 74.2451 258.62 73.4051 260.336 74.0261Z" fill="#FAB32D"/>
<path d="M242.598 115.432V122.883L240.776 122.103V113.878" fill="#FAB32D"/>
<path d="M261.007 81.6401L257.899 89.5911L277.792 97.0851L280.93 89.0431L261.007 81.6401Z" fill="#FFE4B3"/>
<path d="M304.044 75.6302L308.332 77.5032L307.576 72.5952C305.172 73.0092 304.318 74.7712 304.044 75.6302Z" fill="#EE7225"/>
<path d="M303.275 70.3911L299.677 69.3741L299.169 73.4121L299.253 73.5381L304.043 75.6301C304.318 74.7711 305.171 73.0101 307.575 72.5951L306.719 67.0411L306.631 66.9141L303.167 66.2871L303.275 70.3911Z" fill="#FFE4B3"/>
<path d="M272.924 30.3451C275.069 30.3451 276.807 28.6066 276.807 26.4621C276.807 24.3176 275.069 22.5791 272.924 22.5791C270.78 22.5791 269.041 24.3176 269.041 26.4621C269.041 28.6066 270.78 30.3451 272.924 30.3451Z" fill="#EE7225"/>
<path d="M299.17 73.4122L299.678 69.3732L303.275 70.3912L303.167 66.2872L306.632 66.9142L280.491 29.3062L273.22 34.5022L299.17 73.4122Z" fill="#EE7225"/>
<path d="M275.357 24.7621L270.577 28.1011C269.96 28.5321 269.801 29.3761 270.218 30.0021L271.25 31.5491L278.466 26.3921L277.614 25.1661C277.102 24.4301 276.091 24.2501 275.357 24.7621Z" fill="#7DB6FD"/>
<path d="M273.22 34.5021L280.491 29.3061L278.466 26.3921L271.25 31.5491L273.22 34.5021Z" fill="#CADEF4"/>
<path d="M249.798 43.4399C250.557 43.4399 251.172 42.8247 251.172 42.0659C251.172 41.3071 250.557 40.6919 249.798 40.6919C249.039 40.6919 248.424 41.3071 248.424 42.0659C248.424 42.8247 249.039 43.4399 249.798 43.4399Z" fill="#FAEACF"/>
<path d="M229.166 45.8389C233.406 45.8389 236.843 42.4018 236.843 38.1619C236.843 33.922 233.406 30.4849 229.166 30.4849C224.926 30.4849 221.489 33.922 221.489 38.1619C221.489 42.4018 224.926 45.8389 229.166 45.8389Z" fill="#5B57A2"/>
<path d="M230.034 91.4818L225.967 91.4288L226.576 45.0948C197.576 82.4048 197.223 82.6998 197.009 82.8788L194.398 79.7598L195.703 81.3198L194.208 79.9418C195.144 78.8698 214.38 54.1608 227.082 37.8138L230.801 33.0278L230.034 91.4818Z" fill="#5B57A2"/>
<path d="M237.973 23.3889L233.948 21.6129C233.459 21.3969 232.887 21.6189 232.671 22.1079L228.24 32.1539C228.024 32.6429 228.246 33.2149 228.735 33.4309L232.76 35.2059C233.249 35.4219 233.821 35.1999 234.037 34.7109L238.468 24.6649C238.684 24.1769 238.462 23.6049 237.973 23.3889Z" fill="#5B57A2"/>
<path d="M229.166 41.4739C230.996 41.4739 232.478 39.991 232.478 38.1619C232.478 36.3327 230.996 34.8499 229.166 34.8499C227.337 34.8499 225.854 36.3327 225.854 38.1619C225.854 39.991 227.337 41.4739 229.166 41.4739Z" fill="#F3D148"/>
<path d="M196.256 81.0549L192.905 87.4829L197.009 82.8789" fill="#5B57A2"/>
<path d="M228.154 89.8679L229.855 96.9139L229.92 90.7479" fill="#5B57A2"/>
<path d="M98.7656 118.98L103.054 120.853L102.298 115.945C99.8936 116.359 99.0396 118.121 98.7656 118.98Z" fill="#EE7225"/>
<path d="M97.9976 113.741L94.3996 112.724L93.8916 116.762L93.9756 116.888L98.7656 118.98C99.0406 118.121 99.8936 116.36 102.298 115.945L101.442 110.391L101.354 110.264L97.8896 109.637L97.9976 113.741Z" fill="#FFE4B3"/>
<path d="M67.6457 73.695C69.7902 73.695 71.5287 71.9565 71.5287 69.812C71.5287 67.6674 69.7902 65.929 67.6457 65.929C65.5012 65.929 63.7627 67.6674 63.7627 69.812C63.7627 71.9565 65.5012 73.695 67.6457 73.695Z" fill="#F36B16"/>
<path d="M93.8914 116.762L94.3994 112.723L97.9974 113.741L97.8884 109.637L101.353 110.264L75.2124 72.656L67.9414 77.852L93.8914 116.762Z" fill="#EE7225"/>
<path d="M70.0784 68.112L65.2984 71.451C64.6814 71.882 64.5224 72.726 64.9394 73.352L65.9714 74.899L73.1874 69.742L72.3354 68.516C71.8244 67.78 70.8124 67.6 70.0784 68.112Z" fill="#7DB6FD"/>
<path d="M67.9417 77.8519L75.2127 72.6559L73.1877 69.7419L65.9717 74.8989L67.9417 77.8519Z" fill="#CADEF4"/>
<path d="M177.227 138.397L129.866 129.932C127.838 129.57 126.488 127.632 126.85 125.604L131.669 98.6411C132.032 96.6131 133.969 95.2631 135.997 95.6251L183.358 104.09C185.386 104.453 186.736 106.39 186.374 108.418L181.555 135.381C181.193 137.409 179.255 138.759 177.227 138.397Z" fill="#FAB32D"/>
<path d="M175.118 135.469L132.895 127.922C130.867 127.56 129.517 125.622 129.879 123.594L133.814 101.577C134.177 99.5489 136.114 98.1989 138.143 98.5609L180.366 106.108C182.394 106.47 183.744 108.408 183.382 110.436L179.447 132.454C179.084 134.481 177.146 135.831 175.118 135.469Z" fill="#007C37"/>
<path d="M170.598 132.021L162.33 130.543L161.874 133.093L170.142 134.57L170.598 132.021Z" fill="#FAEACF"/>
<path d="M139.044 105.498C139.132 105.416 139.228 105.409 139.328 105.36C139.398 105.362 139.39 105.343 139.304 105.301C139.307 105.34 139.309 105.378 139.312 105.417C139.317 105.494 139.32 105.572 139.322 105.65C139.331 105.93 139.347 106.213 139.174 106.451C139.02 106.662 138.81 106.829 138.636 107.022C138.444 107.236 138.277 107.468 138.125 107.712C138.067 107.805 138.124 107.975 138.23 108.009C138.598 108.127 138.966 108.247 139.335 108.364C139.584 108.443 139.918 108.477 140.086 108.228C140.154 108.127 140.159 107.999 140.061 107.914C139.978 107.842 139.814 107.839 139.747 107.939C139.665 108.06 139.357 107.908 139.256 107.875C138.978 107.786 138.7 107.696 138.422 107.607C138.457 107.706 138.492 107.805 138.527 107.904C138.726 107.583 138.972 107.302 139.24 107.038C139.5 106.781 139.722 106.504 139.758 106.127C139.778 105.927 139.77 105.722 139.761 105.521C139.754 105.352 139.773 105.125 139.635 105C139.368 104.756 138.913 105.013 138.702 105.21C138.613 105.293 138.644 105.452 138.727 105.524C138.829 105.609 138.956 105.579 139.044 105.498Z" fill="#FAEACF"/>
<path d="M142.225 107.216C142.781 107.36 143.359 107.412 143.932 107.378C144.052 107.371 144.144 107.253 144.133 107.136C144.122 107.013 144.011 106.927 143.891 106.935C143.356 106.967 142.823 106.912 142.303 106.778C142.186 106.748 142.065 106.846 142.045 106.958C142.022 107.084 142.108 107.186 142.225 107.216Z" fill="#FAEACF"/>
<path d="M143.012 106.547C142.979 106.99 142.946 107.433 142.913 107.876C142.904 107.992 142.965 108.118 143.093 108.134C143.203 108.149 143.342 108.078 143.351 107.954C143.384 107.511 143.417 107.068 143.45 106.625C143.459 106.509 143.398 106.383 143.27 106.367C143.161 106.353 143.021 106.423 143.012 106.547Z" fill="#FAEACF"/>
<path d="M147.277 106.816C147.474 106.641 147.57 107.087 147.564 107.209C147.552 107.467 147.412 107.698 147.232 107.875C146.821 108.277 146.22 108.418 145.719 108.672C145.569 108.748 145.5 109.008 145.7 109.082C146.135 109.242 146.569 109.407 147.005 109.563C147.195 109.631 147.406 109.692 147.602 109.607C147.793 109.524 147.911 109.347 147.897 109.138C147.879 108.852 147.435 108.892 147.453 109.179C147.453 109.175 147.428 109.199 147.397 109.204C147.346 109.212 147.284 109.19 147.237 109.175C147.086 109.127 146.938 109.066 146.789 109.011C146.49 108.901 146.191 108.79 145.891 108.68C145.885 108.817 145.878 108.953 145.872 109.09C146.559 108.741 147.405 108.55 147.823 107.837C148.007 107.523 148.074 107.112 147.929 106.769C147.786 106.431 147.347 106.161 147.021 106.451C146.931 106.531 146.891 106.654 146.966 106.761C147.029 106.85 147.186 106.896 147.277 106.816Z" fill="#FAEACF"/>
<path d="M149.706 108.013C150.11 108.142 150.525 108.23 150.946 108.276C151.062 108.289 151.188 108.221 151.204 108.096C151.219 107.983 151.148 107.851 151.024 107.838C150.603 107.792 150.188 107.704 149.784 107.575C149.673 107.539 149.54 107.647 149.526 107.755C149.508 107.887 149.586 107.975 149.706 108.013Z" fill="#FAEACF"/>
<path d="M149.77 108.986C150.184 109.115 150.609 109.203 151.04 109.25C151.156 109.263 151.282 109.195 151.298 109.07C151.313 108.957 151.242 108.825 151.118 108.812C150.687 108.765 150.262 108.677 149.848 108.548C149.736 108.513 149.604 108.619 149.59 108.728C149.573 108.859 149.651 108.949 149.77 108.986Z" fill="#FAEACF"/>
<path d="M154.117 107.739C154.2 107.619 154.31 107.562 154.449 107.522C154.516 107.503 154.585 107.493 154.654 107.485C154.696 107.48 154.737 107.476 154.779 107.473C154.8 107.471 154.82 107.47 154.841 107.469C154.892 107.469 154.882 107.463 154.81 107.452C154.788 107.421 154.767 107.39 154.745 107.359C154.846 107.553 154.916 107.771 154.965 107.984C154.989 108.088 155.006 108.194 155.018 108.3C155.028 108.381 155.055 108.491 155.003 108.562C154.96 108.621 154.883 108.657 154.819 108.688C154.721 108.735 154.622 108.78 154.526 108.832C154.315 108.947 154.128 109.091 153.951 109.253C153.862 109.334 153.892 109.496 153.976 109.567C154.077 109.653 154.201 109.623 154.29 109.542C154.436 109.408 154.605 109.291 154.781 109.198C154.932 109.118 155.098 109.063 155.233 108.955C155.59 108.67 155.471 108.188 155.375 107.802C155.327 107.608 155.263 107.415 155.177 107.235C155.071 107.014 154.891 107.014 154.674 107.035C154.342 107.068 153.977 107.16 153.776 107.45C153.708 107.549 153.703 107.681 153.801 107.764C153.887 107.836 154.048 107.838 154.117 107.739Z" fill="#FAEACF"/>
<path d="M154 110.704C154.008 110.715 154.016 110.727 154.024 110.738C154.04 110.763 154.061 110.782 154.086 110.796C154.11 110.814 154.137 110.826 154.167 110.83C154.197 110.837 154.226 110.835 154.255 110.826C154.284 110.822 154.31 110.811 154.334 110.793C154.348 110.78 154.362 110.767 154.376 110.755C154.402 110.724 154.418 110.689 154.426 110.65C154.427 110.63 154.428 110.61 154.429 110.59C154.425 110.551 154.412 110.515 154.39 110.483C154.382 110.472 154.374 110.46 154.366 110.449C154.35 110.424 154.329 110.405 154.304 110.391C154.28 110.373 154.253 110.361 154.223 110.357C154.193 110.35 154.164 110.352 154.135 110.361C154.106 110.365 154.08 110.376 154.056 110.394C154.042 110.407 154.028 110.419 154.014 110.432C153.988 110.463 153.971 110.498 153.964 110.537C153.963 110.557 153.962 110.577 153.961 110.597C153.965 110.636 153.978 110.672 154 110.704Z" fill="#FAEACF"/>
<path d="M151.027 116.773C151.793 117.516 152.572 118.246 153.364 118.961C153.578 119.154 153.866 118.814 153.653 118.622C152.861 117.907 152.081 117.178 151.316 116.434C151.11 116.233 150.822 116.574 151.027 116.773Z" fill="#FAEACF"/>
<path d="M153.023 116.973C152.32 117.696 151.492 118.299 150.586 118.742C150.478 118.795 150.409 118.907 150.454 119.028C150.492 119.132 150.631 119.214 150.74 119.16C151.718 118.681 152.603 118.042 153.362 117.262C153.563 117.056 153.222 116.768 153.023 116.973Z" fill="#FAEACF"/>
<path d="M155.647 118.609C156.111 118.756 156.61 118.795 157.091 118.725C157.206 118.708 157.309 118.606 157.292 118.483C157.276 118.368 157.173 118.264 157.05 118.282C156.83 118.314 156.594 118.323 156.398 118.306C156.169 118.286 155.944 118.24 155.725 118.171C155.613 118.136 155.481 118.242 155.467 118.351C155.45 118.483 155.528 118.571 155.647 118.609Z" fill="#FAEACF"/>
<path d="M156.316 118.015C156.314 118.373 156.312 118.731 156.31 119.089C156.309 119.206 156.441 119.306 156.552 119.29C156.681 119.272 156.753 119.173 156.753 119.048C156.755 118.69 156.757 118.332 156.759 117.974C156.76 117.857 156.628 117.757 156.517 117.773C156.388 117.79 156.316 117.889 156.316 118.015Z" fill="#FAEACF"/>
<path d="M158.86 117.528C158.972 117.812 159.083 118.097 159.195 118.381C159.279 118.594 159.35 118.982 159.617 119.041C159.882 119.1 160.067 118.757 160.207 118.591C160.4 118.362 160.594 118.133 160.787 117.903C160.664 117.823 160.54 117.743 160.416 117.662C159.881 118.649 159.207 119.552 158.419 120.351C158.217 120.555 158.558 120.843 158.758 120.64C159.573 119.814 160.266 118.875 160.819 117.854C160.94 117.63 160.609 117.423 160.448 117.613C160.306 117.781 160.165 117.949 160.023 118.117C159.946 118.209 159.868 118.3 159.791 118.392C159.759 118.43 159.727 118.468 159.694 118.507C159.675 118.53 159.655 118.553 159.636 118.576C159.572 118.628 159.588 118.644 159.683 118.623C159.816 118.625 159.758 118.595 159.724 118.511C159.702 118.454 159.679 118.397 159.657 118.34C159.616 118.236 159.575 118.132 159.534 118.027C159.449 117.809 159.363 117.591 159.277 117.373C159.173 117.108 158.755 117.26 158.86 117.528Z" fill="#FAEACF"/>
<path d="M44.0403 52.904C48.2802 52.904 51.7173 49.4669 51.7173 45.2271C51.7173 40.9872 48.2802 37.55 44.0403 37.55C39.8004 37.55 36.3633 40.9872 36.3633 45.2271C36.3633 49.4669 39.8004 52.904 44.0403 52.904Z" fill="#5B57A2"/>
<path d="M44.9071 98.546L40.8401 98.493L41.4491 52.159C12.4491 89.469 12.0961 89.764 11.8821 89.943L9.27105 86.824L10.5761 88.383L9.08105 87.006C10.0171 85.934 29.2531 61.225 41.9551 44.878L45.6741 40.092L44.9071 98.546Z" fill="#5B57A2"/>
<path d="M52.8459 30.4541L48.8209 28.6781C48.3319 28.4621 47.7599 28.6841 47.5439 29.1731L43.1129 39.2191C42.8969 39.7081 43.1189 40.2801 43.6079 40.4961L47.6329 42.2721C48.1219 42.4881 48.6939 42.2661 48.9099 41.7771L53.3409 31.7311C53.5569 31.2411 53.3359 30.6691 52.8459 30.4541Z" fill="#5B57A2"/>
<path d="M44.0405 48.539C45.8697 48.539 47.3525 47.0562 47.3525 45.227C47.3525 43.3979 45.8697 41.915 44.0405 41.915C42.2113 41.915 40.7285 43.3979 40.7285 45.227C40.7285 47.0562 42.2113 48.539 44.0405 48.539Z" fill="#F3D148"/>
<path d="M11.1303 88.1191L7.7793 94.5471L11.8823 89.9441" fill="#5B57A2"/>
<path d="M43.0273 96.9321L44.7283 103.979L44.7933 97.8131" fill="#5B57A2"/>
<path d="M212.267 134.539C218.412 134.539 223.394 129.557 223.394 123.412C223.394 117.267 218.412 112.285 212.267 112.285C206.121 112.285 201.14 117.267 201.14 123.412C201.14 129.557 206.121 134.539 212.267 134.539Z" fill="#FAB32D"/>
<path d="M212.267 134.011C218.121 134.011 222.866 129.266 222.866 123.412C222.866 117.558 218.121 112.813 212.267 112.813C206.413 112.813 201.668 117.558 201.668 123.412C201.668 129.266 206.413 134.011 212.267 134.011Z" fill="#FEE316"/>
<path d="M212.229 131.845C217.005 131.845 220.876 128.029 220.876 123.323C220.876 118.616 217.005 114.801 212.229 114.801C207.453 114.801 203.582 118.616 203.582 123.323C203.582 128.029 207.453 131.845 212.229 131.845Z" fill="#FAB32D"/>
<path d="M166.604 80.566C172.749 80.566 177.731 75.5843 177.731 69.439C177.731 63.2937 172.749 58.312 166.604 58.312C160.458 58.312 155.477 63.2937 155.477 69.439C155.477 75.5843 160.458 80.566 166.604 80.566Z" fill="#FAB32D"/>
<path d="M166.604 80.0381C172.458 80.0381 177.203 75.2928 177.203 69.4391C177.203 63.5854 172.458 58.8401 166.604 58.8401C160.75 58.8401 156.005 63.5854 156.005 69.4391C156.005 75.2928 160.75 80.0381 166.604 80.0381Z" fill="#FEE316"/>
<path d="M166.566 77.8731C171.342 77.8731 175.213 74.0577 175.213 69.3511C175.213 64.6445 171.342 60.8291 166.566 60.8291C161.79 60.8291 157.919 64.6445 157.919 69.3511C157.919 74.0577 161.79 77.8731 166.566 77.8731Z" fill="#FAB32D"/>
<path d="M82.6543 46.4171C88.7996 46.4171 93.7813 41.4354 93.7813 35.2901C93.7813 29.1448 88.7996 24.1631 82.6543 24.1631C76.5091 24.1631 71.5273 29.1448 71.5273 35.2901C71.5273 41.4354 76.5091 46.4171 82.6543 46.4171Z" fill="#FAB32D"/>
<path d="M82.6547 45.8892C88.5083 45.8892 93.2537 41.1438 93.2537 35.2902C93.2537 29.4365 88.5083 24.6912 82.6547 24.6912C76.801 24.6912 72.0557 29.4365 72.0557 35.2902C72.0557 41.1438 76.801 45.8892 82.6547 45.8892Z" fill="#FEE316"/>
<path d="M82.6177 43.7242C87.3933 43.7242 91.2647 39.9087 91.2647 35.2022C91.2647 30.4956 87.3933 26.6802 82.6177 26.6802C77.8421 26.6802 73.9707 30.4956 73.9707 35.2022C73.9707 39.9087 77.8421 43.7242 82.6177 43.7242Z" fill="#FAB32D"/>
<path d="M38.1495 134.539C44.2947 134.539 49.2765 129.557 49.2765 123.412C49.2765 117.267 44.2947 112.285 38.1495 112.285C32.0042 112.285 27.0225 117.267 27.0225 123.412C27.0225 129.557 32.0042 134.539 38.1495 134.539Z" fill="#FAB32D"/>
<path d="M38.1493 134.011C44.003 134.011 48.7483 129.266 48.7483 123.412C48.7483 117.558 44.003 112.813 38.1493 112.813C32.2956 112.813 27.5503 117.558 27.5503 123.412C27.5503 129.266 32.2956 134.011 38.1493 134.011Z" fill="#FEE316"/>
<path d="M38.1114 131.845C42.887 131.845 46.7584 128.029 46.7584 123.323C46.7584 118.616 42.887 114.801 38.1114 114.801C33.3357 114.801 29.4644 118.616 29.4644 123.323C29.4644 128.029 33.3357 131.845 38.1114 131.845Z" fill="#FAB32D"/>
<path d="M135.807 82.4362L101.09 69.4122V67.8302L135.023 80.6902L151.233 38.3672L152.498 38.8522L135.807 82.4362Z" fill="#FAB32D"/>
<path d="M101.11 60.337L101.326 66.651C101.322 67.839 101.82 68.924 102.932 69.342L135.415 81.563L151.865 38.609L151.448 33.406L101.11 60.337Z" fill="#FFE4B3"/>
<path d="M120.67 20.485L152.049 31.846L135.507 74.891L102.924 62.68C101.424 62.118 100.687 60.426 101.297 58.945L116.357 22.392C117.053 20.704 118.954 19.864 120.67 20.485Z" fill="#FAB32D"/>
<path d="M121.341 28.0991L118.233 36.0501L138.126 43.5441L141.264 35.5021L121.341 28.0991Z" fill="#FFE4B3"/>
<path d="M102.932 61.8909V69.3419L101.11 68.5629V60.3369" fill="#FAB32D"/>
</g>
<defs>
<clipPath id="clip0">
<rect width="320" height="1040" fill="white" transform="translate(0 -474)"/>
</clipPath>
</defs>
</svg>
