<svg width="449" height="691" viewBox="0 0 449 691" fill="none" xmlns="http://www.w3.org/2000/svg">
<path d="M302.14 194.055C287.726 183.644 268.56 184.566 256.134 196.981C247.132 192.9 236.435 192.651 227.437 196.396C209.688 203.783 196.084 229.167 207.588 245.405C208.91 260.749 213.347 273.31 228.16 275.426C234.83 292.67 261.51 300.916 279.253 287.864C292.46 294.007 308.211 288.04 319.2 278.338C321.792 276.049 324.229 272.232 325.159 271.803C325.173 271.798 361.533 269.882 362.777 235.058C364.079 198.612 329.887 168.912 302.14 194.055Z" fill="#FBBB20"/>
<path d="M110.538 607.035C109.329 622.719 110.447 637.108 110.665 638.822C110.77 639.646 112.908 643.133 113.036 643.983C106.809 661.833 92.8968 669.692 80.4678 674.62C85.1043 666.021 92.8664 656.81 92.7439 654.587C92.5471 651.05 92.3436 635.086 88.5705 614.066C97.5221 615.375 102.038 610.68 110.538 607.035Z" fill="#FFDD9E"/>
<path d="M182.938 388.896L232.344 440.772C232.344 440.772 200.963 464.587 189.203 473.427C177.441 482.266 120.17 512.182 118.942 514.41C118.696 514.857 120.734 520.819 120.68 527.91C120.534 547.074 118.37 584.099 115.061 615.661C108.31 621.118 95.2525 620.925 87.3082 621.883C73.4143 580.768 76.2149 505.677 77.4595 496.776C79.4854 482.278 182.938 388.896 182.938 388.896Z" fill="#5B57A2"/>
<path d="M331.35 507.068C329.002 508.175 309.25 527.155 300.444 537.985C295.586 531.383 293.53 524.929 287.434 519.416C296.079 513.038 314.326 496.725 316.966 492.196C323.228 481.455 326.339 480.7 326.339 480.7C326.339 480.7 358.599 507.78 359.747 512.381C360.894 516.984 340.78 502.625 331.35 507.068Z" fill="#FFDD9E"/>
<path d="M315.619 494.597C312.75 493.521 320.72 481.125 322.496 478.246C324.493 475.009 326.815 474.69 327.344 474.748C328.776 474.905 364.626 505 369.694 512.852C370.036 513.383 370.478 514.823 370.517 515.123C371.66 523.99 337.306 512.59 333.596 507.502C330.296 502.975 328.525 499.44 315.619 494.597Z" fill="#1A0940"/>
<path d="M169.247 400.26C169.247 400.26 220.61 386.56 220.619 386.558C220.413 386.621 220.623 388.661 220.64 388.82C222.604 407.966 247.876 404.22 253.398 437.766C257.301 461.468 243.482 537.5 243.482 537.5C243.482 537.5 268.379 523.871 294.546 509.284C296.932 507.954 311.549 529.179 311.549 529.179C271.984 579.407 219.002 593.864 212.965 590.523C192.357 579.12 179.046 428.859 179.101 428.879C176.047 419.589 169.247 400.26 169.247 400.26Z" fill="#0095D4"/>
<path d="M264.218 287.642C264.218 287.642 325.545 283.446 339.086 283.328C352.627 283.209 400.964 274.36 402.83 273.953C404.697 273.546 415.091 250.27 417.391 252.446C419.69 254.622 411.481 264.059 414.481 266.023C417.482 267.986 446.987 260.163 446.807 262.516C446.473 266.92 428.933 268.023 429.148 270.112C429.363 272.202 447.341 267.207 448.908 270.564C450.476 273.92 431.452 273.643 430.846 275.264C430.243 276.886 448.726 278 447.168 281.406C446.323 283.256 430.752 280.003 431.052 282.387C431.352 284.77 442.902 289.167 441.73 291.199C440.555 293.233 432.514 286.173 426.102 286.683C419.688 287.192 414.774 284.135 404.827 288.032C394.882 291.929 361.426 309.907 339.514 310.891C317.601 311.875 269.191 314.184 269.191 314.184L264.218 287.642Z" fill="#FFDD9E"/>
<path d="M196.162 272.263C196.162 272.263 180.884 212.721 176.745 199.826C172.604 186.933 165.826 138.264 165.626 136.364C165.426 134.464 184.26 117.284 181.472 115.785C178.685 114.286 172.303 125.044 169.497 122.811C166.691 120.579 164.852 90.1104 162.674 91.02C158.597 92.7199 163.06 109.718 161.009 110.171C158.956 110.622 158.052 91.9868 154.373 91.5506C150.694 91.1155 156.931 109.091 155.583 110.174C154.234 111.257 147.371 94.0589 144.626 96.6077C143.136 97.9917 151.114 111.752 148.757 112.217C146.399 112.682 138.598 103.096 137.036 104.849C135.476 106.6 144.703 112.018 146.232 118.267C147.762 124.516 152.209 128.223 151.633 138.889C151.057 149.555 144.495 186.963 150.442 208.076C156.39 229.189 169.401 275.876 169.401 275.876L196.162 272.263Z" fill="#FFDD9E"/>
<path d="M169.3 337.881C169.936 327.276 172.492 298.775 173.429 295.358C171.916 284.038 163.095 266.337 161.411 261.445C161.411 261.445 178.925 245.755 190.047 247.461C190.047 247.461 199.716 264.762 207.844 270.788C207.978 270.77 210.761 272.613 212.074 272.786C220.58 273.911 250.395 277.119 255.694 279.622L245.856 327.117C243.874 329.641 234.235 384.486 230.317 388.564C226.399 392.642 175.731 406.612 168.557 400.18C168.271 399.924 168.011 359.32 169.3 337.881Z" fill="white"/>
<path d="M240.451 278.25C241.877 277.77 245.108 277.471 249.676 278.028C263.174 279.676 285.924 282.284 285.924 282.284C285.924 282.284 287.432 311.892 281.99 318.197C281.99 318.197 245.792 318.755 246.375 321.932L240.451 278.25Z" fill="white"/>
<path d="M233.907 257.84C233.907 257.84 228.507 274.04 228.205 280.684C227.905 287.33 221.988 308.056 208.692 306.268C195.395 304.482 209.926 279.038 212.075 272.786C214.225 266.534 217.303 246.678 217.303 246.678L233.907 257.84Z" fill="#FFDD9E"/>
<path d="M215.633 256.622C216.602 251.207 217.304 246.678 217.304 246.678L233.907 257.84C233.907 257.84 232.803 261.153 231.565 265.397C223.538 265.945 218.307 262.138 215.633 256.622Z" fill="#FBBB20"/>
<path d="M246.834 212.856C246.834 212.856 253.142 217.797 254.447 226.774C255.751 235.752 249.783 257.611 231.298 260.504C212.812 263.396 207.593 244.697 213.172 231.427C218.752 218.157 229.137 201.816 246.834 212.856Z" fill="#FFDD9E"/>
<path d="M211.701 225.775C211.53 229.526 213.089 232.627 215.183 232.704C217.275 232.781 219.11 229.805 219.279 226.054C219.448 222.303 217.89 219.201 215.797 219.125C213.704 219.049 211.871 222.026 211.701 225.775Z" fill="#FFDD9E"/>
<path d="M110.683 639.304C112.515 636.724 121.191 648.847 123.317 651.404C125.709 654.28 125.319 656.689 125.111 657.203C124.561 658.559 87.1546 687.211 77.6544 690.008C76.7572 690.273 75.1225 689.847 74.6919 689.524C70.6029 686.46 85.6571 658.837 93.1527 654.596C97.995 651.856 102.436 650.912 110.683 639.304Z" fill="#1A0940"/>
<path d="M244.911 211.441C244.911 211.441 244.656 236.722 251.713 242.278C258.769 247.832 254.014 258.4 254.014 258.4C254.014 258.4 264.557 233.795 259.631 224.731C254.704 215.665 244.911 211.441 244.911 211.441Z" fill="#FBBB20"/>
<path d="M246.665 245.206C244.13 248.151 243.604 251.967 245.492 253.732C247.378 255.496 250.963 254.539 253.499 251.594C256.034 248.65 256.56 244.834 254.674 243.07C252.785 241.305 249.201 242.263 246.665 245.206Z" fill="#FFDD9E"/>
<path d="M223.133 230.243C223.206 229.504 223.067 228.702 222.392 228.457C221.536 228.146 220.403 228.898 219.861 230.137C219.318 231.375 219.572 232.63 220.426 232.94C221.953 233.493 223.011 231.467 223.133 230.243Z" fill="#1A0940"/>
<path d="M238.014 234.896C238.087 234.158 237.948 233.355 237.273 233.11C236.417 232.8 235.284 233.552 234.742 234.791C234.199 236.029 234.453 237.283 235.307 237.594C236.834 238.148 237.892 236.122 238.014 234.896Z" fill="#1A0940"/>
<path d="M220.826 238.567C221.274 238.031 221.903 237.667 222.46 237.253C223.093 236.783 223.675 236.248 224.209 235.671C225.282 234.513 226.106 233.181 226.705 231.743C226.869 231.348 227.428 231.228 227.772 231.393C228.18 231.59 228.244 232.036 228.082 232.425C227.078 234.837 225.397 236.959 223.268 238.539C222.448 239.148 221.344 239.736 221.897 240.861C222.449 241.985 223.934 242.193 225.07 242.397C226.058 242.573 225.693 244.088 224.707 243.911C223.228 243.647 221.667 243.284 220.754 242.038C219.998 241.008 219.953 239.61 220.826 238.567Z" fill="#EE7225"/>
<path d="M228.18 247.728C225.642 249.121 222.44 249.196 219.87 247.832C219.453 247.611 218.933 247.674 218.662 248.094C218.423 248.466 218.504 249.08 218.924 249.303C222.046 250.959 225.88 250.985 228.991 249.277C229.978 248.735 229.168 247.186 228.18 247.728Z" fill="#EE7225"/>
<path d="M225.543 221.413C225.265 221.153 224.929 221.059 224.606 221.005C222.466 220.646 220.404 221.957 219.397 224.207C219.621 223.926 219.864 223.675 220.159 223.515C220.177 223.506 220.193 223.505 220.21 223.496C220.38 223.379 220.559 223.284 220.745 223.218C221.432 222.978 222.188 223.04 222.93 223.13C223.671 223.22 224.422 223.335 225.136 223.198C225.481 223.132 225.854 222.955 225.942 222.524C226.022 222.134 225.821 221.671 225.543 221.413Z" fill="#1A0940"/>
<path d="M238.439 224.8C238.811 224.662 239.162 224.695 239.481 224.761C241.604 225.197 242.898 227.135 242.8 229.554C242.722 229.216 242.613 228.899 242.417 228.649C242.405 228.634 242.39 228.626 242.377 228.613C242.275 228.446 242.155 228.295 242.013 228.168C241.492 227.702 240.773 227.488 240.053 227.306C239.334 227.123 238.593 226.961 238.001 226.581C237.716 226.398 237.454 226.102 237.569 225.676C237.673 225.289 238.067 224.937 238.439 224.8Z" fill="#1A0940"/>
<g clip-path="url(#clip0)">
<path d="M58.2492 193.798C58.2962 194.018 58.3144 194.238 58.3063 194.455L58.306 194.458C58.2999 194.62 58.2784 194.78 58.2428 194.94L58.148 195.669L57.9792 195.671C56.6552 198.296 51.4811 200.5 44.9093 200.965C36.9665 201.526 29.9354 199.338 28.9955 196.055L28.7615 196.058L28.9064 195.021C28.9119 194.97 28.9194 194.919 28.9277 194.868L28.932 194.839L28.9346 194.831C28.9804 194.581 29.0618 194.333 29.1762 194.088L29.1777 194.084L29.1784 194.084C30.431 191.421 35.6454 189.173 42.2892 188.704C50.3798 188.131 57.5256 190.413 58.2492 193.798Z" fill="#9E5DA2"/>
<path d="M44.7555 202.076C52.8467 201.504 58.8194 198.296 58.0961 194.91C57.3725 191.524 50.2263 189.242 42.1353 189.814C34.0441 190.386 28.0712 193.595 28.7949 196.981C29.5188 200.366 36.6641 202.648 44.7555 202.076Z" fill="#D1B8DA"/>
<path d="M42.3717 190.749C45.7619 190.514 49.0697 190.821 51.685 191.615C54.362 192.426 56.0116 193.663 56.3296 195.097C56.4919 195.828 56.3068 196.556 55.779 197.262C54.217 199.352 49.8441 200.935 44.6371 201.296C41.2464 201.531 37.9391 201.224 35.3238 200.431C32.6468 199.619 30.9974 198.383 30.6789 196.949C30.5166 196.218 30.7018 195.489 31.2295 194.784C31.505 194.415 31.8672 194.063 32.3066 193.73C34.3592 192.174 38.0829 191.047 42.3717 190.749ZM55.38 196.964C55.817 196.38 55.9728 195.787 55.8434 195.205C55.5698 193.973 54.0011 192.838 51.5398 192.091C48.9812 191.316 45.7371 191.016 42.4055 191.246C38.2537 191.534 34.5587 192.649 32.596 194.137C32.1994 194.438 31.8734 194.754 31.6288 195.081C31.1918 195.665 31.0361 196.257 31.1654 196.84C31.4393 198.073 33.0077 199.208 35.469 199.954C38.0276 200.73 41.2717 201.03 44.6031 200.799C48.7553 200.511 52.4501 199.396 54.413 197.908C54.8096 197.608 55.1357 197.291 55.38 196.964Z" fill="#9E5DA2"/>
<path d="M121.795 345.526C121.828 345.682 121.841 345.838 121.835 345.992L121.835 345.993L121.835 345.994C121.831 346.109 121.816 346.223 121.791 346.337L121.723 346.854L121.603 346.855C120.663 348.719 116.99 350.284 112.324 350.614C106.685 351.012 101.694 349.459 101.026 347.128L100.86 347.13L100.963 346.395C100.967 346.358 100.972 346.322 100.978 346.286L100.981 346.265L100.983 346.259C101.015 346.082 101.073 345.905 101.155 345.732L101.155 345.729L101.156 345.729C102.045 343.838 105.747 342.242 110.464 341.909C116.208 341.503 121.281 343.122 121.795 345.526Z" fill="#9E5DA2"/>
<path d="M112.216 351.403C117.96 350.997 122.2 348.719 121.686 346.315C121.172 343.911 116.1 342.292 110.355 342.698C104.61 343.104 100.37 345.382 100.884 347.786C101.398 350.189 106.471 351.809 112.216 351.403Z" fill="#D1B8DA"/>
<path d="M110.523 343.361C112.93 343.195 115.278 343.413 117.135 343.976C119.035 344.552 120.206 345.43 120.432 346.448C120.547 346.966 120.416 347.484 120.041 347.985C118.933 349.468 115.828 350.593 112.131 350.849C109.724 351.016 107.376 350.797 105.52 350.235C103.619 349.658 102.448 348.78 102.222 347.763C102.107 347.244 102.238 346.726 102.613 346.225C102.808 345.964 103.066 345.713 103.378 345.477C104.835 344.373 107.478 343.572 110.523 343.361ZM119.758 347.774C120.068 347.359 120.179 346.938 120.087 346.525C119.892 345.65 118.779 344.844 117.032 344.314C115.215 343.763 112.912 343.55 110.547 343.714C107.599 343.919 104.976 344.71 103.583 345.767C103.302 345.98 103.07 346.205 102.896 346.437C102.586 346.852 102.475 347.272 102.567 347.686C102.762 348.561 103.875 349.366 105.622 349.896C107.439 350.447 109.742 350.66 112.107 350.496C115.055 350.292 117.678 349.5 119.071 348.444C119.353 348.23 119.585 348.006 119.758 347.774Z" fill="#9E5DA2"/>
<path d="M31.7075 255.361C31.8531 255.437 32.0034 255.493 32.1584 255.53L32.1582 255.53L32.1599 255.53C32.2748 255.558 32.3925 255.574 32.5118 255.581L33.0435 255.657L33.0783 255.54C35.1867 255.126 37.7578 251.92 39.3813 247.388C41.3431 241.91 41.1908 236.532 39.0661 235.223L39.1144 235.059L38.3565 234.956C38.3193 234.95 38.2821 234.945 38.2444 234.941L38.2228 234.938L38.2171 234.938C38.0317 234.921 37.8411 234.929 37.6464 234.962L37.6428 234.962L37.643 234.962C35.5217 235.318 32.9116 238.544 31.2708 243.126C29.2726 248.706 29.4681 254.184 31.7075 255.361Z" fill="#9E5DA2"/>
<path d="M40.1933 247.5C38.1947 253.08 34.7591 256.649 32.5195 255.472C30.2799 254.295 30.0846 248.817 32.0835 243.237C34.0818 237.657 37.5176 234.087 39.7573 235.265C41.9967 236.442 42.1915 241.92 40.1933 247.5Z" fill="#D1B8DA"/>
<path d="M36.7765 237.094C37.0975 236.85 37.4172 236.665 37.7309 236.544C38.3318 236.312 38.8812 236.325 39.3628 236.584C40.3089 237.091 40.8532 238.495 40.8964 240.539C40.9383 242.535 40.5022 244.923 39.6678 247.262C38.3866 250.854 36.41 253.619 34.6317 254.305C34.0305 254.537 33.4813 254.524 32.9991 254.266C32.0532 253.758 31.5087 252.354 31.4662 250.31C31.4239 248.314 31.8603 245.926 32.6943 243.587C33.7493 240.629 35.2769 238.231 36.7765 237.094ZM35.3558 253.472C36.7904 252.384 38.3037 250.005 39.3253 247.14C40.1448 244.842 40.5733 242.5 40.5326 240.547C40.4933 238.668 40.0041 237.34 39.1908 236.905C38.8065 236.699 38.3592 236.692 37.8618 236.884C37.5831 236.991 37.2962 237.158 37.0064 237.378C35.572 238.465 34.0587 240.845 33.0372 243.71C32.2179 246.008 31.789 248.349 31.8301 250.303C31.8696 252.182 32.3585 253.509 33.1717 253.945C33.556 254.151 34.0033 254.158 34.5011 253.966C34.7794 253.859 35.066 253.692 35.3558 253.472Z" fill="#9E5DA2"/>
<path d="M130.26 292.264C130.281 292.362 130.289 292.459 130.285 292.556L130.285 292.557C130.282 292.629 130.273 292.7 130.257 292.771L130.214 293.095L130.14 293.096C129.552 294.263 127.251 295.243 124.33 295.449C120.799 295.699 117.674 294.726 117.256 293.267L117.152 293.268L117.217 292.807C117.219 292.784 117.222 292.761 117.226 292.739L117.228 292.726L117.229 292.722C117.25 292.611 117.285 292.501 117.336 292.392L117.337 292.39L117.337 292.39C117.894 291.206 120.212 290.207 123.165 289.998C126.761 289.745 129.938 290.759 130.26 292.264Z" fill="#9E5DA2"/>
<path d="M124.261 295.943C127.858 295.689 130.513 294.263 130.191 292.758C129.87 291.253 126.693 290.239 123.097 290.493C119.5 290.747 116.845 292.174 117.167 293.679C117.488 295.184 120.665 296.198 124.261 295.943Z" fill="#D1B8DA"/>
<path d="M123.202 290.909C124.709 290.804 126.179 290.941 127.342 291.293C128.532 291.654 129.265 292.204 129.406 292.841C129.479 293.166 129.396 293.49 129.162 293.804C128.468 294.732 126.524 295.436 124.209 295.597C122.702 295.701 121.232 295.565 120.069 295.212C118.879 294.851 118.146 294.302 118.004 293.664C117.932 293.34 118.015 293.016 118.249 292.702C118.372 292.538 118.533 292.381 118.728 292.233C119.64 291.542 121.296 291.041 123.202 290.909ZM128.984 293.671C129.178 293.411 129.248 293.148 129.19 292.889C129.069 292.341 128.371 291.837 127.277 291.505C126.14 291.16 124.698 291.027 123.217 291.129C121.372 291.257 119.729 291.753 118.857 292.414C118.681 292.548 118.536 292.689 118.427 292.834C118.233 293.094 118.164 293.357 118.221 293.616C118.342 294.164 119.04 294.669 120.134 295C121.271 295.345 122.713 295.479 124.194 295.376C126.04 295.248 127.682 294.752 128.555 294.091C128.731 293.957 128.875 293.817 128.984 293.671Z" fill="#9E5DA2"/>
<path d="M252.687 80.0455C252.854 80.1338 253.028 80.1981 253.206 80.2409L253.205 80.2411L253.208 80.2414C253.34 80.2728 253.474 80.292 253.612 80.2998L254.223 80.3882L254.263 80.252C256.688 79.7765 259.645 76.0898 261.512 70.8772C263.769 64.5776 263.593 58.3918 261.15 56.8864L261.205 56.6979L260.334 56.5798C260.291 56.5725 260.248 56.5667 260.205 56.5623L260.18 56.5589L260.173 56.5593C259.96 56.5393 259.741 56.5491 259.517 56.5859L259.513 56.5862L259.513 56.5867C257.074 56.9961 254.072 60.7053 252.185 65.9751C249.887 72.3921 250.111 78.6918 252.687 80.0455Z" fill="#9E5DA2"/>
<path d="M262.446 71.005C260.148 77.4226 256.196 81.5275 253.621 80.1736C251.045 78.8197 250.821 72.5202 253.119 66.1026C255.417 59.6852 259.369 55.5803 261.945 56.9338C264.521 58.288 264.745 64.5879 262.446 71.005Z" fill="#D1B8DA"/>
<path d="M258.517 59.038C258.886 58.7582 259.254 58.5448 259.615 58.4055C260.306 58.1388 260.937 58.1542 261.491 58.4512C262.579 59.0343 263.206 60.6495 263.255 62.9998C263.303 65.2961 262.802 68.042 261.842 70.7319C260.369 74.8631 258.095 78.0427 256.05 78.8321C255.359 79.0992 254.727 79.0838 254.173 78.7868C253.085 78.2037 252.459 76.5885 252.409 74.238C252.361 71.942 252.863 69.1958 253.822 66.5057C255.036 63.1028 256.793 60.3459 258.517 59.038ZM256.883 77.8735C258.533 76.6229 260.273 73.8861 261.448 70.5919C262.391 67.9488 262.884 65.2557 262.837 63.0092C262.791 60.8483 262.229 59.3216 261.294 58.8206C260.851 58.5836 260.337 58.5757 259.765 58.7964C259.444 58.92 259.115 59.1121 258.781 59.365C257.132 60.6153 255.391 63.3525 254.216 66.6467C253.274 69.2896 252.781 71.9829 252.828 74.2295C252.873 76.3904 253.436 77.9167 254.371 78.4178C254.813 78.6545 255.327 78.6627 255.899 78.4419C256.22 78.3182 256.55 78.1263 256.883 77.8735Z" fill="#9E5DA2"/>
<path d="M344.112 100.481C344.209 100.532 344.31 100.57 344.414 100.595L344.415 100.595C344.492 100.613 344.57 100.624 344.65 100.628L345.006 100.68L345.029 100.601C346.441 100.324 348.164 98.1769 349.25 95.1418C350.564 91.4738 350.463 87.8718 349.04 86.9953L349.072 86.8854L348.564 86.8169C348.539 86.8124 348.514 86.8094 348.489 86.8068L348.475 86.8048L348.471 86.805C348.347 86.7935 348.219 86.7992 348.089 86.8207L348.087 86.8209L348.087 86.8213C346.666 87.0596 344.918 89.2195 343.819 92.2879C342.481 96.0245 342.612 99.6929 344.112 100.481Z" fill="#9E5DA2"/>
<path d="M349.794 95.2169C348.456 98.9539 346.155 101.344 344.655 100.556C343.155 99.7675 343.025 96.0991 344.363 92.362C345.701 88.6252 348.002 86.235 349.502 87.0233C351.002 87.8114 351.133 91.4801 349.794 95.2169Z" fill="#D1B8DA"/>
<path d="M347.506 88.2482C347.721 88.0853 347.935 87.9611 348.145 87.8799C348.547 87.7246 348.915 87.7337 349.238 87.9066C349.872 88.2457 350.236 89.1868 350.265 90.5553C350.293 91.8925 350.001 93.4914 349.442 95.058C348.584 97.4634 347.261 99.3149 346.069 99.7747C345.667 99.93 345.299 99.9214 344.976 99.7482C344.343 99.4091 343.978 98.4683 343.949 97.0993C343.921 95.7623 344.214 94.1632 344.772 92.597C345.479 90.6156 346.502 89.0098 347.506 88.2482ZM346.555 99.2162C347.515 98.4878 348.529 96.8942 349.213 94.9758C349.761 93.4369 350.049 91.8684 350.021 90.5606C349.995 89.3022 349.667 88.4134 349.123 88.1214C348.865 87.9836 348.566 87.9786 348.233 88.1073C348.046 88.1795 347.854 88.2913 347.66 88.4382C346.699 89.1664 345.686 90.7604 345.002 92.6788C344.453 94.2179 344.166 95.7857 344.193 97.0943C344.22 98.3526 344.547 99.2415 345.092 99.5332C345.35 99.6711 345.649 99.6761 345.982 99.5476C346.168 99.4751 346.361 99.3633 346.555 99.2162Z" fill="#9E5DA2"/>
<path d="M288.057 116.946C288.087 117.083 288.098 117.221 288.093 117.357L288.092 117.358C288.089 117.459 288.075 117.56 288.053 117.66L287.993 118.115L287.888 118.116C287.06 119.757 283.826 121.135 279.719 121.425C274.754 121.777 270.359 120.409 269.772 118.356L269.626 118.358L269.716 117.71C269.72 117.679 269.724 117.647 269.73 117.615L269.732 117.596L269.734 117.591C269.762 117.435 269.813 117.28 269.885 117.127L269.886 117.124L269.886 117.124C270.669 115.46 273.928 114.055 278.081 113.761C283.139 113.404 287.605 114.83 288.057 116.946Z" fill="#9E5DA2"/>
<path d="M279.623 122.12C284.681 121.762 288.414 119.757 287.961 117.64C287.509 115.524 283.043 114.098 277.985 114.455C272.928 114.813 269.194 116.819 269.647 118.935C270.099 121.051 274.566 122.477 279.623 122.12Z" fill="#D1B8DA"/>
<path d="M278.133 115.04C280.252 114.893 282.32 115.085 283.954 115.581C285.627 116.088 286.658 116.861 286.858 117.757C286.959 118.214 286.843 118.669 286.513 119.111C285.537 120.417 282.804 121.406 279.549 121.632C277.43 121.779 275.363 121.587 273.728 121.091C272.055 120.584 271.024 119.811 270.825 118.915C270.724 118.458 270.839 118.003 271.169 117.561C271.341 117.331 271.568 117.111 271.842 116.903C273.125 115.93 275.452 115.225 278.133 115.04ZM286.264 118.924C286.537 118.559 286.635 118.189 286.554 117.825C286.383 117.054 285.402 116.345 283.864 115.878C282.264 115.393 280.237 115.206 278.155 115.35C275.56 115.53 273.25 116.227 272.023 117.157C271.775 117.345 271.571 117.543 271.418 117.747C271.145 118.113 271.048 118.483 271.129 118.847C271.3 119.617 272.28 120.327 273.819 120.793C275.418 121.278 277.446 121.466 279.528 121.322C282.123 121.142 284.433 120.445 285.66 119.514C285.907 119.326 286.111 119.129 286.264 118.924Z" fill="#9E5DA2"/>
</g>
<defs>
<clipPath id="clip0">
<rect width="356" height="179" fill="white" transform="translate(392.065 142.93) rotate(142.832)"/>
</clipPath>
</defs>
</svg>
