<svg width="332" height="631" viewBox="0 0 332 631" fill="none" xmlns="http://www.w3.org/2000/svg">
<path d="M264.873 45.2373H89.8027V512.079H264.873V45.2373Z" fill="#F0823A"/>
<path d="M89.8027 115.747L97.1194 123.044L89.8027 115.747Z" fill="#F39150"/>
<path d="M116.622 103.593L106.871 113.318L97.1196 123.044L175.13 45.2373H155.627L165.379 54.9632L155.627 64.6891L145.876 74.4149L136.125 84.1408L126.374 93.8667L116.622 103.593Z" fill="#F39150"/>
<path d="M136.125 45.2373H116.622L145.876 74.4149L155.627 64.6891L136.125 45.2373Z" fill="#F39150"/>
<path d="M97.1194 64.6891L126.373 93.8667L136.125 84.1408L97.1194 45.2373L89.8027 52.5349V71.9866L97.1194 64.6891Z" fill="#F39150"/>
<path d="M89.8027 91.4384V110.89L97.1194 103.593L106.871 113.319L116.622 103.593L97.1194 84.1409L89.8027 91.4384Z" fill="#F39150"/>
<path d="M243.389 113.318L233.638 103.593L223.886 93.8667L214.135 84.1408L204.384 74.4149L194.632 64.6891L184.881 54.9632L194.632 45.2373H175.13L253.14 123.044L243.389 113.318Z" fill="#F39150"/>
<path d="M264.873 111.343L262.892 113.318L253.141 123.044L264.873 111.343Z" fill="#F39150"/>
<path d="M233.638 45.2373H214.135L194.632 64.6891L204.384 74.4149L233.638 45.2373Z" fill="#F39150"/>
<path d="M253.14 64.6891L264.873 76.3909V56.9391L253.14 45.2373L214.135 84.1408L223.887 93.8667L253.14 64.6891Z" fill="#F39150"/>
<path d="M262.892 113.319L264.873 111.343V95.8427L253.14 84.1409L233.638 103.593L243.389 113.319L253.14 103.593L262.892 113.319Z" fill="#F39150"/>
<path d="M89.8027 115.747V130.342L97.1194 123.044L89.8027 115.747Z" fill="#F39150"/>
<path d="M106.871 132.77L175.13 64.6891L243.389 132.77L253.141 123.044L175.13 45.2373L97.1196 123.044L106.871 132.77Z" fill="#F39150"/>
<path d="M116.622 142.496L126.373 152.222L175.13 103.593L223.886 152.222L233.638 142.496L175.13 84.1409L116.622 142.496Z" fill="#F39150"/>
<path d="M136.125 161.948L145.876 171.674L175.13 142.496L204.384 171.674L214.135 161.948L175.13 123.044L136.125 161.948Z" fill="#F39150"/>
<path d="M155.627 181.4L165.379 191.125L175.13 181.4L184.881 191.125L194.633 181.4L175.13 161.948L155.627 181.4Z" fill="#F39150"/>
<path d="M253.141 123.044L262.892 132.77L264.873 130.794V111.343L253.141 123.044Z" fill="#F39150"/>
<path d="M165.379 210.577L175.13 200.851L97.1194 123.044L89.8027 130.342V149.794L97.1194 142.496L165.379 210.577Z" fill="#F39150"/>
<path d="M145.876 230.029L155.627 220.303L97.1194 161.948L89.8027 169.245V188.697L97.1194 181.4L145.876 230.029Z" fill="#F39150"/>
<path d="M126.373 249.481L136.125 239.755L97.1194 200.851L89.8027 208.149V227.601L97.1194 220.303L126.373 249.481Z" fill="#F39150"/>
<path d="M106.871 268.933L116.622 259.207L97.1194 239.755L89.8027 247.052V266.504L97.1194 259.207L106.871 268.933Z" fill="#F39150"/>
<path d="M175.13 200.851L184.881 210.577L253.14 142.496L264.873 154.198V134.746L253.14 123.044L175.13 200.851Z" fill="#F39150"/>
<path d="M194.632 220.303L204.384 230.029L253.14 181.4L264.873 193.101V173.65L253.14 161.948L194.632 220.303Z" fill="#F39150"/>
<path d="M214.135 239.755L223.887 249.481L253.14 220.303L264.873 232.005V212.553L253.14 200.851L214.135 239.755Z" fill="#F39150"/>
<path d="M233.638 259.207L243.389 268.933L253.14 259.207L262.892 268.933L264.873 266.957V251.457L253.14 239.755L233.638 259.207Z" fill="#F39150"/>
<path d="M89.8027 271.361V285.956L97.1194 278.658L89.8027 271.361Z" fill="#F39150"/>
<path d="M175.13 220.303L243.389 288.384L253.141 278.658L175.13 200.851L97.1196 278.658L106.871 288.384L175.13 220.303Z" fill="#F39150"/>
<path d="M116.622 298.11L126.373 307.836L175.13 259.207L223.886 307.836L233.638 298.11L175.13 239.755L116.622 298.11Z" fill="#F39150"/>
<path d="M136.125 317.562L145.876 327.288L175.13 298.11L204.384 327.288L214.135 317.562L175.13 278.658L136.125 317.562Z" fill="#F39150"/>
<path d="M155.627 337.014L165.379 346.74L175.13 337.014L184.881 346.74L194.633 337.014L175.13 317.562L155.627 337.014Z" fill="#F39150"/>
<path d="M262.892 288.384L264.873 286.408V266.957L253.141 278.658L262.892 288.384Z" fill="#F39150"/>
<path d="M165.379 366.191L175.13 356.465L97.1194 278.658L89.8027 285.956V305.408L97.1194 298.11L165.379 366.191Z" fill="#F39150"/>
<path d="M145.876 385.643L155.627 375.917L97.1194 317.562L89.8027 324.86V344.311L97.1194 337.014L145.876 385.643Z" fill="#F39150"/>
<path d="M126.373 405.095L136.125 395.369L97.1194 356.465L89.8027 363.763V383.215L97.1194 375.917L126.373 405.095Z" fill="#F39150"/>
<path d="M106.871 424.547L116.622 414.821L97.1194 395.369L89.8027 402.666V422.118L97.1194 414.821L106.871 424.547Z" fill="#F39150"/>
<path d="M175.13 356.465L184.881 366.191L253.14 298.11L264.873 309.812V290.36L253.14 278.658L175.13 356.465Z" fill="#F39150"/>
<path d="M194.632 375.917L204.384 385.643L253.14 337.014L264.873 348.716V329.264L253.14 317.562L194.632 375.917Z" fill="#F39150"/>
<path d="M214.135 395.369L223.887 405.095L253.14 375.917L264.873 387.619V368.167L253.14 356.465L214.135 395.369Z" fill="#F39150"/>
<path d="M233.638 414.821L243.389 424.547L253.14 414.821L262.892 424.547L264.873 422.571V407.071L253.14 395.369L233.638 414.821Z" fill="#F39150"/>
<path d="M97.1194 434.272L89.8027 426.975V441.57L97.1194 434.272Z" fill="#F39150"/>
<path d="M175.13 356.465L97.1196 434.272L106.871 443.998L175.13 375.917L243.389 443.998L253.141 434.272L175.13 356.465Z" fill="#F39150"/>
<path d="M116.622 453.724L126.373 463.45L175.13 414.821L223.886 463.45L233.638 453.724L175.13 395.369L116.622 453.724Z" fill="#F39150"/>
<path d="M136.125 473.176L145.876 482.902L175.13 453.724L204.384 482.902L214.135 473.176L175.13 434.272L136.125 473.176Z" fill="#F39150"/>
<path d="M155.627 492.628L165.379 502.353L175.13 492.628L184.881 502.353L194.633 492.628L175.13 473.176L155.627 492.628Z" fill="#F39150"/>
<path d="M262.892 443.998L264.873 442.022V422.571L253.141 434.272L262.892 443.998Z" fill="#F39150"/>
<path d="M155.627 492.628L145.876 482.902L136.125 473.176L126.373 463.45L116.622 453.724L106.871 443.998L97.1194 434.272L89.8027 441.57V461.022L97.1194 453.724L155.627 512.079H175.13L165.379 502.354L155.627 492.628Z" fill="#F39150"/>
<path d="M97.1194 492.628L116.622 512.079H136.125L97.1194 473.176L89.8027 480.473V499.925L97.1194 492.628Z" fill="#F39150"/>
<path d="M262.892 443.998L253.14 434.272L243.389 443.998L233.638 453.724L223.886 463.45L214.135 473.176L204.384 482.902L194.632 492.628L184.881 502.354L175.13 512.079H194.632L253.14 453.724L264.873 465.426V445.974L262.892 443.998Z" fill="#F39150"/>
<path d="M253.14 473.176L214.135 512.079H233.638L253.14 492.628L264.873 504.329V484.878L253.14 473.176Z" fill="#F39150"/>
<path d="M87.3682 443.998L89.8028 441.57L87.3682 443.998Z" fill="#FED072"/>
<path d="M82.1432 30.7615C82.1432 33.7471 79.6941 36.1899 76.7006 36.1899H40.4167C37.4233 36.1899 34.9741 33.7471 34.9741 30.7615V24.4284C34.9741 21.4428 37.4233 19 40.4167 19H76.7006C79.6941 19 82.1432 21.4428 82.1432 24.4284V30.7615Z" fill="#F0823A"/>
<path d="M102.099 39.8089C102.099 42.7945 99.6503 45.2373 96.6569 45.2373H20.4607C17.4672 45.2373 15.0181 42.7945 15.0181 39.8089V33.4758C15.0181 30.4901 17.4672 28.0474 20.4607 28.0474H96.6569C99.6503 28.0474 102.099 30.4901 102.099 33.4758V39.8089Z" fill="#F9BD92"/>
<path d="M34.9741 529.238C34.9741 526.253 37.4233 523.81 40.4167 523.81H76.7006C79.6941 523.81 82.1432 526.253 82.1432 529.238V535.572C82.1432 538.557 79.6941 541 76.7006 541H40.4167C37.4233 541 34.9741 538.557 34.9741 535.572V529.238Z" fill="#F0823A"/>
<path d="M15.0181 520.191C15.0181 517.205 17.4672 514.763 20.4607 514.763H96.6569C99.6503 514.763 102.099 517.205 102.099 520.191V526.524C102.099 529.51 99.6503 531.953 96.6569 531.953H20.4607C17.4672 531.953 15.0181 529.51 15.0181 526.524V520.191Z" fill="#F9BD92"/>
<path d="M117.016 37.0947H0V521.127H117.016V37.0947Z" fill="#FFDD9E"/>
<path d="M102.502 50.6658H87.9883V507.556H102.502V50.6658Z" fill="#FFE4B3"/>
<path d="M48.0762 37.0947H0V521.127H48.0762V37.0947Z" fill="#FED072"/>
<path d="M183.026 540.612L186.179 542.865L191.639 546.77L237.259 572.066L246.842 578.772L276.445 596.452L295.82 608.847L293.464 540.919L183.026 540.612ZM286.624 585.802L228.241 550.228L253.207 551.04L268.383 551.535L286.716 552.132L286.624 585.802Z" fill="#9E5DA2"/>
<path d="M163 529.002L316.075 631V529.394L163 529.002ZM285.368 587.609L226.982 552.032L285.461 553.937L285.368 587.609Z" fill="#A86FAD"/>
<path d="M209.407 559.878L213.921 562.931C217.903 557.102 221.256 553.188 225.185 547.638C229.538 541.488 233.895 535.34 238.253 529.195L227.536 529.168C221.168 539.959 215.13 548.757 209.407 559.878Z" fill="#B281B8"/>
<path d="M163 529.002L190.925 547.608C194.612 541.029 198.031 535.562 201.938 529.102L163 529.002Z" fill="#B281B8"/>
<path d="M265.02 532.825C260.682 539.507 256.253 546.138 251.949 552.846L277.145 553.666C282.369 547.628 297.778 531.489 299.973 529.353L267.315 529.267C266.552 530.457 265.788 531.643 265.02 532.825Z" fill="#B281B8"/>
<path d="M244.542 564.401C241.426 569.673 239.724 572.758 236.639 578.067L245.801 584.171C250.644 579.113 253.614 576.236 258.547 571.266L245.325 563.123C245.067 563.552 244.796 563.972 244.542 564.401Z" fill="#B281B8"/>
<path d="M285.505 593.76C281.088 598.198 279.45 599.188 275.111 603.704L316.075 631L313.432 567.364C305.448 576.06 293.911 585.315 285.505 593.76Z" fill="#B281B8"/>
<path d="M312.759 529.404L314.541 629.902L316.075 630.997V529.394L312.759 529.404Z" fill="#9E5DA2"/>
<path d="M304.606 529.331H303.745V537.43H304.606V529.331Z" fill="#9E5DA2"/>
<path d="M300.648 529.321H299.787V533.372H300.648V529.321Z" fill="#9E5DA2"/>
<path d="M296.685 529.309H295.824V533.36H296.685V529.309Z" fill="#9E5DA2"/>
<path d="M292.725 529.299H291.864V533.349H292.725V529.299Z" fill="#9E5DA2"/>
<path d="M288.762 529.287H287.901V533.338H288.762V529.287Z" fill="#9E5DA2"/>
<path d="M284.794 529.277H283.934V537.376H284.794V529.277Z" fill="#9E5DA2"/>
<path d="M280.836 529.265H279.976V533.315H280.836V529.265Z" fill="#9E5DA2"/>
<path d="M276.876 529.255H276.016V533.306H276.876V529.255Z" fill="#9E5DA2"/>
<path d="M272.914 529.243H272.053V533.293H272.914V529.243Z" fill="#9E5DA2"/>
<path d="M268.951 529.233H268.09V533.284H268.951V529.233Z" fill="#9E5DA2"/>
<path d="M264.983 529.221H264.122V537.32H264.983V529.221Z" fill="#9E5DA2"/>
<path d="M261.025 529.211H260.164V533.262H261.025V529.211Z" fill="#9E5DA2"/>
<path d="M257.065 529.199H256.204V533.25H257.065V529.199Z" fill="#9E5DA2"/>
<path d="M253.102 529.187H252.241V533.238H253.102V529.187Z" fill="#9E5DA2"/>
<path d="M249.139 529.177H248.278V533.228H249.139V529.177Z" fill="#9E5DA2"/>
<path d="M245.171 529.165H244.311V537.264H245.171V529.165Z" fill="#9E5DA2"/>
<path d="M241.217 529.156H240.356V533.206H241.217V529.156Z" fill="#9E5DA2"/>
<path d="M237.254 529.143H236.394V533.191H237.254V529.143Z" fill="#9E5DA2"/>
<path d="M233.291 529.133H232.431V533.184H233.291V529.133Z" fill="#9E5DA2"/>
<path d="M229.329 529.121H228.468V533.171H229.329V529.121Z" fill="#9E5DA2"/>
<path d="M225.36 529.111H224.499V537.21H225.36V529.111Z" fill="#9E5DA2"/>
<path d="M221.406 529.099H220.545V533.149H221.406V529.099Z" fill="#9E5DA2"/>
<path d="M217.443 529.089H216.582V533.14H217.443V529.089Z" fill="#9E5DA2"/>
<path d="M213.48 529.077H212.62V533.128H213.48V529.077Z" fill="#9E5DA2"/>
<path d="M209.518 529.067H208.657V533.118H209.518V529.067Z" fill="#9E5DA2"/>
<path d="M205.549 529.055H204.688V537.154H205.549V529.055Z" fill="#9E5DA2"/>
<path d="M201.594 529.045H200.733V533.096H201.594V529.045Z" fill="#9E5DA2"/>
<path d="M197.632 529.033H196.771V533.084H197.632V529.033Z" fill="#9E5DA2"/>
<path d="M193.669 529.024H192.808V533.074H193.669V529.024Z" fill="#9E5DA2"/>
<path d="M189.708 529.011H188.848V533.062H189.708V529.011Z" fill="#9E5DA2"/>
<path d="M185.729 537.101L185.751 529.002L184.891 529L184.868 537.099L185.729 537.101Z" fill="#9E5DA2"/>
<path d="M162 0L162.032 10H318.482C318.482 10 321.053 8.51282 320.999 5.00197C320.939 1.12032 318.45 0 318.45 0H162Z" fill="#D1B8DA"/>
<path d="M147.704 5.31361L162 0L162.036 10L147.704 5.31361Z" fill="#9E5DA2"/>
<path d="M332 45H285V149.984H332V45Z" fill="#DDE9F8"/>
<path d="M332 45H285V59.4806H332V45Z" fill="#CADEF4"/>
<path d="M331.096 138.219H285V149.984H331.096V138.219Z" fill="#CADEF4"/>
<path d="M332 45H329.288V149.984H332V45Z" fill="#8EBDE7"/>
<path d="M324.092 119.564C324.418 119.564 324.702 119.513 324.944 119.411C325.186 119.31 325.388 119.172 325.548 118.996C325.709 118.82 325.828 118.614 325.908 118.376C325.987 118.139 326.026 117.881 326.026 117.604C326.026 117.367 325.994 117.134 325.929 116.906C325.865 116.679 325.776 116.457 325.663 116.242C325.549 116.027 325.413 115.819 325.255 115.618C325.097 115.418 324.922 115.231 324.729 115.058H326.033C326.364 115.399 326.617 115.781 326.792 116.205C326.968 116.628 327.055 117.143 327.055 117.753C327.055 118.188 326.993 118.592 326.867 118.962C326.741 119.333 326.557 119.654 326.314 119.926C326.071 120.199 325.773 120.412 325.418 120.568C325.062 120.724 324.654 120.802 324.195 120.802C323.775 120.802 323.394 120.754 323.053 120.657C322.713 120.56 322.392 120.414 322.09 120.219C321.788 120.023 321.5 119.777 321.223 119.48C320.946 119.183 320.665 118.835 320.378 118.434C320.022 117.934 319.718 117.523 319.466 117.199C319.214 116.875 318.978 116.618 318.758 116.427C318.539 116.237 318.319 116.103 318.099 116.026C317.88 115.949 317.627 115.911 317.339 115.911V121.209H316.25V114.643H316.776C317.231 114.643 317.63 114.693 317.976 114.791C318.323 114.89 318.651 115.054 318.962 115.281C319.273 115.508 319.585 115.807 319.896 116.175C320.207 116.543 320.558 116.995 320.948 117.529C321.225 117.915 321.49 118.238 321.741 118.497C321.993 118.757 322.245 118.966 322.496 119.125C322.749 119.283 323.004 119.395 323.263 119.462C323.525 119.53 323.8 119.564 324.092 119.564Z" fill="#0095D4"/>
<path d="M321.609 129.596C320.719 129.596 319.931 129.515 319.244 129.355C318.557 129.195 317.978 128.961 317.507 128.657C317.035 128.353 316.677 127.979 316.431 127.537C316.187 127.094 316.064 126.591 316.064 126.026C316.064 125.492 316.182 125.016 316.416 124.598C316.651 124.18 316.993 123.828 317.443 123.541C317.893 123.254 318.444 123.036 319.099 122.888C319.754 122.739 320.503 122.665 321.348 122.665C322.277 122.665 323.097 122.743 323.809 122.899C324.52 123.054 325.116 123.283 325.598 123.585C326.079 123.886 326.443 124.261 326.687 124.709C326.932 125.157 327.054 125.67 327.054 126.248C327.055 128.48 325.24 129.596 321.609 129.596ZM321.49 128.35C324.514 128.35 326.026 127.63 326.026 126.19C326.026 124.672 324.486 123.912 321.409 123.912C318.538 123.912 317.103 124.657 317.103 126.146C317.103 127.615 318.564 128.35 321.49 128.35Z" fill="#0095D4"/>
<path d="M321.609 137.788C320.719 137.788 319.931 137.708 319.244 137.547C318.557 137.386 317.978 137.154 317.507 136.85C317.035 136.546 316.677 136.172 316.431 135.729C316.187 135.287 316.064 134.783 316.064 134.219C316.064 133.685 316.182 133.209 316.416 132.791C316.651 132.372 316.993 132.02 317.443 131.734C317.893 131.447 318.444 131.228 319.099 131.08C319.754 130.932 320.503 130.857 321.348 130.857C322.277 130.857 323.097 130.935 323.809 131.091C324.52 131.247 325.116 131.476 325.598 131.777C326.079 132.078 326.443 132.453 326.687 132.901C326.932 133.349 327.054 133.862 327.054 134.44C327.055 136.673 325.24 137.788 321.609 137.788ZM321.49 136.542C324.514 136.542 326.026 135.822 326.026 134.383C326.026 132.864 324.486 132.105 321.409 132.105C318.538 132.105 317.103 132.849 317.103 134.338C317.103 135.807 318.564 136.542 321.49 136.542Z" fill="#0095D4"/>
<path d="M321.609 145.981C320.719 145.981 319.931 145.9 319.244 145.74C318.557 145.58 317.978 145.346 317.507 145.042C317.035 144.738 316.677 144.364 316.431 143.922C316.187 143.479 316.064 142.976 316.064 142.411C316.064 141.877 316.182 141.401 316.416 140.983C316.651 140.565 316.993 140.213 317.443 139.926C317.893 139.639 318.444 139.421 319.099 139.272C319.754 139.124 320.503 139.05 321.348 139.05C322.277 139.05 323.097 139.128 323.809 139.283C324.52 139.439 325.116 139.668 325.598 139.969C326.079 140.271 326.443 140.645 326.687 141.093C326.932 141.541 327.054 142.055 327.054 142.633C327.055 144.866 325.24 145.981 321.609 145.981ZM321.49 144.734C324.514 144.734 326.026 144.015 326.026 142.575C326.026 141.056 324.486 140.297 321.409 140.297C318.538 140.297 317.103 141.042 317.103 142.531C317.103 143.999 318.564 144.734 321.49 144.734Z" fill="#0095D4"/>
<path d="M328.384 66.7209H325.673V98.3973H328.384V66.7209Z" fill="#76B3E2"/>
<path d="M307.597 73.0562V70.3411L322.058 71.352L307.597 73.0562Z" fill="#8EBDE7"/>
<path d="M296.593 116.876L302.324 115.593L311.363 71.6987L310.459 72.1512L296.593 116.876Z" fill="#8EBDE7"/>
<path d="M324.59 86.2545L324.576 88.7062L291.327 86.4807V82.1067L307.596 85.4065L324.59 86.2545Z" fill="#8EBDE7"/>
<path d="M324.77 92.062V93.8721L295.847 97.1148V93.8721L324.77 92.062Z" fill="#8EBDE7"/>
<path d="M303.077 99.3022H295.847V101.112H303.077V99.3022Z" fill="#8EBDE7"/>
<path d="M303.077 102.018H295.847V104.733H303.077V102.018Z" fill="#8EBDE7"/>
<path d="M302.625 86.5566C302.55 86.7829 303.077 93.8721 303.077 93.8721H304.885L306.731 86.7449L302.625 86.5566Z" fill="#8EBDE7"/>
<path d="M294.039 88.4419H289.52V135.504H294.039V88.4419Z" fill="#76B3E2"/>
<path d="M310.308 135.504H297.654V149.985H310.308V135.504Z" fill="#8EBDE7"/>
<path d="M320.25 49.5251C320.25 49.5251 317.087 51.5054 315.9 55.2948C315.15 57.6931 315.279 59.4806 315.279 59.4806H299.462V49.5251H320.25Z" fill="#F8C7C8"/>
<path d="M323.554 58.8019C325.723 58.8019 327.481 57.0418 327.481 54.8705C327.481 52.6992 325.723 50.939 323.554 50.939C321.386 50.939 319.628 52.6992 319.628 54.8705C319.628 57.0418 321.386 58.8019 323.554 58.8019Z" fill="#8EBDE7"/>
<path d="M308.5 118.308C311.212 118.308 313.669 115.991 313.669 113.132C313.669 110.273 311.212 107.957 308.5 107.957V118.308Z" fill="#FDC95A"/>
<path d="M299.462 51.3352H291.327V61.2906H299.462V51.3352Z" fill="#0095D4"/>
<path d="M297.654 60.3855H288.615V83.9165H297.654V60.3855Z" fill="#0095D4"/>
<path d="M295.081 68.0033C295.247 68.0033 295.392 67.9771 295.515 67.9255C295.639 67.8739 295.741 67.8033 295.824 67.7137C295.906 67.6241 295.966 67.5191 296.007 67.3979C296.048 67.2766 296.068 67.1453 296.068 67.0042C296.068 66.8829 296.051 66.7643 296.019 66.6485C295.986 66.5326 295.94 66.4195 295.882 66.31C295.825 66.2005 295.755 66.0946 295.675 65.9923C295.594 65.8901 295.505 65.795 295.406 65.7063H296.071C296.24 65.8801 296.37 66.0756 296.458 66.291C296.548 66.5064 296.593 66.7698 296.593 67.0802C296.593 67.3019 296.561 67.5074 296.496 67.6965C296.432 67.8857 296.338 68.0495 296.215 68.188C296.091 68.3264 295.939 68.4359 295.758 68.5156C295.576 68.5952 295.368 68.635 295.134 68.635C294.92 68.635 294.726 68.6106 294.552 68.5608C294.378 68.5111 294.215 68.4368 294.061 68.3373C293.908 68.2377 293.76 68.1119 293.619 67.9608C293.478 67.8096 293.334 67.6314 293.188 67.4277C293.006 67.1725 292.852 66.9625 292.723 66.7978C292.595 66.6331 292.475 66.501 292.363 66.4041C292.251 66.3073 292.139 66.2394 292.027 66.1996C291.915 66.1607 291.785 66.1408 291.639 66.1408V68.8423H291.083V65.4937H291.351C291.583 65.4937 291.787 65.519 291.963 65.5697C292.14 65.6204 292.307 65.7036 292.466 65.8195C292.625 65.9353 292.783 66.0874 292.942 66.2756C293.101 66.4639 293.279 66.6937 293.479 66.9662C293.62 67.1625 293.755 67.3273 293.883 67.4603C294.011 67.5924 294.14 67.6992 294.268 67.7798C294.397 67.8603 294.528 67.9183 294.66 67.9517C294.792 67.987 294.932 68.0033 295.081 68.0033Z" fill="white"/>
<path d="M293.816 73.1186C293.362 73.1186 292.96 73.0779 292.61 72.9956C292.259 72.9132 291.964 72.7946 291.724 72.6399C291.484 72.4851 291.301 72.2942 291.175 72.0688C291.051 71.8434 290.988 71.5864 290.988 71.2986C290.988 71.0262 291.048 70.7836 291.167 70.5701C291.287 70.3565 291.461 70.1773 291.691 70.0307C291.92 69.884 292.201 69.7736 292.535 69.6976C292.869 69.6216 293.251 69.5845 293.682 69.5845C294.155 69.5845 294.574 69.6243 294.936 69.7039C295.299 69.7836 295.603 69.9003 295.849 70.0542C296.094 70.208 296.28 70.399 296.404 70.6271C296.529 70.8551 296.591 71.1167 296.591 71.4117C296.593 72.5503 295.667 73.1186 293.816 73.1186ZM293.755 72.4833C295.297 72.4833 296.068 72.1159 296.068 71.3819C296.068 70.6072 295.283 70.2207 293.713 70.2207C292.25 70.2207 291.518 70.6008 291.518 71.3593C291.518 72.1086 292.264 72.4833 293.755 72.4833Z" fill="white"/>
<path d="M293.816 77.2964C293.362 77.2964 292.96 77.2557 292.61 77.1733C292.259 77.0909 291.964 76.9724 291.724 76.8176C291.484 76.6629 291.301 76.4719 291.175 76.2465C291.051 76.0212 290.988 75.7642 290.988 75.4764C290.988 75.2039 291.048 74.9614 291.167 74.7478C291.287 74.5342 291.461 74.355 291.691 74.2084C291.92 74.0618 292.201 73.9514 292.535 73.8753C292.869 73.7993 293.251 73.7622 293.682 73.7622C294.155 73.7622 294.574 73.802 294.936 73.8817C295.299 73.9613 295.603 74.0781 295.849 74.2319C296.094 74.3858 296.28 74.5767 296.404 74.8048C296.529 75.0329 296.591 75.2944 296.591 75.5895C296.593 76.7271 295.667 77.2964 293.816 77.2964ZM293.755 76.661C295.297 76.661 296.068 76.2936 296.068 75.5596C296.068 74.7849 295.283 74.3985 293.713 74.3985C292.25 74.3985 291.518 74.7786 291.518 75.537C291.518 76.2864 292.264 76.661 293.755 76.661Z" fill="white"/>
<path d="M293.816 81.4731C293.362 81.4731 292.961 81.4324 292.61 81.3501C292.259 81.2677 291.965 81.1491 291.724 80.9944C291.484 80.8396 291.301 80.6496 291.176 80.4233C291.052 80.1979 290.989 79.9409 290.989 79.6531C290.989 79.3807 291.049 79.1381 291.168 78.9246C291.288 78.711 291.462 78.5318 291.692 78.3851C291.921 78.2385 292.202 78.1281 292.536 78.0521C292.87 77.9761 293.252 77.939 293.683 77.939C294.156 77.939 294.575 77.9788 294.937 78.0584C295.3 78.1381 295.604 78.2548 295.85 78.4087C296.095 78.5625 296.281 78.7535 296.405 78.9816C296.53 79.2096 296.592 79.4712 296.592 79.7662C296.593 80.9048 295.667 81.4731 293.816 81.4731ZM293.755 80.8378C295.297 80.8378 296.068 80.4704 296.068 79.7364C296.068 78.9617 295.283 78.5752 293.713 78.5752C292.25 78.5752 291.518 78.9553 291.518 79.7137C291.518 80.4631 292.264 80.8378 293.755 80.8378Z" fill="white"/>
<path d="M332 164.465H285V269.45H332V164.465Z" fill="#DDE9F8"/>
<path d="M332 164.465H285V178.946H332V164.465Z" fill="#CADEF4"/>
<path d="M331.096 257.684H285V269.45H331.096V257.684Z" fill="#CADEF4"/>
<path d="M332 164.465H329.288V269.45H332V164.465Z" fill="#8EBDE7"/>
<path d="M324.092 239.029C324.418 239.029 324.702 238.978 324.944 238.877C325.186 238.775 325.388 238.637 325.548 238.461C325.709 238.286 325.828 238.079 325.908 237.841C325.987 237.604 326.026 237.346 326.026 237.069C326.026 236.832 325.994 236.599 325.929 236.371C325.865 236.144 325.776 235.923 325.663 235.707C325.549 235.492 325.413 235.284 325.255 235.084C325.097 234.884 324.922 234.696 324.729 234.523H326.033C326.364 234.865 326.617 235.246 326.792 235.67C326.968 236.093 327.055 236.609 327.055 237.218C327.055 237.653 326.993 238.057 326.867 238.428C326.741 238.799 326.557 239.12 326.314 239.392C326.071 239.665 325.773 239.878 325.418 240.034C325.062 240.19 324.654 240.268 324.195 240.268C323.775 240.268 323.394 240.22 323.053 240.123C322.713 240.026 322.392 239.88 322.09 239.685C321.788 239.489 321.5 239.243 321.223 238.946C320.946 238.649 320.665 238.301 320.378 237.9C320.022 237.4 319.718 236.989 319.466 236.665C319.214 236.341 318.978 236.084 318.758 235.893C318.539 235.703 318.319 235.569 318.099 235.492C317.88 235.415 317.627 235.377 317.339 235.377V240.675H316.25V234.108H316.776C317.231 234.108 317.63 234.158 317.976 234.256C318.323 234.355 318.651 234.519 318.962 234.746C319.273 234.973 319.585 235.272 319.896 235.64C320.207 236.008 320.558 236.46 320.948 236.994C321.225 237.38 321.49 237.703 321.741 237.962C321.993 238.222 322.245 238.431 322.496 238.59C322.749 238.748 323.004 238.86 323.263 238.927C323.525 238.995 323.8 239.029 324.092 239.029Z" fill="#0095D4"/>
<path d="M321.609 249.061C320.719 249.061 319.931 248.98 319.244 248.82C318.557 248.659 317.978 248.426 317.507 248.122C317.035 247.818 316.677 247.445 316.431 247.002C316.187 246.559 316.064 246.056 316.064 245.491C316.064 244.957 316.182 244.481 316.416 244.063C316.651 243.645 316.993 243.293 317.443 243.006C317.893 242.719 318.444 242.501 319.099 242.353C319.754 242.204 320.503 242.13 321.348 242.13C322.277 242.13 323.097 242.208 323.809 242.364C324.52 242.519 325.116 242.748 325.598 243.05C326.079 243.351 326.443 243.726 326.687 244.174C326.932 244.622 327.054 245.135 327.054 245.713C327.055 247.945 325.24 249.061 321.609 249.061ZM321.49 247.815C324.514 247.815 326.026 247.095 326.026 245.655C326.026 244.137 324.486 243.377 321.409 243.377C318.538 243.377 317.103 244.122 317.103 245.611C317.103 247.08 318.564 247.815 321.49 247.815Z" fill="#0095D4"/>
<path d="M321.609 257.253C320.719 257.253 319.931 257.173 319.244 257.013C318.557 256.852 317.978 256.619 317.507 256.315C317.035 256.011 316.677 255.637 316.431 255.194C316.187 254.752 316.064 254.249 316.064 253.684C316.064 253.15 316.182 252.674 316.416 252.256C316.651 251.838 316.993 251.485 317.443 251.199C317.893 250.912 318.444 250.694 319.099 250.545C319.754 250.397 320.503 250.323 321.348 250.323C322.277 250.323 323.097 250.4 323.809 250.556C324.52 250.712 325.116 250.941 325.598 251.242C326.079 251.543 326.443 251.918 326.687 252.366C326.932 252.814 327.054 253.327 327.054 253.906C327.055 256.138 325.24 257.253 321.609 257.253ZM321.49 256.007C324.514 256.007 326.026 255.288 326.026 253.848C326.026 252.329 324.486 251.57 321.409 251.57C318.538 251.57 317.103 252.315 317.103 253.803C317.103 255.272 318.564 256.007 321.49 256.007Z" fill="#0095D4"/>
<path d="M321.609 265.446C320.719 265.446 319.931 265.365 319.244 265.205C318.557 265.045 317.978 264.811 317.507 264.507C317.035 264.203 316.677 263.829 316.431 263.387C316.187 262.944 316.064 262.441 316.064 261.876C316.064 261.342 316.182 260.866 316.416 260.448C316.651 260.03 316.993 259.678 317.443 259.391C317.893 259.104 318.444 258.886 319.099 258.738C319.754 258.589 320.503 258.515 321.348 258.515C322.277 258.515 323.097 258.593 323.809 258.748C324.52 258.904 325.116 259.133 325.598 259.434C326.079 259.736 326.443 260.11 326.687 260.558C326.932 261.006 327.054 261.52 327.054 262.098C327.055 264.331 325.24 265.446 321.609 265.446ZM321.49 264.199C324.514 264.199 326.026 263.48 326.026 262.04C326.026 260.521 324.486 259.762 321.409 259.762C318.538 259.762 317.103 260.507 317.103 261.996C317.103 263.465 318.564 264.199 321.49 264.199Z" fill="#0095D4"/>
<path d="M328.384 186.186H325.673V217.862H328.384V186.186Z" fill="#76B3E2"/>
<path d="M307.597 192.521V189.806L322.058 190.817L307.597 192.521Z" fill="#8EBDE7"/>
<path d="M296.593 236.341L302.324 235.058L311.363 191.164L310.459 191.616L296.593 236.341Z" fill="#8EBDE7"/>
<path d="M324.59 205.72L324.576 208.171L291.327 205.946V201.572L307.596 204.872L324.59 205.72Z" fill="#8EBDE7"/>
<path d="M324.77 211.527V213.337L295.847 216.58V213.337L324.77 211.527Z" fill="#8EBDE7"/>
<path d="M303.077 218.767H295.847V220.577H303.077V218.767Z" fill="#8EBDE7"/>
<path d="M303.077 221.482H295.847V224.198H303.077V221.482Z" fill="#8EBDE7"/>
<path d="M302.625 206.022C302.55 206.248 303.077 213.337 303.077 213.337H304.885L306.731 206.21L302.625 206.022Z" fill="#8EBDE7"/>
<path d="M294.039 207.907H289.52V254.969H294.039V207.907Z" fill="#76B3E2"/>
<path d="M310.308 254.969H297.654V269.45H310.308V254.969Z" fill="#8EBDE7"/>
<path d="M320.25 168.99C320.25 168.99 317.087 170.97 315.9 174.76C315.15 177.158 315.279 178.946 315.279 178.946H299.462V168.99H320.25Z" fill="#F8C7C8"/>
<path d="M323.554 178.267C325.723 178.267 327.481 176.507 327.481 174.336C327.481 172.164 325.723 170.404 323.554 170.404C321.386 170.404 319.628 172.164 319.628 174.336C319.628 176.507 321.386 178.267 323.554 178.267Z" fill="#8EBDE7"/>
<path d="M308.5 237.773C311.212 237.773 313.669 235.456 313.669 232.597C313.669 229.739 311.212 227.421 308.5 227.421V237.773Z" fill="#FDC95A"/>
<path d="M299.462 170.8H291.327V180.756H299.462V170.8Z" fill="#0095D4"/>
<path d="M297.654 179.851H288.615V203.382H297.654V179.851Z" fill="#0095D4"/>
<path d="M295.081 187.468C295.247 187.468 295.392 187.442 295.515 187.391C295.639 187.339 295.741 187.268 295.824 187.179C295.906 187.089 295.966 186.984 296.007 186.863C296.048 186.742 296.068 186.61 296.068 186.469C296.068 186.348 296.051 186.229 296.019 186.114C295.986 185.998 295.94 185.885 295.882 185.775C295.825 185.666 295.755 185.56 295.675 185.457C295.594 185.355 295.505 185.26 295.406 185.171H296.071C296.24 185.345 296.37 185.541 296.458 185.756C296.548 185.971 296.593 186.235 296.593 186.545C296.593 186.767 296.561 186.972 296.496 187.162C296.432 187.351 296.338 187.515 296.215 187.653C296.091 187.792 295.939 187.901 295.758 187.981C295.576 188.06 295.368 188.1 295.134 188.1C294.92 188.1 294.726 188.076 294.552 188.026C294.378 187.977 294.215 187.902 294.061 187.802C293.908 187.703 293.76 187.577 293.619 187.426C293.478 187.275 293.334 187.096 293.188 186.893C293.006 186.638 292.852 186.428 292.723 186.263C292.595 186.098 292.475 185.966 292.363 185.869C292.251 185.772 292.139 185.704 292.027 185.665C291.915 185.626 291.785 185.606 291.639 185.606V188.307H291.083V184.959H291.351C291.583 184.959 291.787 184.984 291.963 185.035C292.14 185.085 292.307 185.169 292.466 185.285C292.625 185.4 292.783 185.552 292.942 185.741C293.101 185.929 293.279 186.159 293.479 186.431C293.62 186.628 293.755 186.792 293.883 186.925C294.011 187.058 294.14 187.164 294.268 187.245C294.397 187.325 294.528 187.383 294.66 187.417C294.792 187.452 294.932 187.468 295.081 187.468Z" fill="white"/>
<path d="M293.816 192.584C293.362 192.584 292.96 192.544 292.61 192.461C292.259 192.379 291.964 192.26 291.724 192.106C291.484 191.951 291.301 191.76 291.175 191.535C291.051 191.309 290.988 191.052 290.988 190.764C290.988 190.492 291.048 190.249 291.167 190.036C291.287 189.822 291.461 189.643 291.691 189.496C291.92 189.35 292.201 189.239 292.535 189.163C292.869 189.087 293.251 189.05 293.682 189.05C294.155 189.05 294.574 189.09 294.936 189.17C295.299 189.249 295.603 189.366 295.849 189.52C296.094 189.674 296.28 189.865 296.404 190.093C296.529 190.321 296.591 190.583 296.591 190.878C296.593 192.015 295.667 192.584 293.816 192.584ZM293.755 191.948C295.297 191.948 296.068 191.581 296.068 190.847C296.068 190.072 295.283 189.686 293.713 189.686C292.25 189.686 291.518 190.066 291.518 190.824C291.518 191.574 292.264 191.948 293.755 191.948Z" fill="white"/>
<path d="M293.816 196.761C293.362 196.761 292.96 196.721 292.61 196.638C292.259 196.556 291.964 196.437 291.724 196.282C291.484 196.128 291.301 195.937 291.175 195.711C291.051 195.486 290.988 195.229 290.988 194.941C290.988 194.669 291.048 194.426 291.167 194.213C291.287 193.999 291.461 193.82 291.691 193.673C291.92 193.527 292.201 193.416 292.535 193.34C292.869 193.264 293.251 193.227 293.682 193.227C294.155 193.227 294.574 193.267 294.936 193.347C295.299 193.426 295.603 193.543 295.849 193.697C296.094 193.851 296.28 194.042 296.404 194.27C296.529 194.498 296.591 194.759 296.591 195.054C296.593 196.192 295.667 196.761 293.816 196.761ZM293.755 196.126C295.297 196.126 296.068 195.758 296.068 195.024C296.068 194.25 295.283 193.863 293.713 193.863C292.25 193.863 291.518 194.243 291.518 195.002C291.518 195.751 292.264 196.126 293.755 196.126Z" fill="white"/>
<path d="M293.816 200.938C293.362 200.938 292.96 200.897 292.61 200.815C292.259 200.733 291.964 200.614 291.724 200.459C291.484 200.304 291.301 200.113 291.175 199.888C291.051 199.663 290.988 199.406 290.988 199.118C290.988 198.846 291.048 198.603 291.167 198.389C291.287 198.176 291.461 197.997 291.691 197.85C291.92 197.703 292.201 197.593 292.535 197.517C292.869 197.441 293.251 197.404 293.682 197.404C294.155 197.404 294.574 197.444 294.936 197.523C295.299 197.603 295.603 197.72 295.849 197.874C296.094 198.027 296.28 198.218 296.404 198.446C296.529 198.674 296.591 198.936 296.591 199.231C296.593 200.37 295.667 200.938 293.816 200.938ZM293.755 200.303C295.297 200.303 296.068 199.935 296.068 199.201C296.068 198.426 295.283 198.04 293.713 198.04C292.25 198.04 291.518 198.42 291.518 199.179C291.518 199.928 292.264 200.303 293.755 200.303Z" fill="white"/>
<path d="M332 283.93H285V388.915H332V283.93Z" fill="#DDE9F8"/>
<path d="M332 283.93H285V298.411H332V283.93Z" fill="#CADEF4"/>
<path d="M331.096 377.149H285V388.915H331.096V377.149Z" fill="#CADEF4"/>
<path d="M332 283.93H329.288V388.915H332V283.93Z" fill="#8EBDE7"/>
<path d="M324.092 358.494C324.418 358.494 324.702 358.443 324.944 358.342C325.186 358.24 325.388 358.102 325.548 357.926C325.709 357.751 325.828 357.544 325.908 357.306C325.987 357.069 326.026 356.811 326.026 356.534C326.026 356.297 325.994 356.064 325.929 355.836C325.865 355.609 325.776 355.388 325.663 355.172C325.549 354.957 325.413 354.749 325.255 354.549C325.097 354.348 324.922 354.161 324.729 353.988H326.033C326.364 354.33 326.617 354.711 326.792 355.135C326.968 355.558 327.055 356.074 327.055 356.683C327.055 357.118 326.993 357.522 326.867 357.892C326.741 358.263 326.557 358.584 326.314 358.857C326.071 359.129 325.773 359.343 325.418 359.498C325.062 359.654 324.654 359.732 324.195 359.732C323.775 359.732 323.394 359.684 323.053 359.587C322.713 359.49 322.392 359.344 322.09 359.149C321.788 358.953 321.5 358.707 321.223 358.41C320.946 358.114 320.665 357.765 320.378 357.364C320.022 356.865 319.718 356.453 319.466 356.129C319.214 355.805 318.978 355.548 318.758 355.357C318.539 355.167 318.319 355.033 318.099 354.956C317.88 354.879 317.627 354.841 317.339 354.841V360.139H316.25V353.572H316.776C317.231 353.572 317.63 353.622 317.976 353.72C318.323 353.819 318.651 353.983 318.962 354.21C319.273 354.437 319.585 354.736 319.896 355.104C320.207 355.473 320.558 355.924 320.948 356.458C321.225 356.844 321.49 357.167 321.741 357.427C321.993 357.686 322.245 357.895 322.496 358.054C322.748 358.212 323.004 358.324 323.263 358.391C323.525 358.46 323.8 358.494 324.092 358.494Z" fill="#0095D4"/>
<path d="M321.609 368.526C320.719 368.526 319.931 368.445 319.244 368.285C318.557 368.125 317.978 367.892 317.507 367.587C317.035 367.283 316.677 366.91 316.431 366.467C316.187 366.024 316.064 365.521 316.064 364.957C316.064 364.423 316.182 363.947 316.416 363.528C316.651 363.11 316.993 362.758 317.443 362.471C317.893 362.184 318.444 361.966 319.099 361.818C319.754 361.669 320.503 361.595 321.348 361.595C322.277 361.595 323.097 361.673 323.809 361.829C324.52 361.984 325.116 362.213 325.598 362.515C326.079 362.816 326.443 363.191 326.687 363.639C326.932 364.087 327.054 364.6 327.054 365.178C327.055 367.41 325.24 368.526 321.609 368.526ZM321.49 367.28C324.514 367.28 326.026 366.56 326.026 365.12C326.026 363.602 324.486 362.842 321.409 362.842C318.538 362.842 317.103 363.587 317.103 365.076C317.103 366.545 318.564 367.28 321.49 367.28Z" fill="#0095D4"/>
<path d="M321.609 376.718C320.719 376.718 319.931 376.638 319.244 376.478C318.557 376.317 317.978 376.084 317.507 375.78C317.035 375.476 316.677 375.102 316.431 374.659C316.187 374.217 316.064 373.714 316.064 373.149C316.064 372.615 316.182 372.139 316.416 371.721C316.651 371.303 316.993 370.951 317.443 370.664C317.893 370.377 318.444 370.159 319.099 370.01C319.754 369.862 320.503 369.788 321.348 369.788C322.277 369.788 323.097 369.865 323.809 370.021C324.52 370.177 325.116 370.406 325.598 370.707C326.079 371.008 326.443 371.383 326.687 371.831C326.932 372.279 327.054 372.792 327.054 373.371C327.055 375.603 325.24 376.718 321.609 376.718ZM321.49 375.472C324.514 375.472 326.026 374.753 326.026 373.313C326.026 371.794 324.486 371.035 321.409 371.035C318.538 371.035 317.103 371.78 317.103 373.268C317.103 374.737 318.564 375.472 321.49 375.472Z" fill="#0095D4"/>
<path d="M321.609 384.911C320.719 384.911 319.931 384.83 319.244 384.67C318.557 384.51 317.978 384.276 317.507 383.972C317.035 383.668 316.677 383.294 316.431 382.852C316.187 382.409 316.064 381.906 316.064 381.341C316.064 380.807 316.182 380.331 316.416 379.913C316.651 379.495 316.993 379.143 317.443 378.856C317.893 378.569 318.444 378.351 319.099 378.203C319.754 378.054 320.503 377.98 321.348 377.98C322.277 377.98 323.097 378.058 323.809 378.213C324.52 378.369 325.116 378.598 325.598 378.899C326.079 379.201 326.443 379.576 326.687 380.024C326.932 380.472 327.054 380.985 327.054 381.563C327.055 383.796 325.24 384.911 321.609 384.911ZM321.49 383.665C324.514 383.665 326.026 382.945 326.026 381.505C326.026 379.986 324.486 379.227 321.409 379.227C318.538 379.227 317.103 379.972 317.103 381.461C317.103 382.93 318.564 383.665 321.49 383.665Z" fill="#0095D4"/>
<path d="M328.384 305.651H325.673V337.327H328.384V305.651Z" fill="#76B3E2"/>
<path d="M307.597 311.986V309.271L322.058 310.282L307.597 311.986Z" fill="#8EBDE7"/>
<path d="M296.593 355.806L302.324 354.523L311.363 310.629L310.459 311.081L296.593 355.806Z" fill="#8EBDE7"/>
<path d="M324.59 325.184L324.576 327.636L291.327 325.411V321.037L307.596 324.336L324.59 325.184Z" fill="#8EBDE7"/>
<path d="M324.77 330.992V332.802L295.847 336.045V332.802L324.77 330.992Z" fill="#8EBDE7"/>
<path d="M303.077 338.232H295.847V340.042H303.077V338.232Z" fill="#8EBDE7"/>
<path d="M303.077 340.948H295.847V343.663H303.077V340.948Z" fill="#8EBDE7"/>
<path d="M302.625 325.487C302.55 325.713 303.077 332.802 303.077 332.802H304.885L306.731 325.675L302.625 325.487Z" fill="#8EBDE7"/>
<path d="M294.039 327.372H289.52V374.434H294.039V327.372Z" fill="#76B3E2"/>
<path d="M310.308 374.434H297.654V388.915H310.308V374.434Z" fill="#8EBDE7"/>
<path d="M320.25 288.455C320.25 288.455 317.087 290.436 315.9 294.225C315.15 296.623 315.279 298.411 315.279 298.411H299.462V288.455H320.25Z" fill="#F8C7C8"/>
<path d="M323.554 297.732C325.723 297.732 327.481 295.972 327.481 293.801C327.481 291.629 325.723 289.869 323.554 289.869C321.386 289.869 319.628 291.629 319.628 293.801C319.628 295.972 321.386 297.732 323.554 297.732Z" fill="#8EBDE7"/>
<path d="M308.5 357.238C311.212 357.238 313.669 354.921 313.669 352.062C313.669 349.204 311.212 346.886 308.5 346.886V357.238Z" fill="#FDC95A"/>
<path d="M299.462 290.265H291.327V300.221H299.462V290.265Z" fill="#0095D4"/>
<path d="M297.654 299.316H288.615V322.847H297.654V299.316Z" fill="#0095D4"/>
<path d="M295.081 306.933C295.247 306.933 295.392 306.907 295.515 306.856C295.639 306.804 295.741 306.733 295.824 306.644C295.906 306.554 295.966 306.449 296.007 306.328C296.048 306.207 296.068 306.076 296.068 305.934C296.068 305.813 296.051 305.695 296.019 305.579C295.986 305.463 295.94 305.35 295.882 305.24C295.825 305.131 295.755 305.025 295.675 304.923C295.594 304.82 295.505 304.725 295.406 304.636H296.071C296.24 304.81 296.37 305.006 296.458 305.221C296.548 305.437 296.593 305.7 296.593 306.01C296.593 306.232 296.561 306.438 296.496 306.627C296.432 306.816 296.338 306.98 296.215 307.118C296.091 307.257 295.939 307.366 295.758 307.446C295.576 307.525 295.368 307.565 295.134 307.565C294.92 307.565 294.726 307.541 294.552 307.491C294.378 307.441 294.215 307.367 294.061 307.267C293.908 307.168 293.76 307.042 293.619 306.891C293.478 306.74 293.334 306.562 293.188 306.358C293.006 306.103 292.852 305.893 292.723 305.728C292.595 305.563 292.475 305.431 292.363 305.334C292.251 305.237 292.139 305.17 292.027 305.13C291.915 305.091 291.785 305.071 291.639 305.071V307.772H291.083V304.424H291.351C291.583 304.424 291.787 304.449 291.963 304.5C292.14 304.551 292.307 304.634 292.466 304.75C292.625 304.865 292.783 305.018 292.942 305.206C293.101 305.394 293.279 305.624 293.479 305.896C293.62 306.093 293.755 306.257 293.883 306.39C294.011 306.523 294.14 306.629 294.268 306.71C294.397 306.791 294.528 306.848 294.66 306.882C294.792 306.916 294.932 306.933 295.081 306.933Z" fill="white"/>
<path d="M293.816 312.049C293.362 312.049 292.96 312.008 292.61 311.926C292.259 311.843 291.964 311.725 291.724 311.57C291.484 311.415 291.301 311.224 291.175 310.999C291.051 310.774 290.988 310.517 290.988 310.229C290.988 309.956 291.048 309.714 291.167 309.5C291.287 309.287 291.461 309.107 291.691 308.961C291.92 308.814 292.201 308.704 292.535 308.628C292.869 308.552 293.251 308.515 293.682 308.515C294.155 308.515 294.574 308.554 294.936 308.634C295.299 308.714 295.603 308.831 295.849 308.984C296.094 309.138 296.28 309.329 296.404 309.557C296.529 309.785 296.591 310.047 296.591 310.342C296.593 311.48 295.667 312.049 293.816 312.049ZM293.755 311.413C295.297 311.413 296.068 311.046 296.068 310.312C296.068 309.537 295.283 309.151 293.713 309.151C292.25 309.151 291.518 309.53 291.518 310.289C291.518 311.039 292.264 311.413 293.755 311.413Z" fill="white"/>
<path d="M293.816 316.226C293.362 316.226 292.96 316.186 292.61 316.103C292.259 316.021 291.964 315.902 291.724 315.748C291.484 315.593 291.301 315.402 291.175 315.176C291.051 314.951 290.988 314.694 290.988 314.406C290.988 314.134 291.048 313.891 291.167 313.678C291.287 313.464 291.461 313.285 291.691 313.138C291.92 312.992 292.201 312.881 292.535 312.805C292.869 312.729 293.251 312.692 293.682 312.692C294.155 312.692 294.574 312.732 294.936 312.812C295.299 312.891 295.603 313.008 295.849 313.162C296.094 313.316 296.28 313.507 296.404 313.735C296.529 313.963 296.591 314.224 296.591 314.519C296.593 315.657 295.667 316.226 293.816 316.226ZM293.755 315.591C295.297 315.591 296.068 315.224 296.068 314.49C296.068 313.715 295.283 313.328 293.713 313.328C292.25 313.328 291.518 313.708 291.518 314.467C291.518 315.216 292.264 315.591 293.755 315.591Z" fill="white"/>
<path d="M293.816 320.403C293.362 320.403 292.96 320.362 292.61 320.28C292.259 320.198 291.964 320.079 291.724 319.924C291.484 319.77 291.301 319.579 291.175 319.353C291.051 319.128 290.988 318.871 290.988 318.583C290.988 318.311 291.048 318.068 291.167 317.854C291.287 317.641 291.461 317.462 291.691 317.315C291.92 317.168 292.201 317.058 292.535 316.982C292.869 316.906 293.251 316.869 293.682 316.869C294.155 316.869 294.574 316.909 294.936 316.988C295.299 317.068 295.603 317.185 295.849 317.339C296.094 317.492 296.28 317.683 296.404 317.912C296.529 318.14 296.591 318.401 296.591 318.696C296.593 319.835 295.667 320.403 293.816 320.403ZM293.755 319.768C295.297 319.768 296.068 319.4 296.068 318.666C296.068 317.892 295.283 317.505 293.713 317.505C292.25 317.505 291.518 317.885 291.518 318.644C291.518 319.393 292.264 319.768 293.755 319.768Z" fill="white"/>
<path d="M332 407.016H285V512H332V407.016Z" fill="#DDE9F8"/>
<path d="M332 407.016H285V421.496H332V407.016Z" fill="#CADEF4"/>
<path d="M331.096 500.235H285V512H331.096V500.235Z" fill="#CADEF4"/>
<path d="M332 407.016H329.288V512H332V407.016Z" fill="#8EBDE7"/>
<path d="M324.092 481.579C324.418 481.579 324.702 481.528 324.944 481.427C325.186 481.326 325.388 481.187 325.548 481.012C325.709 480.836 325.828 480.63 325.908 480.392C325.987 480.155 326.026 479.897 326.026 479.62C326.026 479.383 325.994 479.15 325.929 478.922C325.865 478.695 325.776 478.473 325.663 478.258C325.549 478.042 325.413 477.835 325.255 477.634C325.097 477.433 324.922 477.247 324.729 477.074H326.033C326.364 477.415 326.617 477.797 326.792 478.22C326.968 478.643 327.055 479.159 327.055 479.768C327.055 480.203 326.993 480.607 326.867 480.977C326.741 481.348 326.557 481.67 326.314 481.942C326.071 482.214 325.773 482.428 325.418 482.584C325.062 482.739 324.654 482.817 324.195 482.817C323.775 482.817 323.394 482.769 323.053 482.672C322.713 482.575 322.392 482.43 322.09 482.234C321.788 482.039 321.5 481.793 321.223 481.496C320.946 481.199 320.665 480.851 320.378 480.45C320.022 479.95 319.718 479.538 319.466 479.214C319.214 478.89 318.978 478.633 318.758 478.442C318.539 478.252 318.319 478.118 318.099 478.041C317.88 477.964 317.627 477.926 317.339 477.926V483.224H316.25V476.657H316.776C317.231 476.657 317.63 476.707 317.976 476.806C318.323 476.905 318.651 477.068 318.962 477.296C319.273 477.523 319.585 477.821 319.896 478.19C320.207 478.558 320.558 479.01 320.948 479.544C321.225 479.929 321.49 480.252 321.741 480.512C321.993 480.772 322.245 480.981 322.496 481.139C322.748 481.298 323.004 481.41 323.263 481.477C323.525 481.546 323.8 481.579 324.092 481.579Z" fill="#0095D4"/>
<path d="M321.609 491.611C320.719 491.611 319.931 491.531 319.244 491.371C318.557 491.21 317.978 490.977 317.507 490.673C317.035 490.369 316.677 489.995 316.431 489.552C316.187 489.11 316.064 488.607 316.064 488.042C316.064 487.508 316.182 487.032 316.416 486.614C316.651 486.196 316.993 485.844 317.443 485.557C317.893 485.27 318.444 485.052 319.099 484.903C319.754 484.755 320.503 484.681 321.348 484.681C322.277 484.681 323.097 484.758 323.809 484.914C324.52 485.07 325.116 485.299 325.598 485.6C326.079 485.902 326.443 486.276 326.687 486.724C326.932 487.172 327.054 487.685 327.054 488.264C327.055 490.496 325.24 491.611 321.609 491.611ZM321.49 490.365C324.514 490.365 326.026 489.646 326.026 488.206C326.026 486.687 324.486 485.928 321.409 485.928C318.538 485.928 317.103 486.673 317.103 488.161C317.103 489.63 318.564 490.365 321.49 490.365Z" fill="#0095D4"/>
<path d="M321.609 499.804C320.719 499.804 319.931 499.723 319.244 499.563C318.557 499.403 317.978 499.169 317.507 498.865C317.035 498.561 316.677 498.187 316.431 497.745C316.187 497.302 316.064 496.799 316.064 496.234C316.064 495.7 316.182 495.224 316.416 494.806C316.651 494.388 316.993 494.036 317.443 493.749C317.893 493.462 318.444 493.244 319.099 493.096C319.754 492.947 320.503 492.873 321.348 492.873C322.277 492.873 323.097 492.951 323.809 493.107C324.52 493.262 325.116 493.491 325.598 493.793C326.079 494.094 326.443 494.469 326.687 494.917C326.932 495.365 327.054 495.878 327.054 496.456C327.055 498.689 325.24 499.804 321.609 499.804ZM321.49 498.558C324.514 498.558 326.026 497.838 326.026 496.398C326.026 494.88 324.486 494.12 321.409 494.12C318.538 494.12 317.103 494.865 317.103 496.354C317.103 497.823 318.564 498.558 321.49 498.558Z" fill="#0095D4"/>
<path d="M321.609 507.996C320.719 507.996 319.931 507.916 319.244 507.755C318.557 507.595 317.978 507.362 317.507 507.058C317.035 506.754 316.677 506.38 316.431 505.937C316.187 505.495 316.064 504.991 316.064 504.427C316.064 503.893 316.182 503.417 316.416 502.999C316.651 502.58 316.993 502.228 317.443 501.941C317.893 501.655 318.444 501.436 319.099 501.288C319.754 501.14 320.503 501.065 321.348 501.065C322.277 501.065 323.097 501.143 323.809 501.299C324.52 501.455 325.116 501.684 325.598 501.985C326.079 502.286 326.443 502.661 326.687 503.109C326.932 503.557 327.054 504.07 327.054 504.648C327.055 506.881 325.24 507.996 321.609 507.996ZM321.49 506.75C324.514 506.75 326.026 506.03 326.026 504.591C326.026 503.072 324.486 502.313 321.409 502.313C318.538 502.313 317.103 503.057 317.103 504.546C317.103 506.015 318.564 506.75 321.49 506.75Z" fill="#0095D4"/>
<path d="M328.384 428.737H325.673V460.413H328.384V428.737Z" fill="#76B3E2"/>
<path d="M307.597 435.072V432.357L322.058 433.368L307.597 435.072Z" fill="#8EBDE7"/>
<path d="M296.593 478.891L302.324 477.609L311.363 433.714L310.459 434.167L296.593 478.891Z" fill="#8EBDE7"/>
<path d="M324.59 448.27L324.576 450.722L291.327 448.496V444.122L307.596 447.422L324.59 448.27Z" fill="#8EBDE7"/>
<path d="M324.77 454.078V455.888L295.847 459.13V455.888L324.77 454.078Z" fill="#8EBDE7"/>
<path d="M303.077 461.318H295.847V463.128H303.077V461.318Z" fill="#8EBDE7"/>
<path d="M303.077 464.033H295.847V466.748H303.077V464.033Z" fill="#8EBDE7"/>
<path d="M302.625 448.572C302.55 448.799 303.077 455.888 303.077 455.888H304.885L306.731 448.761L302.625 448.572Z" fill="#8EBDE7"/>
<path d="M294.039 450.458H289.52V497.52H294.039V450.458Z" fill="#76B3E2"/>
<path d="M310.308 497.52H297.654V512H310.308V497.52Z" fill="#8EBDE7"/>
<path d="M320.25 411.541C320.25 411.541 317.087 413.521 315.9 417.31C315.15 419.709 315.279 421.496 315.279 421.496H299.462V411.541H320.25Z" fill="#F8C7C8"/>
<path d="M323.554 420.818C325.723 420.818 327.481 419.057 327.481 416.886C327.481 414.715 325.723 412.955 323.554 412.955C321.386 412.955 319.628 414.715 319.628 416.886C319.628 419.057 321.386 420.818 323.554 420.818Z" fill="#8EBDE7"/>
<path d="M308.5 480.324C311.212 480.324 313.669 478.007 313.669 475.148C313.669 472.29 311.212 469.972 308.5 469.972V480.324Z" fill="#FDC95A"/>
<path d="M299.462 413.351H291.327V423.306H299.462V413.351Z" fill="#0095D4"/>
<path d="M297.654 422.401H288.615V445.932H297.654V422.401Z" fill="#0095D4"/>
<path d="M295.081 430.019C295.247 430.019 295.392 429.993 295.515 429.941C295.639 429.89 295.741 429.819 295.824 429.729C295.906 429.64 295.966 429.535 296.007 429.413C296.048 429.292 296.068 429.161 296.068 429.02C296.068 428.898 296.051 428.78 296.019 428.664C295.986 428.548 295.94 428.435 295.882 428.326C295.825 428.216 295.755 428.11 295.675 428.008C295.594 427.906 295.505 427.811 295.406 427.722H296.071C296.24 427.896 296.37 428.091 296.458 428.307C296.548 428.522 296.593 428.785 296.593 429.096C296.593 429.318 296.561 429.523 296.496 429.712C296.432 429.901 296.338 430.065 296.215 430.204C296.091 430.342 295.939 430.452 295.758 430.531C295.576 430.611 295.368 430.651 295.134 430.651C294.92 430.651 294.726 430.626 294.552 430.576C294.378 430.527 294.215 430.452 294.061 430.353C293.908 430.253 293.76 430.128 293.619 429.976C293.478 429.825 293.334 429.647 293.188 429.443C293.006 429.188 292.852 428.978 292.723 428.813C292.595 428.649 292.475 428.517 292.363 428.42C292.251 428.323 292.139 428.255 292.027 428.215C291.915 428.176 291.785 428.156 291.639 428.156V430.858H291.083V427.509H291.351C291.583 427.509 291.787 427.535 291.963 427.585C292.14 427.636 292.307 427.719 292.466 427.835C292.625 427.951 292.783 428.103 292.942 428.291C293.101 428.479 293.279 428.709 293.479 428.982C293.62 429.178 293.755 429.343 293.883 429.476C294.011 429.608 294.14 429.715 294.268 429.795C294.397 429.876 294.528 429.934 294.66 429.967C294.792 430.002 294.932 430.019 295.081 430.019Z" fill="white"/>
<path d="M293.816 435.134C293.362 435.134 292.96 435.094 292.61 435.011C292.259 434.929 291.964 434.81 291.724 434.656C291.484 434.501 291.301 434.31 291.175 434.084C291.051 433.859 290.988 433.602 290.988 433.314C290.988 433.042 291.048 432.799 291.167 432.586C291.287 432.372 291.461 432.193 291.691 432.046C291.92 431.9 292.201 431.789 292.535 431.713C292.869 431.637 293.251 431.6 293.682 431.6C294.155 431.6 294.574 431.64 294.936 431.72C295.299 431.799 295.603 431.916 295.849 432.07C296.094 432.224 296.28 432.415 296.404 432.643C296.529 432.871 296.591 433.132 296.591 433.427C296.593 434.566 295.667 435.134 293.816 435.134ZM293.755 434.499C295.297 434.499 296.068 434.131 296.068 433.398C296.068 432.623 295.283 432.236 293.713 432.236C292.25 432.236 291.518 432.616 291.518 433.375C291.518 434.124 292.264 434.499 293.755 434.499Z" fill="white"/>
<path d="M293.816 439.312C293.362 439.312 292.96 439.271 292.61 439.189C292.259 439.107 291.964 438.988 291.724 438.833C291.484 438.678 291.301 438.487 291.175 438.262C291.051 438.037 290.988 437.78 290.988 437.492C290.988 437.22 291.048 436.977 291.167 436.763C291.287 436.55 291.461 436.371 291.691 436.224C291.92 436.077 292.201 435.967 292.535 435.891C292.869 435.815 293.251 435.778 293.682 435.778C294.155 435.778 294.574 435.818 294.936 435.897C295.299 435.977 295.603 436.094 295.849 436.248C296.094 436.401 296.28 436.592 296.404 436.82C296.529 437.049 296.591 437.31 296.591 437.605C296.593 438.743 295.667 439.312 293.816 439.312ZM293.755 438.677C295.297 438.677 296.068 438.309 296.068 437.575C296.068 436.801 295.283 436.414 293.713 436.414C292.25 436.414 291.518 436.793 291.518 437.553C291.518 438.302 292.264 438.677 293.755 438.677Z" fill="white"/>
<path d="M293.816 443.489C293.362 443.489 292.96 443.448 292.61 443.366C292.259 443.283 291.964 443.165 291.724 443.01C291.484 442.855 291.301 442.664 291.175 442.439C291.051 442.214 290.988 441.957 290.988 441.669C290.988 441.396 291.048 441.154 291.167 440.94C291.287 440.727 291.461 440.547 291.691 440.401C291.92 440.254 292.201 440.144 292.535 440.068C292.869 439.992 293.251 439.955 293.682 439.955C294.155 439.955 294.574 439.994 294.936 440.074C295.299 440.154 295.603 440.27 295.849 440.424C296.094 440.578 296.28 440.769 296.404 440.997C296.529 441.225 296.591 441.487 296.591 441.782C296.593 442.92 295.667 443.489 293.816 443.489ZM293.755 442.853C295.297 442.853 296.068 442.486 296.068 441.752C296.068 440.977 295.283 440.591 293.713 440.591C292.25 440.591 291.518 440.971 291.518 441.729C291.518 442.479 292.264 442.853 293.755 442.853Z" fill="white"/>
</svg>
