<svg width="460" height="756" viewBox="0 0 460 756" fill="none" xmlns="http://www.w3.org/2000/svg">
<path d="M101.046 699.318H186.893L198.172 566.547H89.7656L101.046 699.318Z" fill="#9E5DA2"/>
<path d="M90.0674 570.094L89.7656 566.547H198.172L192.587 632.281C166.514 580.581 109.52 571.639 90.0674 570.094Z" fill="#9E5DA2"/>
<path d="M213 553.931H74.9395V566.549H213V553.931Z" fill="#D1B8DA"/>
<path d="M191.889 629.913C194.903 629.913 197.898 629.246 200.851 627.906C219.78 619.334 205.876 582.31 198.914 566.546H195.842C201.011 578.248 216.786 617.596 199.686 625.343C194.535 627.675 189.232 627.67 183.93 625.322C160.231 614.836 143.036 562.036 142.866 561.505L140.182 562.365C140.896 564.586 157.945 616.903 182.788 627.895C185.825 629.244 188.867 629.913 191.889 629.913Z" fill="#A86FAD"/>
<path d="M140.62 563.582C142.47 563.582 143.969 562.085 143.969 560.238C143.969 558.392 142.47 556.895 140.62 556.895C138.77 556.895 137.271 558.392 137.271 560.238C137.271 562.085 138.77 563.582 140.62 563.582Z" fill="#9E5DA2"/>
<path d="M142.411 711.434C148.854 685.854 132.761 666.407 112.12 676.595L62.7393 707.603C75.1616 704.06 103.377 698.98 114.392 714.802C121.33 724.768 102.638 752.343 90.8177 755.002C90.8177 755 132.289 751.623 142.411 711.434Z" fill="#B281B8"/>
<path d="M0.120533 697.679C4.19114 744.328 137.472 683.805 137.472 683.805C137.472 683.805 126.688 675.671 117.577 673.709C117.577 673.709 115.173 668.766 98.5572 663.527C98.5572 663.527 97.2834 634.408 88.8299 630.649C80.3764 626.89 64.5519 612.207 53.3805 635.814C30.7167 683.712 -2.24463 670.567 0.120533 697.679Z" fill="#D1B8DA"/>
<path d="M48.8979 692.75C41.0971 709.46 72.3881 707.922 98.0031 701.299C121.597 695.2 139.395 684.584 139.395 684.584C139.395 684.584 133.396 669.654 117.579 673.709C117.579 673.709 118.207 662.809 98.5593 663.527C98.5593 663.527 97.2855 634.408 88.832 630.649C87.6687 630.13 86.3633 629.405 84.9526 628.603C87.8915 649.963 61.0694 666.683 48.8979 692.75Z" fill="#B281B8"/>
<path d="M80.4593 587.547L72.8164 587.722L94.4573 283.625C94.5187 282.792 94.8345 282.051 95.3433 281.567C95.8487 281.084 96.5014 280.898 97.1576 281.052L97.5471 281.142C98.8964 281.457 99.8912 283.091 99.7824 284.81L80.4593 587.547Z" fill="#9E5DA2"/>
<path d="M97.5477 281.142L97.1581 281.052C96.5019 280.898 95.8492 281.084 95.3439 281.567C94.8351 282.051 94.5193 282.792 94.4579 283.625L89.3047 356.02C90.9856 360.359 92.6647 365.118 94.328 370.243L99.783 284.811C99.8918 283.091 98.8969 281.457 97.5477 281.142Z" fill="#9E5DA2"/>
<path d="M83.6081 637.848C83.6203 646.182 66.8063 669.491 66.1904 691.005L73.0701 690.31C73.0701 690.31 71.505 674.975 80.2428 657.635C86.1943 645.822 83.6081 637.848 83.6081 637.848Z" fill="#D1B8DA"/>
<path d="M22.6718 692.198C19.9539 690.61 21.3365 685.523 33.6712 678.797C49.5939 670.111 53.5733 652.203 53.5733 652.203C53.5733 652.203 51.3643 669.81 35.2134 679.755C22.9472 687.315 22.6718 692.198 22.6718 692.198Z" fill="#B281B8"/>
<path d="M86.1697 640.221L58.8721 627.461L59.8652 625.126L87.7225 630.134L86.1697 640.221Z" fill="#B281B8"/>
<path d="M58.6709 625.867L70.5511 581.054L83.3419 584.949L92.4446 632.76L58.6709 625.867Z" fill="#9E5DA2"/>
<path d="M76.1592 627.454C75.9486 628.093 75.7345 628.71 75.5117 629.304L92.4451 632.759L83.3424 584.949L80.6263 584.124C81.6317 597.221 80.2473 615.085 76.1592 627.454Z" fill="#9E5DA2"/>
<path d="M71.098 584.697L75.988 586.625L62.7041 619.064L71.098 584.697Z" fill="#D1B8DA"/>
<path d="M98.1533 681.593C102.101 681.717 108.939 678.254 109.465 675.562C110.27 671.435 112.334 669.281 114.559 671.632C116.783 673.982 112.955 679.589 109.721 681.298C105.007 683.787 98.1533 681.593 98.1533 681.593Z" fill="#D1B8DA"/>
<path d="M76.994 634.008C76.994 634.008 73.1374 641.911 69.8687 652.513C68.5177 656.896 63.0609 662.942 58.6201 667.522C58.6201 667.522 67.3228 663.993 71.8127 653.668C75.9518 644.152 82.2647 635.648 85.6844 635.518L76.994 634.008Z" fill="#B281B8"/>
<path d="M79.7152 489.756L79.0625 499.551L85.2667 515.762L86.2475 500.563L79.7152 489.756Z" fill="#9E5DA2"/>
<path d="M430.935 636.678C430.935 636.678 444.101 653.487 444.132 653.519C446.043 655.486 451.304 659.975 452.708 661.994C457.984 669.582 414.249 679.116 419.525 670.473C420.003 669.691 421.889 662.424 420.32 659.684C417.902 655.463 413.315 649.26 413.315 649.26L430.935 636.678Z" fill="#FFDD9E"/>
<path d="M419.56 670.343C419.56 670.343 429.152 667.132 433.642 664.88C438.132 662.627 440.121 654.005 443.929 653.321C448.121 652.567 459.973 669.147 459.973 669.147C459.973 669.147 420.354 701.329 407.509 705.673C401.737 707.626 407.009 687.058 419.56 670.343Z" fill="#1A0940"/>
<path d="M277.395 654.247C277.395 654.247 277.929 675.59 277.934 675.635C278.295 678.355 279.837 685.095 279.758 687.554C279.464 696.791 238.68 678.342 248.072 674.556C248.922 674.213 254.772 669.508 255.147 666.374C255.726 661.544 255.747 653.828 255.747 653.828L277.395 654.247Z" fill="#FFDD9E"/>
<path d="M248.178 674.471C248.178 674.471 257.79 677.619 262.738 678.491C267.685 679.362 274.427 673.631 277.89 675.355C281.703 677.252 281.319 697.629 281.319 697.629C281.319 697.629 230.323 699.81 217.424 695.631C211.627 693.751 228.132 680.394 248.178 674.471Z" fill="#1A0940"/>
<path d="M343.88 372.174C343.88 372.174 291.978 485.211 289.855 498.596C288.307 508.365 283.555 655.229 283.555 655.229L248.789 655.289L225.855 503.93L246.668 368.359L343.88 372.174Z" fill="#1A0940"/>
<path d="M357.189 377.93L355.189 511.824L438.909 641.263L413.316 655.289L300.522 517.93L289.189 411.263L283.566 361.144L357.189 377.93Z" fill="#007C37"/>
<path d="M324.789 216.597C335.106 221.103 334.34 215.25 344.856 217.168C358.001 219.565 369.878 219.118 369.576 205.761C369.298 193.45 371.973 167.725 381.955 150.599L352.096 156.16L331.814 159.936C331.814 159.936 328.253 166.686 323.455 179.292C322.582 181.591 321.664 184.086 320.719 186.772C319.956 188.942 316.148 212.823 324.789 216.597Z" fill="#FFDD9E"/>
<path d="M333.307 157.163C333.307 157.163 331.269 159.212 327.659 168.89C349.5 174.474 362.272 163.066 362.272 163.066C356.803 157.845 354.512 156.504 349.382 154.575L333.307 157.163Z" fill="#FBBB20"/>
<path d="M322.826 153.038C334.241 162.566 362.129 179.814 389.518 151.952C413.901 127.148 426.181 117.138 398.87 94.134C371.558 71.13 358.054 77.593 348.83 85.187C339.606 92.781 309.054 141.542 322.826 153.038Z" fill="#FFDD9E"/>
<path d="M348.917 67.9439C342.906 74.1129 343.695 85.9979 351.476 93.9619C363.026 105.785 350.779 121.168 357.154 124.304C363.529 127.44 371.201 119.237 372.667 129.883C373.918 138.964 361.032 141.988 359.707 145.885C357.433 152.574 360.28 170.302 369.278 174.338C378.276 178.374 416.651 145.951 420.269 131.474C423.887 116.997 418.158 96.5869 406.887 88.1259C395.616 79.6649 375.725 75.7829 371.79 73.6629C367.855 71.5419 352.165 64.6119 348.917 67.9439Z" fill="#FBBB20"/>
<path d="M281.355 237.43L262.188 222.263L255.355 195.43L232.397 172.117C232.397 172.117 227.522 169.679 226.584 173.805C226.584 173.805 218.459 172.242 219.646 179.805C219.646 179.805 215.583 181.93 218.021 187.055C218.021 187.055 215.333 190.368 218.709 193.93C222.085 197.492 231.959 208.43 231.959 208.43L232.834 228.93L268.688 255.43L281.355 237.43Z" fill="#FFDD9E"/>
<path d="M251.987 221.627C251.987 221.627 250.487 211.881 249.737 207.133C249.029 202.649 247.112 198.577 244.039 195.031C240.849 191.349 227.223 177.224 227.086 177.082C226.587 176.565 226.602 175.743 227.119 175.244C227.636 174.746 228.458 174.76 228.957 175.277C229.52 175.86 242.769 189.594 246.004 193.328C249.4 197.247 251.521 201.755 252.306 206.726C253.056 211.478 254.556 221.232 254.556 221.232L251.987 221.627Z" fill="#EE7225"/>
<path d="M234.272 205.48C233.928 205.48 233.584 205.344 233.329 205.075L219.329 190.325C218.835 189.804 218.856 188.982 219.377 188.487C219.897 187.993 220.72 188.014 221.215 188.536L235.215 203.286C235.709 203.807 235.688 204.629 235.167 205.124C234.916 205.361 234.593 205.48 234.272 205.48Z" fill="#EE7225"/>
<path d="M240.647 201.23C240.315 201.23 239.984 201.104 239.731 200.852L220.606 181.852C220.096 181.346 220.094 180.523 220.6 180.014C221.107 179.503 221.93 179.501 222.438 180.008L241.563 199.008C242.073 199.514 242.075 200.337 241.569 200.846C241.315 201.102 240.981 201.23 240.647 201.23Z" fill="#EE7225"/>
<path d="M240.646 231.93C239.955 231.93 239.38 231.536 239.348 230.839C239.333 230.498 239.004 222.65 241.411 216.503C240.868 214.131 238.508 202.555 241.516 191.321C241.702 190.628 242.415 190.233 243.108 190.42C243.801 190.606 244.213 191.328 244.027 192.021C240.901 203.698 244 216.232 244.031 216.358L244.137 216.779L243.971 217.18C241.616 222.833 241.941 230.643 241.945 230.723C241.977 231.44 241.422 231.932 240.705 231.932C240.686 231.93 240.666 231.93 240.646 231.93Z" fill="#EE7225"/>
<path d="M322.028 132.011C317.391 129.513 314.653 127.402 316.991 123.064C319.735 117.972 333.437 109.046 333.437 109.046L322.028 132.011Z" fill="#FFDD9E"/>
<path d="M346.81 114.061C346.817 114.061 346.823 114.057 346.83 114.057C346.932 114.054 347.037 114.093 347.141 114.127C347.294 110.106 345.312 106.051 341.978 103.879C341.452 103.536 340.871 103.23 340.242 103.211C339.612 103.192 338.928 103.534 338.722 104.14C338.493 104.812 338.905 105.519 339.364 106.045C340.315 107.136 341.532 107.946 342.712 108.778C343.892 109.609 345.07 110.495 345.895 111.686C346.378 112.386 346.697 113.215 346.81 114.061Z" fill="#1A0940"/>
<path d="M339.593 117.972C338.813 119.556 336.937 120.275 335.4 119.58C333.864 118.885 333.249 117.037 334.028 115.452C334.807 113.868 336.684 113.148 338.222 113.844C339.758 114.54 340.372 116.388 339.593 117.972Z" fill="#1A0940"/>
<path d="M329.773 144.78C329.377 144.78 328.996 144.566 328.798 144.192C326.592 140.001 321.358 139.32 321.306 139.313C320.702 139.24 320.273 138.692 320.347 138.088C320.42 137.485 320.974 137.054 321.571 137.129C321.833 137.16 328.009 137.966 330.746 143.166C331.029 143.704 330.822 144.369 330.285 144.652C330.121 144.739 329.946 144.78 329.773 144.78Z" fill="#EE7225"/>
<path d="M160.442 169.055C160.442 169.055 162.362 185.18 160.442 189.555L173.897 206.805L163.397 229.18L134.897 182.43C134.897 182.43 129.272 136.305 132.147 131.305L160.442 169.055Z" fill="#FFDD9E"/>
<path d="M183.337 162.664C184.702 166.218 182.912 170.243 179.358 171.608L157.075 180.168C153.521 181.533 149.496 179.743 148.131 176.189L126.458 119.774C125.093 116.22 126.883 112.195 130.437 110.83L152.72 102.27C156.274 100.905 160.299 102.695 161.664 106.249L183.337 162.664Z" fill="#1A0940"/>
<path d="M157.094 106.873L130.27 117.177L152.7 175.568L179.524 165.264L157.094 106.873Z" fill="#EE7225"/>
<path d="M159.022 147.18C159.022 147.18 145.897 149.43 142.69 153.963C140.904 156.487 139.522 164.055 139.397 169.055C139.272 174.055 148.897 182.43 150.772 182.43C152.647 182.43 155.897 173.43 154.022 167.305C152.147 161.18 153.543 158.43 155.918 157.055C158.293 155.68 161.772 150.305 159.022 147.18Z" fill="#FFDD9E"/>
<path d="M364.189 179.93C364.189 179.93 328.315 164.93 297.835 206.597C297.835 206.597 266.855 244.097 259.689 256.597L173.689 203.93L159.022 232.93C159.022 232.93 214.689 288.763 259.189 296.93L238.522 374.263C238.522 374.263 338.355 392.93 364.189 381.596L357.189 333.263C357.189 333.263 379.542 236.04 382.449 222.582C387.189 200.631 376.855 183.305 364.189 179.93Z" fill="#76B3E2"/>
<path d="M259.189 297.334C258.495 299.932 257.242 304.619 257.242 304.619C257.242 304.619 260.825 304.152 263.509 303.304C303.897 290.554 311.022 271.334 311.022 271.334C311.022 271.334 288.647 296.305 259.189 297.334Z" fill="#0095D4"/>
<path d="M196.275 126.597C180.817 120.884 153.165 102.479 158.986 59.5704C164.169 21.3704 164.604 3.81542 203.298 12.1304C241.992 20.4464 245.496 36.6654 245.103 49.9014C244.812 59.6984 232.693 95.0404 218.54 111.017C217.318 112.396 205.812 103.693 200.943 109.763C194.86 117.346 215.756 115.805 212.818 118.117C209.933 120.388 203.942 129.43 196.275 126.597Z" fill="#FFDD9E"/>
<path d="M260.152 38.1204C258.827 47.5754 247.878 54.9505 235.618 53.5395C217.419 51.4445 212.254 72.6164 205.179 69.1594C198.105 65.7024 200.084 53.4125 189.76 59.3535C180.954 64.4214 187.051 77.7645 184.537 81.5704C180.22 88.1055 162.755 97.6434 153.111 92.4985C143.467 87.3535 145.828 31.7224 156.056 18.7254C166.285 5.72845 188.056 -3.10555 203.121 1.02645C218.185 5.15845 235.088 19.9514 239.616 21.9604C244.145 23.9694 260.867 33.0135 260.152 38.1204Z" fill="#1A0940"/>
<path d="M222.27 105.167C227.607 107.534 231.314 108.5 233.529 103.507C236.129 97.6474 234.648 79.5824 234.648 79.5824L222.27 105.167Z" fill="#FFDD9E"/>
<path d="M221.175 71.2705C221.171 71.2645 221.169 71.2565 221.165 71.2495C221.099 71.1585 220.993 71.0925 220.893 71.0245C224.312 68.1615 229.211 67.1455 233.376 68.5925C234.033 68.8205 234.696 69.1215 235.14 69.6605C235.585 70.1995 235.749 71.0315 235.358 71.6225C234.924 72.2785 234.026 72.3985 233.253 72.3535C231.652 72.2605 230.116 71.7445 228.586 71.2755C227.057 70.8065 225.481 70.3755 223.877 70.4605C222.936 70.5115 221.993 70.7945 221.175 71.2705Z" fill="#1A0940"/>
<path d="M222.646 80.2485C221.787 82.0065 222.431 84.1395 224.084 85.0135C225.736 85.8875 227.773 85.1725 228.632 83.4135C229.491 81.6565 228.848 79.5225 227.195 78.6475C225.542 77.7745 223.506 78.4905 222.646 80.2485Z" fill="#1A0940"/>
<path d="M240.817 131.231C240.631 131.231 240.442 131.19 240.263 131.106L224.388 123.606C223.739 123.299 223.461 122.524 223.768 121.875C224.075 121.227 224.85 120.952 225.498 121.255L241.373 128.755C242.022 129.062 242.3 129.837 241.993 130.486C241.772 130.955 241.304 131.231 240.817 131.231Z" fill="#10153D"/>
<path d="M228.103 118.93C227.395 118.93 226.816 118.213 226.804 117.503C226.792 116.785 227.364 116.118 228.081 116.106L245.636 115.768C246.339 115.724 246.946 116.308 246.958 117.027C246.97 117.745 246.398 118.477 245.681 118.49L228.126 118.931C228.118 118.93 228.111 118.93 228.103 118.93Z" fill="#10153D"/>
<path d="M233.359 141.481C232.991 141.481 232.626 141.326 232.368 141.023L221.278 127.984C220.813 127.437 220.879 126.617 221.426 126.152C221.973 125.687 222.793 125.753 223.259 126.3L234.349 139.339C234.814 139.886 234.748 140.706 234.201 141.171C233.956 141.379 233.657 141.481 233.359 141.481Z" fill="#10153D"/>
</svg>
