<svg width="289" height="143" viewBox="0 0 289 143" fill="none" xmlns="http://www.w3.org/2000/svg">
<path d="M268.127 35.254C274.272 35.254 279.254 30.2723 279.254 24.127C279.254 17.9817 274.272 13 268.127 13C261.982 13 257 17.9817 257 24.127C257 30.2723 261.982 35.254 268.127 35.254Z" fill="#FAB32D"/>
<path d="M268.127 34.7261C273.98 34.7261 278.726 29.9807 278.726 24.1271C278.726 18.2734 273.98 13.5281 268.127 13.5281C262.273 13.5281 257.528 18.2734 257.528 24.1271C257.528 29.9807 262.273 34.7261 268.127 34.7261Z" fill="#FEE316"/>
<path d="M268.089 32.5611C272.865 32.5611 276.736 28.7457 276.736 24.0391C276.736 19.3325 272.865 15.5171 268.089 15.5171C263.313 15.5171 259.442 19.3325 259.442 24.0391C259.442 28.7457 263.313 32.5611 268.089 32.5611Z" fill="#FAB32D"/>
<path d="M13.127 126.254C19.2723 126.254 24.254 121.272 24.254 115.127C24.254 108.982 19.2723 104 13.127 104C6.98173 104 2 108.982 2 115.127C2 121.272 6.98173 126.254 13.127 126.254Z" fill="#FAB32D"/>
<path d="M13.1268 125.726C18.9805 125.726 23.7258 120.98 23.7258 115.127C23.7258 109.273 18.9805 104.528 13.1268 104.528C7.27317 104.528 2.52783 109.273 2.52783 115.127C2.52783 120.98 7.27317 125.726 13.1268 125.726Z" fill="#FEE316"/>
<path d="M13.0889 123.561C17.8645 123.561 21.7359 119.746 21.7359 115.039C21.7359 110.333 17.8645 106.517 13.0889 106.517C8.31329 106.517 4.44189 110.333 4.44189 115.039C4.44189 119.746 8.31329 123.561 13.0889 123.561Z" fill="#FAB32D"/>
<path d="M24.127 49.254C30.2723 49.254 35.254 44.2723 35.254 38.127C35.254 31.9817 30.2723 27 24.127 27C17.9817 27 13 31.9817 13 38.127C13 44.2723 17.9817 49.254 24.127 49.254Z" fill="#FAB32D"/>
<path d="M24.1268 48.7261C29.9805 48.7261 34.7258 43.9807 34.7258 38.1271C34.7258 32.2734 29.9805 27.5281 24.1268 27.5281C18.2732 27.5281 13.5278 32.2734 13.5278 38.1271C13.5278 43.9807 18.2732 48.7261 24.1268 48.7261Z" fill="#FEE316"/>
<path d="M24.0899 46.5611C28.8655 46.5611 32.7369 42.7457 32.7369 38.0391C32.7369 33.3325 28.8655 29.5171 24.0899 29.5171C19.3143 29.5171 15.4429 33.3325 15.4429 38.0391C15.4429 42.7457 19.3143 46.5611 24.0899 46.5611Z" fill="#FAB32D"/>
<path d="M51.127 107.254C57.2723 107.254 62.254 102.272 62.254 96.127C62.254 89.9817 57.2723 85 51.127 85C44.9817 85 40 89.9817 40 96.127C40 102.272 44.9817 107.254 51.127 107.254Z" fill="#FAB32D"/>
<path d="M51.1268 106.726C56.9805 106.726 61.7258 101.981 61.7258 96.1271C61.7258 90.2734 56.9805 85.5281 51.1268 85.5281C45.2732 85.5281 40.5278 90.2734 40.5278 96.1271C40.5278 101.981 45.2732 106.726 51.1268 106.726Z" fill="#FEE316"/>
<path d="M51.0889 104.561C55.8645 104.561 59.7359 100.746 59.7359 96.0391C59.7359 91.3325 55.8645 87.5171 51.0889 87.5171C46.3133 87.5171 42.4419 91.3325 42.4419 96.0391C42.4419 100.746 46.3133 104.561 51.0889 104.561Z" fill="#FAB32D"/>
<path d="M165.373 35.1295C155.091 32.4343 144.605 37.0821 140.355 46.6832C134.456 46.3496 128.438 48.5184 124.23 52.5469C115.928 60.4933 113.819 77.5793 123.734 84.151C127.781 92.4204 132.964 98.4659 141.679 96.4507C149.117 104.626 165.769 103.468 172.846 92.3649C181.534 92.9412 189.029 86.2174 193.062 78.438C194.013 76.6029 194.549 73.9492 194.975 73.5098C194.981 73.5038 214.84 64.5933 208.022 44.9105C200.887 24.3107 175.419 15.1273 165.373 35.1295Z" fill="#FBBB20"/>
<path d="M164.416 95.4842C164.416 95.4842 197.701 79.9175 205.225 76.9311C212.749 73.9441 237.788 58.5856 238.741 57.9562C239.694 57.3268 240.468 42.1083 242.22 42.825C243.971 43.5426 241.429 50.574 243.526 51.0218C245.622 51.469 260.384 40.744 260.791 42.0946C261.555 44.6218 252.014 49.0199 252.584 50.1382C253.156 51.2568 262.101 44.5945 263.699 46.1281C265.297 47.6608 254.631 51.6098 254.643 52.6444C254.656 53.6784 265.201 50.313 265.067 52.5483C264.995 53.7615 255.612 55.3067 256.294 56.5708C256.975 57.8349 264.363 57.7951 264.147 59.1807C263.931 60.568 257.925 58.3666 254.461 60.0335C250.995 61.7008 247.595 61.0565 242.891 65.3743C238.186 69.6919 223.412 86.9309 211.408 92.2056C199.404 97.4802 172.913 109.209 172.913 109.209L164.416 95.4842Z" fill="#FFDD9E"/>
<path d="M123.157 101.589C123.157 101.589 101.797 71.689 96.709 65.3928C91.6195 59.0978 77.3433 33.4262 76.8219 32.4101C76.3005 31.3939 83.0954 17.7542 81.2174 17.5194C79.3404 17.285 78.1031 24.6593 76.057 24.0197C74.0109 23.3801 66.4145 6.79032 65.3959 7.76735C63.4898 9.59435 69.6445 18.1083 68.5983 18.8034C67.551 19.4975 63.0277 9.30329 60.8827 9.85353C58.738 10.4044 66.0918 19.0806 65.5741 19.9756C65.0554 20.8702 57.52 12.7622 56.5397 14.775C56.0071 15.8682 63.4227 21.8189 62.2094 22.5866C60.9951 23.354 54.5783 19.6926 54.0857 21.0066C53.5935 22.3197 59.9062 23.3501 62.1064 26.5041C64.3073 29.6578 67.5858 30.7653 69.5654 36.8359C71.545 42.9065 75.9548 65.1775 83.8244 75.6654C91.6939 86.1533 109.017 109.375 109.017 109.375L123.157 101.589Z" fill="#FFDD9E"/>
<path d="M119.5 132.5C117.567 126.45 116 121.5 115.464 119.368C112.179 113.383 103.443 105.417 101.449 103.053C101.449 103.053 107.829 90.5279 114.399 89.0804C114.399 89.0804 123.52 96.6402 129.351 98.2468C129.422 98.2079 131.371 98.6349 132.141 98.4482C137.125 97.2411 154.439 92.5987 157.933 92.8511L162.693 121.452C163 124.5 162.693 126 161 129.5C159.006 133.622 151 137.922 143.5 139C126.351 141.465 123.406 144.73 119.5 132.5Z" fill="white"/>
<path d="M149.141 95.3747C149.832 94.7996 151.569 93.9359 154.236 93.2615C162.116 91.2684 175.362 87.8158 175.362 87.8158C175.362 87.8158 182.589 103.997 180.915 108.686C180.915 108.686 160.854 116.805 161.865 118.45L149.141 95.3747Z" fill="white"/>
<path d="M141.089 85.4076C141.089 85.4076 141.572 95.6038 142.837 99.3732C144.103 103.143 145.275 115.974 137.477 117.845C129.678 119.717 132.291 102.398 132.141 98.449C131.991 94.4997 129.424 82.7658 129.424 82.7658L141.089 85.4076Z" fill="#FFDD9E"/>
<path d="M130.639 88.6693C130.012 85.4416 129.426 82.7649 129.426 82.7649L141.09 85.4066C141.09 85.4066 141.189 87.4919 141.415 90.1251C137.057 92.1618 133.32 91.1675 130.639 88.6693Z" fill="#FBBB20"/>
<path d="M138.595 57.5397C138.595 57.5397 143.177 58.9338 145.841 63.6575C148.504 68.3812 149.892 81.8553 140.21 87.4551C130.528 93.0543 123.585 83.755 123.833 75.1536C124.082 66.552 126.347 55.2022 138.595 57.5397Z" fill="#FFDD9E"/>
<path d="M121.794 72.3206C122.508 74.4484 124.046 75.8408 125.23 75.4325C126.412 75.0239 126.794 72.969 126.079 70.8416C125.364 68.714 123.827 67.3207 122.643 67.7296C121.46 68.1383 121.08 70.1936 121.794 72.3206Z" fill="#FFDD9E"/>
<path d="M137.217 57.1658C137.217 57.1658 142.527 71.315 147.66 72.8906C152.792 74.4651 152.42 81.3821 152.42 81.3821C152.42 81.3821 152.991 65.3905 148.289 61.3998C143.587 57.4085 137.217 57.1658 137.217 57.1658Z" fill="#FBBB20"/>
<path d="M145.478 75.612C144.699 77.8004 145.229 80.0412 146.662 80.6181C148.094 81.1947 149.887 79.888 150.665 77.6996C151.443 75.5112 150.914 73.2703 149.481 72.6938C148.048 72.1171 146.256 73.4242 145.478 75.612Z" fill="#FFDD9E"/>
<path d="M129.132 72.3448C129.014 71.9172 128.763 71.4995 128.334 71.5086C127.79 71.5202 127.32 72.1839 127.285 72.9915C127.25 73.7988 127.662 74.4435 128.205 74.4322C129.176 74.4113 129.329 73.0536 129.132 72.3448Z" fill="#1A0940"/>
<path d="M138.432 71.7298C138.313 71.3022 138.063 70.8845 137.633 70.8936C137.089 70.9052 136.62 71.5689 136.585 72.3765C136.549 73.1838 136.961 73.8285 137.505 73.8172C138.475 73.7969 138.628 72.4392 138.432 71.7298Z" fill="#1A0940"/>
<path d="M129.642 77.4836C129.776 77.0878 130.048 76.7492 130.27 76.3983C130.521 75.9997 130.73 75.576 130.903 75.1393C131.252 74.2621 131.424 73.3416 131.448 72.4109C131.454 72.1555 131.74 71.9679 131.967 71.9858C132.237 72.0075 132.369 72.2425 132.363 72.4943C132.323 74.0553 131.844 75.6006 130.997 76.9412C130.672 77.4571 130.183 78.023 130.734 78.5312C131.284 79.0389 132.157 78.8345 132.834 78.703C133.423 78.5883 133.546 79.5114 132.958 79.6257C132.077 79.7973 131.128 79.9316 130.351 79.434C129.707 79.0228 129.38 78.2528 129.642 77.4836Z" fill="#EE7225"/>
<path d="M135.717 81.0046C134.603 82.3285 132.834 83.0611 131.107 82.8551C130.826 82.8216 130.55 82.969 130.489 83.2619C130.437 83.5207 130.614 83.8455 130.896 83.8792C132.994 84.1291 135.137 83.3166 136.503 81.6935C136.936 81.1785 136.151 80.4893 135.717 81.0046Z" fill="#EE7225"/>
<path d="M128.57 66.9031C128.359 66.8182 128.151 66.838 127.96 66.8775C126.689 67.1393 125.822 68.3149 125.746 69.7861C125.81 69.5812 125.892 69.389 126.021 69.2365C126.03 69.2276 126.039 69.2233 126.046 69.2147C126.116 69.1129 126.195 69.021 126.285 68.9444C126.616 68.6621 127.05 68.5336 127.483 68.4237C127.916 68.3141 128.359 68.2167 128.728 67.9862C128.906 67.8748 129.076 67.6959 129.032 67.4363C128.992 67.2015 128.78 66.9873 128.57 66.9031Z" fill="#1A0940"/>
<path d="M136.491 66.0098C136.668 65.8524 136.871 65.7949 137.063 65.763C138.341 65.5484 139.48 66.3499 139.947 67.7193C139.831 67.548 139.702 67.3947 139.538 67.2974C139.529 67.2917 139.518 67.2907 139.509 67.2858C139.416 67.2151 139.316 67.1564 139.209 67.1162C138.819 66.9689 138.372 67.005 137.931 67.0587C137.49 67.1117 137.043 67.1813 136.631 67.097C136.432 67.0564 136.222 66.948 136.194 66.6857C136.169 66.4476 136.313 66.1665 136.491 66.0098Z" fill="#1A0940"/>
</svg>
